<?xml version="1.0" standalone="no"?>
<!DOCTYPE svg PUBLIC "-//W3C//DTD SVG 1.1//EN" "http://www.w3.org/Graphics/SVG/1.1/DTD/svg11.dtd" >
<svg xmlns="http://www.w3.org/2000/svg">
<metadata></metadata>
<defs>
<font id="fzlantingheis-ul-gbregular" horiz-adv-x="256" vert-adv-y="256" >
<font-face units-per-em="256" ascent="204" descent="-52" />
<missing-glyph horiz-adv-x="71" />
<glyph unicode=" "  horiz-adv-x="71" />
<glyph unicode="&#x09;" horiz-adv-x="71" />
<glyph unicode="&#xa0;" horiz-adv-x="71" />
<glyph unicode="!" horiz-adv-x="59" d="M27 188h5v-145h-5v145zM19 9l4 4l17 -16l-3 -3z" />
<glyph unicode="&#x22;" horiz-adv-x="80" d="M23 188h5v-68h-5v68zM52 188h5v-68h-5v68z" />
<glyph unicode="#" horiz-adv-x="175" d="M104 62l12 56h-44l-12 -56h44zM161 118h-40l-12 -56h38v-4h-39l-14 -62l-5 1l14 61h-44l-14 -62l-5 1l14 61h-39v4h40l12 56h-39v5h40l14 64l5 -1l-14 -63h44l14 64l5 -1l-14 -63h39v-5z" />
<glyph unicode="$" horiz-adv-x="170" d="M88 89v-90q60 0 60 44q3 33 -60 46zM83 95v87q-50 -3 -54 -42q-2 -33 54 -45zM88 -6v-23h-5v23q-51 1 -67 56l5 1q14 -51 62 -52v91q-61 13 -59 50q5 44 59 47v23h5v-23q44 -5 60 -47l-4 -2q-15 39 -56 44v-88q68 -14 65 -51q-1 -49 -65 -49z" />
<glyph unicode="%" horiz-adv-x="249" d="M27 141q3 -42 35 -45q32 4 35 45q-3 41 -35 45q-32 -3 -35 -45zM22 141q4 46 40 50q36 -4 40 -50q-4 -46 -40 -50q-36 4 -40 50zM152 38q3 -38 35 -42q32 3 35 42q-3 42 -35 45q-32 -4 -35 -45zM147 38q3 46 40 50q37 -4 40 -50q-3 -43 -40 -47q-37 4 -40 47zM69 -10 l109 203l4 -3l-109 -202z" />
<glyph unicode="&#x26;" horiz-adv-x="221" d="M27 41q2 -41 54 -43q51 -1 73 29q-42 36 -77 71q-51 -24 -50 -57zM66 116q6 -6 12 -13q2 1 5 3q4 1 5 2q47 17 42 45q-3 30 -37 32q-38 -2 -41 -35q0 -18 14 -34zM177 91l5 -1q-6 -38 -21 -62q29 -24 45 -32l-4 -4q-21 13 -44 33q-24 -32 -77 -32q-57 3 -59 48 q-1 35 51 60q-2 2 -5 6l-6 6q-15 16 -15 37q3 36 46 39q39 -2 42 -36q4 -32 -45 -50q-5 -1 -8 -3q16 -17 60 -56q10 -9 15 -13q15 23 20 60z" />
<glyph unicode="'" horiz-adv-x="40" d="M18 188h5v-68h-5v68z" />
<glyph unicode="(" horiz-adv-x="94" d="M77 211l4 -3q-51 -54 -53 -125q-1 -76 53 -122l-3 -4q-55 48 -55 126q2 73 54 128z" />
<glyph unicode=")" horiz-adv-x="94" d="M14 208l3 3q53 -56 55 -128q0 -78 -55 -126l-3 4q54 46 53 122q-2 71 -53 125z" />
<glyph unicode="*" horiz-adv-x="123" d="M107 157l-41 -12l27 -37l-4 -3l-28 37l-26 -38l-4 3l27 38l-42 12l1 5l42 -12v41h5v-41l41 12z" />
<glyph unicode="+" horiz-adv-x="167" d="M149 92v-5h-63v-63h-5v63h-63v5h63v63h5v-63h63z" />
<glyph unicode="," horiz-adv-x="84" d="M50 21v-33q0 -31 -15 -41v6q10 11 10 36v5h-5v27h10z" />
<glyph unicode="-" horiz-adv-x="100" d="M16 78h68v-5h-68v5z" />
<glyph unicode="." horiz-adv-x="81" d="M44 19v-24h-6v24h6z" />
<glyph unicode="/" horiz-adv-x="96" d="M11 -6l69 196l5 -2l-69 -195z" />
<glyph unicode="0" horiz-adv-x="163" d="M22 90q1 -91 60 -93q58 1 59 93q-2 90 -59 94q-57 -5 -60 -94zM17 90q3 94 65 99q61 -4 64 -99q-2 -95 -64 -98q-64 3 -65 98z" />
<glyph unicode="1" horiz-adv-x="166" d="M100 191h5v-197h-5v186q-18 -34 -63 -59l-2 4q49 27 65 66z" />
<glyph unicode="2" horiz-adv-x="158" d="M20 0h119v-5h-125v5q23 46 70 78q53 30 49 62q-2 43 -55 45q-41 -1 -54 -46l-4 1q13 49 58 50q57 -2 59 -50q3 -35 -50 -66q-44 -29 -67 -74z" />
<glyph unicode="3" horiz-adv-x="160" d="M17 45h5q9 -47 57 -48q56 2 59 46q-4 46 -61 48h-16v5h16q52 2 55 45q-5 40 -53 44q-42 -1 -52 -45l-5 1q12 48 57 49q52 -4 57 -49q-1 -37 -38 -47q43 -11 45 -51q-3 -49 -64 -51q-51 2 -62 53z" />
<glyph unicode="4" horiz-adv-x="167" d="M20 47h97v138zM150 47v-5h-28v-48h-5v48h-103v5l103 146h5v-146h28z" />
<glyph unicode="5" horiz-adv-x="160" d="M33 186h102v-5h-98l-9 -86q17 25 51 25q58 -4 62 -63q-3 -61 -64 -64q-50 2 -61 51h5q10 -45 56 -47q56 3 59 60q-4 54 -57 58q-36 -1 -53 -32l-4 1z" />
<glyph unicode="6" horiz-adv-x="165" d="M85 115q-55 -2 -59 -63q9 -55 57 -55q56 3 59 60q-4 54 -57 58zM142 144l-5 -1q-13 40 -51 41q-61 -3 -63 -98v-14q14 47 62 48q57 -4 62 -63q-3 -61 -64 -64q-51 0 -63 59q-2 16 -2 34q2 99 68 103q41 -1 56 -45z" />
<glyph unicode="7" horiz-adv-x="161" d="M145 186v-5q-65 -93 -86 -187l-5 1q21 93 85 186h-122v5h128z" />
<glyph unicode="8" horiz-adv-x="167" d="M83 -3q58 3 61 46q-2 46 -61 48q-58 -2 -60 -48q4 -43 60 -46zM30 141q1 -44 53 -45q54 0 54 45q-5 40 -54 44q-48 -4 -53 -44zM105 94q43 -11 44 -51q-4 -48 -66 -51q-60 4 -65 51q1 40 44 51q-36 9 -37 47q5 45 58 49q54 -4 59 -49q0 -38 -37 -47z" />
<glyph unicode="9" horiz-adv-x="165" d="M39 81q17 -15 41 -16q55 2 60 62q-10 57 -57 57q-57 -3 -60 -61q1 -25 16 -42zM22 35l5 1q12 -37 51 -39q63 1 64 98v13q-14 -47 -62 -48q-27 0 -44 18q-18 17 -18 45q4 62 65 66q51 -1 62 -61q2 -15 2 -33q-1 -101 -69 -102q-42 2 -56 42z" />
<glyph unicode=":" horiz-adv-x="81" d="M46 136v-40h-6v40h6zM46 21v-40h-6v40h6z" />
<glyph unicode=";" horiz-adv-x="81" d="M50 21v-33q0 -31 -15 -41v6q10 11 10 36v5h-5v27h10zM50 136v-40h-10v40h10z" />
<glyph unicode="&#x3c;" horiz-adv-x="173" d="M19 88l130 86l3 -5l-124 -81l124 -82l-3 -4z" />
<glyph unicode="=" horiz-adv-x="177" d="M19 118h139v-5h-139v5zM19 63h139v-5h-139v5z" />
<glyph unicode="&#x3e;" horiz-adv-x="173" d="M21 169l3 5l130 -86l-130 -86l-3 4l124 82z" />
<glyph unicode="?" horiz-adv-x="180" d="M66 13l4 3l23 -21l-4 -4zM82 43h-5q-1 34 29 51q34 18 32 48q-3 40 -54 43q-42 -2 -56 -46l-5 1q16 48 61 50q55 -3 59 -48q2 -32 -34 -52q-28 -15 -27 -47z" />
<glyph unicode="@" horiz-adv-x="290" d="M191 60l2 10q2 29 -13 47q-12 14 -32 14q-48 -4 -58 -64q-1 -6 -1 -12q0 -24 12 -38q13 -14 32 -14q46 3 58 57zM246 -11l3 -3q-41 -40 -108 -40q-111 4 -115 113q9 119 123 129q109 -5 115 -106q-4 -76 -56 -82q-10 0 -15 6q-8 8 -5 29q-20 -35 -55 -35q-23 0 -35 14 q-17 20 -13 53q9 64 63 68q22 0 36 -15q9 -11 12 -26l5 39h5l-13 -98q-3 -19 3 -26q5 -5 12 -5q47 6 51 78q-6 96 -110 101q-110 -9 -118 -124q5 -104 110 -108q64 -1 105 38z" />
<glyph unicode="A" horiz-adv-x="206" d="M50 65h106l-53 118zM189 -7l-31 67h-110l-30 -67l-5 2l88 194h4l88 -194z" />
<glyph unicode="B" horiz-adv-x="192" d="M34 91v-92h71q65 -1 63 45q-4 44 -63 47h-71zM34 183v-87h65q62 -2 59 44q-4 40 -59 43h-65zM29 -6v194h70q60 -3 64 -48q1 -39 -36 -46q44 -11 46 -50q2 -51 -68 -50h-76z" />
<glyph unicode="C" horiz-adv-x="215" d="M189 134l-4 -1q-22 50 -77 52q-75 -8 -82 -95q3 -88 82 -93q66 -1 81 58l5 -1q-16 -63 -86 -62q-82 7 -86 98q6 92 86 99q60 -2 81 -55z" />
<glyph unicode="D" horiz-adv-x="213" d="M37 183v-184h45q107 -4 103 91q0 93 -103 93h-45zM32 -6v194h50q109 1 108 -98q4 -100 -108 -96h-50z" />
<glyph unicode="E" horiz-adv-x="189" d="M37 -1h133v-5h-138v194h133v-5h-128v-88h122v-5h-122v-91z" />
<glyph unicode="F" horiz-adv-x="175" d="M163 183h-126v-88h111v-5h-111v-96h-5v194h131v-5z" />
<glyph unicode="G" horiz-adv-x="225" d="M198 134l-5 -1q-21 50 -82 52q-76 -8 -83 -95q4 -87 86 -93q63 0 79 39v50h-75v5h80v-56q-17 -43 -84 -43q-86 7 -90 98q7 91 87 99q64 -2 87 -55z" />
<glyph unicode="H" horiz-adv-x="210" d="M176 188h4v-194h-4v97h-140v-97h-5v194h5v-92h140v92z" />
<glyph unicode="I" horiz-adv-x="59" d="M27 188h5v-194h-5v194z" />
<glyph unicode="J" horiz-adv-x="139" d="M108 188h5v-145q0 -50 -47 -50q-52 -1 -55 54h5q3 -51 50 -49q42 -1 42 45v145z" />
<glyph unicode="K" horiz-adv-x="194" d="M185 -5l-4 -3l-91 110l-55 -53v-55h-5v194h5v-133l139 134l4 -4l-84 -80z" />
<glyph unicode="L" horiz-adv-x="166" d="M28 188h5v-189h121v-5h-126v194z" />
<glyph unicode="M" horiz-adv-x="249" d="M31 -6v194h9l85 -188l84 188h9v-194h-5v189h-1l-85 -188h-5l-85 188h-1v-189h-5z" />
<glyph unicode="N" horiz-adv-x="210" d="M30 -6v194h9l135 -189h1v189h4v-194h-8l-135 189h-1v-189h-5z" />
<glyph unicode="O" horiz-adv-x="230" d="M26 90q8 -86 89 -93q81 7 89 93q-8 87 -89 95q-81 -8 -89 -95zM21 90q8 91 94 100q86 -9 94 -100q-8 -90 -94 -97q-86 7 -94 97z" />
<glyph unicode="P" horiz-adv-x="196" d="M37 183v-106h71q63 -1 62 53q-3 50 -62 53h-71zM32 -6v194h76q63 -4 67 -58q1 -59 -67 -58h-71v-78h-5z" />
<glyph unicode="Q" horiz-adv-x="230" d="M26 90q8 -86 89 -93q81 7 89 93q-8 87 -89 95q-81 -8 -89 -95zM130 -6l48 -44l-3 -4l-51 47h-9q-86 7 -94 97q8 91 94 100q86 -9 94 -100q-5 -80 -79 -96z" />
<glyph unicode="R" horiz-adv-x="211" d="M38 88h74q69 -2 66 47q-3 46 -66 48h-74v-95zM193 -4l-4 -3l-76 90h-75v-89h-5v193h79q67 -3 71 -52q2 -52 -63 -52z" />
<glyph unicode="S" horiz-adv-x="197" d="M171 142l-5 -2q-18 43 -67 45q-59 -2 -63 -44q-3 -33 65 -46q78 -14 74 -53q0 -50 -73 -50q-63 0 -79 57l4 1q14 -53 75 -53q69 0 68 45q4 35 -70 48q-72 14 -69 51q5 47 68 49q52 -2 72 -48z" />
<glyph unicode="T" horiz-adv-x="179" d="M167 187v-5h-75v-188h-5v188h-75v5h155z" />
<glyph unicode="U" horiz-adv-x="212" d="M31 188h5v-103q-1 -88 70 -86q72 -3 70 86v103h5v-103q2 -93 -75 -91q-76 -1 -75 91v103z" />
<glyph unicode="V" horiz-adv-x="183" d="M5 187l5 2l81 -189l82 189l4 -2l-83 -193h-5z" />
<glyph unicode="W" d="M189 0l58 189l5 -2l-61 -193h-4l-59 185l-58 -185h-5l-61 193l5 2l58 -189l59 188h4z" />
<glyph unicode="X" horiz-adv-x="172" d="M167 -4l-4 -3l-77 97l-77 -97l-4 3l78 98l-71 92l3 3l71 -91l70 91l4 -3l-71 -92z" />
<glyph unicode="Y" horiz-adv-x="181" d="M177 187l-84 -113v-80h-5v80l-84 113l4 3l83 -111l83 111z" />
<glyph unicode="Z" horiz-adv-x="183" d="M21 -1h148v-5h-154v5l144 184h-134v5h140v-5z" />
<glyph unicode="[" horiz-adv-x="83" d="M20 -42v248h51v-5h-46v-238h46v-5h-51z" />
<glyph unicode="\" horiz-adv-x="96" d="M11 188l5 2l69 -196l-5 -1z" />
<glyph unicode="]" horiz-adv-x="83" d="M12 206h50v-248h-51v5h46v238h-45v5z" />
<glyph unicode="^" horiz-adv-x="113" d="M55 195h4l54 -109l-4 -2l-52 104l-52 -104l-5 2z" />
<glyph unicode="_" horiz-adv-x="163" d="M3 -31h157v-5h-157v5z" />
<glyph unicode="`" horiz-adv-x="83" d="M7 192l4 3l35 -51l-4 -3z" />
<glyph unicode="a" horiz-adv-x="168" d="M133 59v27q-11 -13 -52 -15q-58 -4 -59 -43q0 -30 43 -31q63 4 68 62zM147 -5l-4 -2q-11 12 -10 41q-18 -40 -68 -42q-47 1 -48 36q2 44 64 48q43 2 52 17q0 42 -49 40q-46 0 -56 -35l-5 1q12 38 61 39q55 1 54 -49v-58q0 -24 9 -36z" />
<glyph unicode="b" horiz-adv-x="160" d="M83 -3q54 1 55 67q-3 65 -54 69q-53 -4 -56 -69q3 -64 55 -67zM28 33v-39h-5v194h5v-93q16 42 56 43q55 -5 59 -74q-1 -70 -60 -71q-40 1 -55 40z" />
<glyph unicode="c" horiz-adv-x="152" d="M136 97l-5 -2q-14 36 -54 38q-53 -5 -57 -69q2 -63 57 -67q47 -1 58 42l4 -2q-12 -46 -62 -45q-60 5 -62 72q5 68 62 74q43 -2 59 -41z" />
<glyph unicode="d" horiz-adv-x="159" d="M77 -3q51 3 54 67q-4 65 -55 69q-51 -4 -54 -69q1 -66 55 -67zM131 188h5v-194h-5v39q-14 -38 -54 -40q-59 1 -60 71q3 70 59 74q39 -1 55 -43v93z" />
<glyph unicode="e" horiz-adv-x="168" d="M24 67h121q-3 65 -61 66q-55 -4 -60 -66zM150 62h-126q5 -62 61 -65q47 1 58 37l5 -2q-13 -38 -63 -39q-63 4 -66 72q4 68 65 73q65 -3 66 -76z" />
<glyph unicode="f" horiz-adv-x="84" d="M38 161v-26h35v-5h-35v-136h-5v136h-26v5h26v26q0 30 22 29q13 0 22 -3l-1 -5q-9 3 -21 3q-17 1 -17 -24z" />
<glyph unicode="g" horiz-adv-x="160" d="M77 4q52 3 55 65q-3 61 -55 64q-51 -4 -54 -64q0 -65 54 -65zM132 135h5v-131q-1 -57 -57 -58q-38 1 -61 26l4 3q21 -24 57 -24q51 1 52 53v35q-15 -38 -55 -39q-58 1 -59 69q3 65 59 69q40 -1 55 -40v37z" />
<glyph unicode="h" horiz-adv-x="162" d="M137 78v-84h-5v84q0 55 -46 55q-52 -5 -56 -73v-66h-5v194h5v-96q16 44 56 46q51 -1 51 -60z" />
<glyph unicode="i" horiz-adv-x="47" d="M14 187l4 3l15 -22l-4 -3zM21 136h5v-142h-5v142z" />
<glyph unicode="j" horiz-adv-x="69" d="M35 187l4 3l16 -22l-4 -3zM43 136h5v-160q1 -30 -24 -29q-15 0 -26 6l2 4q9 -5 24 -5q20 -2 19 24v160z" />
<glyph unicode="k" horiz-adv-x="145" d="M134 -7l-63 85l-42 -35v-49h-4v194h4v-139l101 87l3 -3l-59 -51l64 -86z" />
<glyph unicode="l" horiz-adv-x="45" d="M20 188h5v-194h-5v194z" />
<glyph unicode="m" horiz-adv-x="247" d="M218 82v-88h-5v88q1 52 -40 51q-45 -4 -47 -72v-67h-5v88q0 51 -40 51q-44 -5 -47 -73v-66h-5v142h5v-42q12 42 47 44q40 0 44 -44q14 43 48 44q46 1 45 -56z" />
<glyph unicode="n" horiz-adv-x="162" d="M137 78v-84h-5v84q0 55 -47 55q-51 -5 -55 -72v-67h-5v142h5v-44q16 45 55 46q52 0 52 -60z" />
<glyph unicode="o" horiz-adv-x="168" d="M22 64q5 -62 62 -67q57 4 62 67q-5 63 -62 69q-57 -6 -62 -69zM17 64q6 68 67 74q61 -6 67 -74q-5 -66 -67 -72q-62 6 -67 72z" />
<glyph unicode="p" horiz-adv-x="160" d="M84 -3q52 1 53 67q-3 65 -54 69q-52 -4 -55 -69q4 -63 56 -67zM28 35v-88h-5v189h5v-41q16 42 55 43q56 -4 59 -74q-1 -71 -58 -72q-40 1 -56 43z" />
<glyph unicode="q" horiz-adv-x="160" d="M74 -3q53 4 57 67q-3 65 -54 69q-52 -4 -55 -69q1 -66 52 -67zM131 136h5v-189h-5v88q-16 -42 -57 -43q-56 2 -57 72q3 70 60 74q40 -2 54 -43v41z" />
<glyph unicode="r" horiz-adv-x="105" d="M102 124l-4 -4q-10 13 -26 12q-38 -10 -41 -83v-56h-5v143h5v-49q14 47 41 50q19 1 30 -13z" />
<glyph unicode="s" horiz-adv-x="150" d="M131 102l-5 -2q-14 32 -51 33q-45 -1 -48 -31q-2 -23 50 -33q60 -10 57 -40q-1 -36 -57 -36q-48 0 -61 41l5 2q11 -39 56 -39q52 0 52 32q3 24 -53 35q-55 9 -53 38q4 34 52 36q40 -2 56 -36z" />
<glyph unicode="t" horiz-adv-x="83" d="M73 4l3 -4q-12 -7 -25 -7q-18 0 -18 25v112h-25v5h25v48h4v-48h38v-5h-38v-112q0 -21 14 -20q12 0 22 6z" />
<glyph unicode="u" horiz-adv-x="164" d="M138 136v-141h-4v45q-13 -47 -58 -47q-51 -1 -50 56v87h5v-87q-2 -53 45 -51q50 0 58 70v68h4z" />
<glyph unicode="v" horiz-adv-x="135" d="M2 135l4 2l62 -137l61 137l5 -2l-64 -141h-4z" />
<glyph unicode="w" horiz-adv-x="201" d="M148 1l45 135l5 -1l-47 -141h-5l-45 133l-46 -133h-4l-47 141l4 1l45 -135l46 135h4z" />
<glyph unicode="x" horiz-adv-x="137" d="M135 -3l-4 -4l-62 70l-62 -70l-4 4l63 70l-58 66l4 3l57 -65l57 65l4 -3l-58 -66z" />
<glyph unicode="y" horiz-adv-x="136" d="M129 136l4 -2l-73 -160q-13 -28 -31 -27q-10 -1 -22 6l2 4q13 -6 20 -5q16 0 26 24l9 20l-61 139l4 2l60 -137z" />
<glyph unicode="z" horiz-adv-x="156" d="M22 -1h119v-5h-126v5l117 132h-108v5h114v-5z" />
<glyph unicode="{" horiz-adv-x="109" d="M54 41v-65q0 -30 32 -30h7v-5h-7q-36 0 -37 35v65q0 23 -24 23h-9v5h9q23 1 24 23v68q1 34 37 34h7v-5h-7q-32 1 -32 -29v-68q0 -18 -16 -25q16 -7 16 -26z" />
<glyph unicode="|" horiz-adv-x="61" d="M28 192h5v-249h-5v249z" />
<glyph unicode="}" horiz-adv-x="109" d="M84 69h9v-5h-9q-24 0 -24 -23v-65q0 -35 -37 -35h-7v5h7q33 0 33 30v65q0 19 15 26q-15 7 -15 25v68q0 30 -33 29h-7v5h7q37 0 37 -34v-68q1 -22 24 -23z" />
<glyph unicode="~" horiz-adv-x="191" d="M162 97l4 -3q-15 -23 -40 -23q-15 0 -32 12q-1 1 -2 1q-15 12 -30 12q-18 -1 -32 -22l-4 3q16 24 36 24q17 0 33 -13q14 -11 31 -11q23 0 36 20z" />
<glyph unicode="&#xa4;" d="M128 6q76 7 83 84q-7 76 -83 83q-77 -7 -84 -83q8 -76 84 -84zM192 29l31 -29l-4 -3l-30 28q-26 -23 -61 -24q-35 0 -61 24l-31 -28l-3 3l31 29q-25 27 -25 61q1 35 25 60l-31 31l3 4l31 -31q26 24 61 24q35 -1 61 -24l30 31l4 -4l-31 -31q23 -24 24 -60q0 -35 -24 -61z " />
<glyph unicode="&#xa7;" d="M125 118q-32 -3 -34 -25q1 -20 36 -40q3 -2 5 -3q31 2 33 24q-1 19 -32 39q-6 3 -8 5zM86 11h5q5 -32 38 -34q35 1 36 28q3 20 -38 42q-42 23 -40 46q2 24 30 29q-32 20 -31 41q2 33 41 35q38 -2 43 -42h-5q-3 35 -38 37q-34 -1 -36 -30q-2 -21 38 -43q43 -22 41 -46 t-31 -28q32 -19 31 -41q-2 -32 -41 -33q-38 2 -43 39z" />
<glyph unicode="&#xa8;" d="M98 164l4 4l10 -12l-3 -3zM143 164l4 4l10 -12l-3 -3z" />
<glyph unicode="&#xb0;" d="M40 173q2 -26 28 -28q24 2 27 28q-3 26 -27 28q-26 -2 -28 -28zM35 173q3 30 33 33q29 -3 32 -33q-2 -29 -32 -32q-30 3 -33 32z" />
<glyph unicode="&#xb1;" d="M63 23h130v-5h-130v5zM193 108v-5h-63v-53h-5v53h-62v5h62v53h5v-53h63z" />
<glyph unicode="&#xb7;" d="M114 100l4 4l23 -24l-4 -3z" />
<glyph unicode="&#xd7;" d="M187 145l-56 -55l56 -55l-4 -4l-55 55l-55 -55l-4 4l55 55l-55 55l4 3l55 -55l55 55z" />
<glyph unicode="&#xe0;" d="M128 -3q52 3 55 67q-4 64 -56 69q-51 -4 -54 -69q1 -66 55 -67zM188 136v-142h-5v39q-15 -39 -55 -40q-59 1 -60 71q4 69 59 74q40 -1 56 -43v41h5zM105 183l5 4l40 -41l-4 -3z" />
<glyph unicode="&#xe1;" d="M128 -3q52 3 55 67q-4 64 -56 69q-51 -4 -54 -69q1 -66 55 -67zM188 136v-142h-5v39q-15 -39 -55 -40q-59 1 -60 71q4 69 59 74q40 -1 56 -43v41h5zM156 184l-39 -42l-4 3l40 42z" />
<glyph unicode="&#xe8;" d="M67 67h121q-2 64 -60 66q-56 -4 -61 -66zM194 62h-127q5 -62 62 -65q45 1 58 37l4 -2q-12 -38 -62 -39q-63 4 -67 72q5 68 66 73q64 -3 66 -76zM105 183l5 4l40 -41l-4 -3z" />
<glyph unicode="&#xe9;" d="M67 67h121q-2 64 -60 66q-56 -4 -61 -66zM194 62h-127q5 -62 62 -65q45 1 58 37l4 -2q-12 -38 -62 -39q-63 4 -67 72q5 68 66 73q64 -3 66 -76zM156 184l-39 -42l-4 3l40 42z" />
<glyph unicode="&#xea;" d="M67 67h121q-2 64 -60 66q-56 -4 -61 -66zM194 62h-127q5 -62 62 -65q45 1 58 37l4 -2q-12 -38 -62 -39q-63 4 -67 72q5 68 66 73q64 -3 66 -76zM129 175l-31 -28l-4 4l35 31l34 -31l-4 -4z" />
<glyph unicode="&#xec;" d="M126 136h5v-142h-5v142zM105 183l5 4l40 -41l-4 -3z" />
<glyph unicode="&#xed;" d="M126 136h5v-142h-5v142zM156 184l-39 -42l-4 3l40 42z" />
<glyph unicode="&#xf2;" d="M66 64q5 -63 62 -67q57 5 62 67q-5 63 -62 69q-57 -6 -62 -69zM61 64q6 68 67 74q61 -6 67 -74q-5 -66 -67 -72q-62 6 -67 72zM105 183l5 4l40 -41l-4 -3z" />
<glyph unicode="&#xf3;" d="M66 64q5 -63 62 -67q57 5 62 67q-5 63 -62 69q-57 -6 -62 -69zM61 64q6 68 67 74q61 -6 67 -74q-5 -66 -67 -72q-62 6 -67 72zM156 184l-39 -42l-4 3l40 42z" />
<glyph unicode="&#xf7;" d="M57 92h141v-5h-141v5zM114 150l4 3l23 -24l-4 -3zM114 50l4 4l23 -24l-4 -4z" />
<glyph unicode="&#xf9;" d="M184 136v-141h-5v45q-13 -48 -57 -47q-51 -1 -50 56v87h5v-87q-2 -53 45 -51q51 0 57 70v68h5zM105 183l5 4l40 -41l-4 -3z" />
<glyph unicode="&#xfa;" d="M184 136v-141h-5v45q-13 -48 -57 -47q-51 -1 -50 56v87h5v-87q-2 -53 45 -51q51 0 57 70v68h5zM156 184l-39 -42l-4 3l40 42z" />
<glyph unicode="&#xfc;" d="M184 136v-141h-5v45q-13 -48 -57 -47q-51 -1 -50 56v87h5v-87q-2 -53 45 -51q51 0 57 70v68h5zM98 157l4 4l10 -12l-3 -3zM143 157l4 4l10 -12l-3 -3z" />
<glyph unicode="&#x101;" d="M128 -2q52 3 55 67q-4 64 -56 69q-51 -4 -54 -69q1 -66 55 -67zM188 136v-142h-5v40q-15 -40 -55 -41q-59 1 -60 72q4 68 59 73q40 -1 56 -43v41h5zM161 160h-66v6h66v-6z" />
<glyph unicode="&#x113;" d="M67 67h121q-2 64 -60 66q-56 -4 -61 -66zM194 62h-127q5 -62 62 -64q45 1 58 36l4 -1q-11 -39 -62 -40q-63 4 -67 72q4 68 66 73q64 -3 66 -76zM161 160h-66v6h66v-6z" />
<glyph unicode="&#x11b;" d="M67 67h121q-2 64 -60 66q-56 -4 -61 -66zM194 62h-127q5 -62 62 -65q45 1 58 37l4 -2q-12 -38 -62 -39q-63 4 -67 72q5 68 66 73q64 -3 66 -76zM129 154l31 27l3 -4l-34 -30l-34 30l3 4z" />
<glyph unicode="&#x12b;" d="M126 136h5v-142h-5v142zM161 160h-66v6h66v-6z" />
<glyph unicode="&#x144;" d="M184 78v-84h-5v84q0 55 -47 55q-51 -5 -55 -72v-67h-5v142h5v-44q16 45 55 46q52 0 52 -60zM156 184l-39 -42l-4 3l40 42z" />
<glyph unicode="&#x148;" d="M184 78v-84h-5v84q0 55 -47 55q-51 -5 -55 -72v-67h-5v142h5v-44q16 45 55 46q52 0 52 -60zM129 154l31 27l3 -4l-34 -30l-34 30l3 4z" />
<glyph unicode="&#x14d;" d="M66 64q5 -63 62 -67q57 5 62 67q-5 63 -62 69q-57 -6 -62 -69zM61 64q6 68 67 74q61 -6 67 -74q-5 -66 -67 -72q-62 6 -67 72zM161 160h-66v6h66v-6z" />
<glyph unicode="&#x16b;" d="M184 136v-141h-5v45q-13 -48 -57 -47q-51 -1 -50 56v87h5v-87q-2 -53 45 -51q51 0 57 70v68h5zM161 160h-66v6h66v-6z" />
<glyph unicode="&#x1ce;" d="M128 -3q52 3 55 67q-4 64 -56 69q-51 -4 -54 -69q1 -66 55 -67zM188 136v-142h-5v39q-15 -39 -55 -40q-59 1 -60 71q4 69 59 74q40 -1 56 -43v41h5zM129 154l31 27l3 -4l-34 -30l-34 30l3 4z" />
<glyph unicode="&#x1d0;" d="M126 136h5v-142h-5v142zM129 154l31 27l3 -4l-34 -30l-34 30l3 4z" />
<glyph unicode="&#x1d2;" d="M66 64q5 -63 62 -67q57 5 62 67q-5 63 -62 69q-57 -6 -62 -69zM61 64q6 68 67 74q61 -6 67 -74q-5 -66 -67 -72q-62 6 -67 72zM129 154l31 27l3 -4l-34 -30l-34 30l3 4z" />
<glyph unicode="&#x1d4;" d="M184 136v-141h-5v45q-13 -48 -57 -47q-51 -1 -50 56v87h5v-87q-2 -53 45 -51q51 0 57 70v68h5zM129 154l31 27l3 -4l-34 -30l-34 30l3 4z" />
<glyph unicode="&#x1d6;" d="M184 136v-141h-5v45q-13 -48 -57 -47q-51 -1 -50 56v87h5v-87q-2 -53 45 -51q51 0 57 70v68h5zM161 173h-66v6h66v-6zM98 157l4 4l10 -12l-3 -3zM143 157l4 4l10 -12l-3 -3z" />
<glyph unicode="&#x1d8;" d="M184 136v-141h-5v45q-13 -48 -57 -47q-51 -1 -50 56v87h5v-87q-2 -53 45 -51q51 0 57 70v68h5zM98 157l4 4l10 -12l-3 -3zM143 157l4 4l10 -12l-3 -3zM156 207l-39 -42l-4 3l40 42z" />
<glyph unicode="&#x1da;" d="M184 136v-141h-5v45q-13 -48 -57 -47q-51 -1 -50 56v87h5v-87q-2 -53 45 -51q51 0 57 70v68h5zM98 157l4 4l10 -12l-3 -3zM143 157l4 4l10 -12l-3 -3zM128 170l31 27l3 -3l-34 -31l-34 31l3 3z" />
<glyph unicode="&#x1dc;" d="M184 136v-141h-5v45q-13 -48 -57 -47q-51 -1 -50 56v87h5v-87q-2 -53 45 -51q51 0 57 70v68h5zM98 157l4 4l10 -12l-3 -3zM143 157l4 4l10 -12l-3 -3zM106 205l4 4l40 -40l-4 -4z" />
<glyph unicode="&#x251;" d="M128 -2q52 3 55 67q-4 64 -56 69q-51 -4 -54 -69q1 -66 55 -67zM188 136v-142h-5v40q-15 -40 -55 -41q-59 1 -60 72q4 68 59 73q40 -1 56 -43v41h5z" />
<glyph unicode="&#x261;" d="M128 4q52 4 55 65q-3 61 -56 64q-51 -4 -54 -64q0 -64 55 -65zM183 135h5v-131q-1 -57 -57 -58q-38 0 -61 26l4 3q21 -24 57 -24q51 1 52 53v35q-15 -38 -55 -39q-59 1 -60 69q4 65 59 69q41 -1 56 -40v37z" />
<glyph unicode="&#x2c7;" d="M128 157l30 24l4 -4l-34 -27l-34 27l4 4z" />
<glyph unicode="&#x2c9;" d="M159 158h-62v5h62v-5z" />
<glyph unicode="&#x391;" d="M126 158l-31 -84h64zM88 56l-21 -56h-23l69 178h27l72 -178h-24l-22 56h-78z" />
<glyph unicode="&#x392;" d="M63 178h69q46 -2 51 -44q0 -28 -22 -40q-1 -1 0 -1q28 -7 32 -42q-3 -51 -59 -51h-71v178zM84 160v-60h44q35 5 34 34q-4 24 -33 26h-45zM84 82v-64h48q37 2 40 32q-2 31 -35 32h-53z" />
<glyph unicode="&#x393;" d="M70 178h116v-18h-96v-160h-20v178z" />
<glyph unicode="&#x394;" d="M124 180l89 -180h-170zM125 132l-49 -112h103z" />
<glyph unicode="&#x395;" d="M163 101v-18h-73v-65h96v-18h-116v178h110v-18h-90v-59h73z" />
<glyph unicode="&#x396;" d="M69 176h128l-100 -157h100v-19h-138l101 157h-91v19z" />
<glyph unicode="&#x397;" d="M84 86v-86h-21v178h21v-74h89v74h20v-178h-20v86h-89z" />
<glyph unicode="&#x398;" d="M84 101h88v-18h-88v18zM127 166q-56 -3 -60 -73q2 -74 61 -76q58 4 61 75q-4 72 -62 74zM128 186q77 -4 83 -94q-5 -91 -84 -93q-79 3 -82 94q5 90 83 93z" />
<glyph unicode="&#x399;" d="M118 178h20v-178h-20v178z" />
<glyph unicode="&#x39a;" d="M161 178h26q-30 -53 -80 -85q50 -31 87 -93h-28q-28 51 -83 86v-86h-21v178h21v-78q50 32 78 78z" />
<glyph unicode="&#x39b;" d="M113 178h27l71 -178h-23l-63 158l-58 -158h-22z" />
<glyph unicode="&#x39c;" d="M47 178h31l51 -102l50 102h30v-178h-20v149l-56 -112h-9l-57 115v-152h-20v178z" />
<glyph unicode="&#x39d;" d="M61 178h22l91 -125v125h21v-178h-11l-102 142v-142h-21v178z" />
<glyph unicode="&#x39e;" d="M61 178h131l-83 -77h83l-85 -83h88v-18h-134l83 82h-80l80 78h-83v18z" />
<glyph unicode="&#x39f;" d="M127 166q-57 -3 -61 -73q3 -73 63 -76q57 3 61 75q-4 71 -63 74zM129 186q77 -3 82 -93q-4 -92 -82 -94q-80 2 -84 94q4 90 84 93z" />
<glyph unicode="&#x3a0;" d="M86 158v-158h-20v158h-20v18h163v-18h-22v-158h-20v158h-81z" />
<glyph unicode="&#x3a1;" d="M70 177h60q52 -1 55 -54q-2 -51 -55 -53h-39v-70h-21v177zM91 159v-71h38q32 3 34 34q-2 36 -34 37h-38z" />
<glyph unicode="&#x3a3;" d="M62 178h131v-18h-101l75 -72l-77 -70h106v-18h-136v18l77 70l-75 72v18z" />
<glyph unicode="&#x3a4;" d="M137 0h-21v158h-64v18h152v-18h-67v-158z" />
<glyph unicode="&#x3a5;" d="M43 178h26l59 -86l59 86h26l-75 -107v-71h-20v70z" />
<glyph unicode="&#x3a6;" d="M117 36v110q-52 -7 -54 -55q2 -48 54 -55zM137 0h-20v17q-71 7 -73 74q2 67 73 74v13h20v-13q73 -7 75 -75q-2 -68 -75 -74v-16zM137 146v-111q53 6 55 55q-1 49 -55 56z" />
<glyph unicode="&#x3a7;" d="M72 0h-27l70 91l-67 87h27l53 -69l53 69h27l-67 -87l70 -91h-27l-56 74z" />
<glyph unicode="&#x3a8;" d="M45 178h21q2 -67 50 -76v76h21v-77q51 8 53 77h21q-1 -87 -74 -97v-81h-21v81q-70 8 -71 97z" />
<glyph unicode="&#x3a9;" d="M57 0v19h35q-42 38 -42 87q5 70 77 74q75 -2 79 -77q-1 -52 -43 -84h35v-19h-59v23q46 33 47 79q-3 57 -59 58q-54 -3 -57 -54q-1 -43 46 -83v-23h-59z" />
<glyph unicode="&#x3b1;" d="M197 120v-22q-24 -10 -27 -37q0 -28 27 -43v-19q-26 6 -35 27q-15 -27 -51 -27q-50 4 -52 59q4 61 53 64q35 -1 50 -29q12 23 35 27zM78 58q3 -40 34 -43q38 2 39 47q-5 37 -35 41q-37 -1 -38 -45z" />
<glyph unicode="&#x3b2;" d="M138 90h-32v16h11q31 3 33 38q-3 21 -28 23q-30 -1 -32 -33v-106q18 -12 38 -12q36 4 39 38q2 33 -29 36zM90 -36h-21v173q4 49 53 50q42 -1 48 -40q0 -29 -15 -41q1 0 0 0v-1q33 -9 32 -49q-4 -54 -60 -57q-19 0 -37 8v-43z" />
<glyph unicode="&#x3b3;" d="M188 113l16 -15q-53 -49 -81 -134h-22q5 17 12 35q2 4 3 7q-6 82 -64 86l8 19q57 -6 72 -76q24 43 56 78z" />
<glyph unicode="&#x3b4;" d="M182 158l-8 -19q-62 34 -74 15q-2 -14 39 -34q44 -21 43 -64q-4 -54 -54 -57q-52 2 -54 59q1 41 34 56q-1 0 -2 1q-32 22 -27 43q20 45 103 0zM162 57q-4 39 -34 42q-33 -3 -35 -41q1 -39 34 -42q32 3 35 41z" />
<glyph unicode="&#x3b5;" d="M166 113l-7 -18q-41 23 -49 -6q-1 -22 22 -23h28v-17h-29q-25 -2 -23 -21q12 -27 55 -3l4 -19q-68 -24 -78 22q-1 22 14 29q-13 14 -12 35q1 22 23 28q25 6 52 -7z" />
<glyph unicode="&#x3b6;" d="M168 168l17 -10l-37 -62q-44 26 -58 -8q-1 -13 23 -36l4 -4q31 -27 29 -43q-2 -39 -60 -32l3 20q33 -4 36 8q4 12 -16 28l-1 1q-39 34 -37 59q0 22 22 32q23 11 47 1z" />
<glyph unicode="&#x3b7;" d="M189 71v-107h-20v108q-2 27 -26 28q-23 -2 -28 -26v-74h-20v87q-1 9 -4 8q-4 0 -14 -10l-10 16q19 23 34 19q7 -3 11 -15q11 15 36 15q39 -1 41 -49z" />
<glyph unicode="&#x3b8;" d="M158 78h-60q5 -60 31 -62q26 0 29 62zM129 176q47 0 49 -84q-1 -93 -49 -94q-49 2 -51 94q2 82 51 84zM98 98h60q-1 57 -29 58q-27 -1 -31 -58z" />
<glyph unicode="&#x3b9;" d="M112 119h20v-92q0 -8 11 -8l1 -18q-31 -3 -32 17v101z" />
<glyph unicode="&#x3ba;" d="M157 120l18 -14q-28 -21 -55 -42q5 -4 14 -11q29 -21 45 -35l-11 -18q-5 5 -16 14q-19 17 -55 44v-58h-21v120h21v-51q32 24 60 51z" />
<glyph unicode="&#x3bb;" d="M190 16l-13 -17q-16 9 -35 72l-10 30l-43 -98h-21l55 122q-7 31 -19 34q-10 3 -28 -7l-6 -3l-4 20q37 21 57 4q9 -7 30 -74q25 -81 37 -83z" />
<glyph unicode="&#x3bc;" d="M73 118h20v-69q2 -30 30 -32q26 2 29 34v67h20v-73q0 -23 10 -37l-16 -10q-7 7 -10 16q-15 -15 -32 -14q-24 0 -31 11v-47h-20v154z" />
<glyph unicode="&#x3bd;" d="M156 116h23q-15 -89 -60 -116h-20q-6 96 -22 104l19 14q16 -15 21 -95q33 27 39 93z" />
<glyph unicode="&#x3be;" d="M173 176v-19q-59 12 -68 -18q-2 -25 32 -29h36v-17h-30q-45 -3 -45 -28q-1 -23 39 -32t40 -31q-4 -46 -69 -34l4 17q40 -10 45 15q1 10 -26 16q-53 11 -52 48q0 28 29 37q-24 12 -22 42q13 46 87 33z" />
<glyph unicode="&#x3bf;" d="M127 103q-31 -3 -34 -44q2 -44 35 -45q33 2 35 44q-2 43 -36 45zM127 121q52 -2 55 -62q-2 -60 -54 -61q-52 2 -54 62q3 58 53 61z" />
<glyph unicode="&#x3c0;" d="M107 101v-101h-20v101h-14q-7 0 -19 -2q-7 -1 -10 -1v18q12 2 24 3h144v-18h-43v-68q0 -10 11 -11l-1 -20q-30 0 -30 26v73h-42z" />
<glyph unicode="&#x3c1;" d="M94 11v-47h-21l1 81q3 72 57 74q48 -3 52 -58q0 -61 -53 -63q-23 1 -36 13zM163 60q-3 40 -34 40q-31 -1 -34 -45q1 -36 35 -40q32 1 33 45z" />
<glyph unicode="&#x3c3;" d="M124 119h67v-19h-32q14 -17 14 -43q-2 -56 -55 -59q-51 2 -53 60q4 57 53 61q4 0 7 -1zM117 99q-31 -3 -33 -42q1 -40 34 -42q33 2 35 42q-2 40 -36 42z" />
<glyph unicode="&#x3c4;" d="M155 16v-17q-30 -1 -30 18v76h-34q-5 0 -15 -2q-5 -1 -7 -1v18q2 0 7 1q10 2 15 2h96v-18h-43v-68q0 -9 11 -9z" />
<glyph unicode="&#x3c5;" d="M74 118h21q-3 -106 33 -103q37 0 34 103h20q4 -124 -54 -121q-58 -7 -54 121z" />
<glyph unicode="&#x3c6;" d="M118 17v83q-32 -8 -34 -40q1 -36 34 -43zM137 0v-52h-19v52q-52 5 -53 61q2 49 53 59v50h19v-50q51 -9 54 -61q-3 -54 -54 -59zM137 100v-83q33 6 34 42q-3 34 -34 41z" />
<glyph unicode="&#x3c7;" d="M81 -31h-22l56 81q-25 52 -38 54q-5 2 -12 -1l-4 18q11 3 21 2q19 -1 46 -54l37 54h23l-50 -73q31 -62 44 -66q3 -1 7 0q2 1 3 1l7 -17q-13 -5 -23 -4q-15 4 -48 61l-3 6z" />
<glyph unicode="&#x3c8;" d="M49 117h19q-5 -83 50 -98v98h20v-97q55 13 49 97h20q6 -102 -70 -117v-36h-19v36q-74 12 -69 117z" />
<glyph unicode="&#x3c9;" d="M94 121l3 -21q-37 -10 -38 -48q2 -35 27 -37q30 4 32 43v21h20v-20q2 -41 32 -44q24 5 26 40q0 31 -37 45l2 21q54 -14 56 -66q-2 -54 -45 -57q-31 0 -44 21q-17 -23 -44 -21q-44 2 -45 57q4 53 55 66z" />
<glyph unicode="&#x401;" d="M192 0h-128v177h124v-19h-102v-57h93v-20h-93v-61h106v-20zM95 189v27h20v-27h-20zM138 189v27h21v-27h-21z" />
<glyph unicode="&#x410;" d="M48 0l66 178h27l67 -178h-24l-18 46h-77l-17 -46h-24zM127 153l-32 -87h64z" />
<glyph unicode="&#x411;" d="M60 0v176h124v-20h-103v-52h56q56 -1 59 -50q-2 -53 -54 -54h-82zM138 85h-57v-66h60q31 1 33 34q0 29 -36 32z" />
<glyph unicode="&#x412;" d="M59 0v178h86q38 -2 43 -42q-2 -31 -27 -42q33 -10 36 -43q-2 -49 -54 -51h-84zM137 158h-57v-56h49q32 1 35 32q-2 23 -27 24zM137 82h-57v-62h57q35 2 37 30q-3 30 -37 32z" />
<glyph unicode="&#x413;" d="M94 0h-22v177h112v-20h-90v-157z" />
<glyph unicode="&#x414;" d="M86 136v42h106v-158h27l-1 -56h-21v36h-139v-36h-20l-2 56h18q32 38 32 116zM171 20v139h-63v-21q0 -79 -28 -118h91z" />
<glyph unicode="&#x415;" d="M192 0h-128v177h124v-19h-102v-57h93v-20h-93v-61h106v-20z" />
<glyph unicode="&#x416;" d="M95 96l-80 82h30l73 -77v77h22v-77l75 77h28l-80 -83l83 -95h-30l-76 90v-90h-22v90l-78 -90h-30z" />
<glyph unicode="&#x417;" d="M82 131h-22q4 52 67 53q61 -1 66 -46q1 -32 -26 -41q-1 -2 0 -2q34 -8 34 -44q-3 -51 -73 -53q-66 2 -73 58h22q4 -36 51 -40q49 3 51 34q-3 34 -40 37h-28v19h24q35 3 35 31q-2 26 -43 27q-41 0 -45 -33z" />
<glyph unicode="&#x418;" d="M58 0v178h22v-141l95 141h23v-177h-22v144l-96 -145h-22z" />
<glyph unicode="&#x419;" d="M58 0v178h22v-141l95 141h23v-177h-22v144l-96 -145h-22zM84 217h20q1 -18 25 -17q21 0 23 17h20q-7 -33 -44 -35q-41 1 -44 35z" />
<glyph unicode="&#x41a;" d="M59 0v179h22v-79l80 78h2h28l-84 -82l89 -96h-29l-86 92v-92h-22z" />
<glyph unicode="&#x41b;" d="M96 177h109v-177h-21v158h-66v-52q0 -62 -14 -82q-14 -24 -53 -24v21q29 0 38 23q5 11 6 30q2 16 1 56v47z" />
<glyph unicode="&#x41c;" d="M39 0v178h32l58 -145l55 145h33v-178h-21v150l-59 -150h-17l-60 148v-148h-21z" />
<glyph unicode="&#x41d;" d="M83 84v-84h-22v178h22v-74h90v74h22v-178h-22v84h-90z" />
<glyph unicode="&#x41e;" d="M127 165q-57 -3 -60 -71q2 -74 60 -76q61 2 62 73q-3 72 -62 74zM128 186q80 -3 84 -93q-2 -93 -85 -94q-79 4 -83 94q5 89 84 93z" />
<glyph unicode="&#x41f;" d="M60 0v178h136v-178h-22v158h-92v-158h-22z" />
<glyph unicode="&#x420;" d="M62 0v177h72q55 -2 60 -51q0 -54 -57 -56h-53v-70h-22zM133 158h-49v-68h51q35 0 35 34q-4 33 -37 34z" />
<glyph unicode="&#x421;" d="M185 60h23q-11 -63 -80 -62q-78 4 -80 95q4 91 87 93q62 -3 71 -62h-23q-9 40 -48 41q-63 0 -65 -72q3 -73 58 -77q51 2 57 44z" />
<glyph unicode="&#x422;" d="M117 0v157h-58v20h138v-20h-59v-157h-21z" />
<glyph unicode="&#x423;" d="M123 46l-66 131h25l53 -104l41 104h23l-58 -146q-12 -26 -21 -31q-16 -4 -43 2v21q21 -6 32 -1q7 5 14 24z" />
<glyph unicode="&#x424;" d="M117 195h22v-27q91 -2 90 -70q4 -69 -90 -71v-27h-22v27q-93 0 -90 71q-1 67 90 70v27zM117 47v101q-69 -2 -68 -51q-3 -49 68 -50zM139 148v-101q72 1 68 50q1 47 -68 51z" />
<glyph unicode="&#x425;" d="M113 90l-59 89h26l47 -71l47 71h26l-59 -88l63 -91h-27l-50 74l-49 -73h-26z" />
<glyph unicode="&#x426;" d="M48 0v177h21v-158h93v158h21v-158h25l-1 -55h-20v36h-139z" />
<glyph unicode="&#x427;" d="M67 131v47h21v-47q0 -22 15 -30q4 -2 24 -2q24 0 41 1v78h21v-178h-21v80q-64 -6 -77 2q-25 11 -24 49z" />
<glyph unicode="&#x428;" d="M233 0h-210v177h21v-157h73v157h21v-157h74v156h21v-176z" />
<glyph unicode="&#x429;" d="M226 0h-218v177h21v-158h75v158h21v-158h75v158h22v-157h26l-2 -56h-20v36z" />
<glyph unicode="&#x42a;" d="M108 19h48q37 0 39 38q-2 30 -37 31h-50v-69zM108 177v-69h53q51 -1 56 -50q-3 -56 -59 -58h-72v158h-47v19h69z" />
<glyph unicode="&#x42b;" d="M197 178h22v-178h-22v178zM37 0v177h22v-71h54q53 -1 56 -53q-3 -52 -59 -53h-73zM59 19h49q36 0 38 34q-3 33 -36 34h-51v-68z" />
<glyph unicode="&#x42c;" d="M62 0v177h22v-71h53q55 -1 57 -52q-2 -53 -60 -54h-72zM84 19h49q36 1 39 35q-2 33 -37 34h-51v-69z" />
<glyph unicode="&#x42d;" d="M75 128h-25q16 56 78 57q73 -4 80 -93q-5 -92 -80 -95q-72 1 -80 62h25q4 -41 54 -42q53 3 58 67h-87v19h87q-10 59 -56 61q-45 -2 -54 -36z" />
<glyph unicode="&#x42e;" d="M152 165q-56 -4 -62 -71q2 -77 63 -79q58 4 61 78q-3 68 -62 72zM68 86h-27v-84h-21v178h21v-75h28q11 76 84 79q77 -4 83 -91q-4 -93 -84 -95q-78 1 -84 88z" />
<glyph unicode="&#x42f;" d="M88 0h-27l45 72q-45 5 -46 54q2 51 58 52h77v-178h-21v71h-43zM174 158h-53q-37 -1 -39 -33q1 -33 37 -34h55v67z" />
<glyph unicode="&#x430;" d="M177 91v-63q3 -11 13 -9v-18h-16q-16 -1 -17 17q-18 -18 -45 -20q-43 2 -46 34q0 22 17 34q14 9 43 10q26 1 29 12q0 30 -31 30t-31 -25h-22q7 44 53 43q51 -2 53 -45zM156 51v16q-9 -5 -24 -6q-9 -1 -13 -2q-30 -5 -29 -26q3 -21 37 -16q25 8 29 34z" />
<glyph unicode="&#x431;" d="M163 187h18q-1 -20 -25 -28q-2 0 -9 -1q-28 -2 -40 -6q-25 -6 -26 -47q18 25 48 25q61 -1 63 -63q-2 -68 -63 -69q-61 3 -65 74v22q1 58 33 74q6 4 35 8q12 1 17 2q15 4 14 9zM87 63q3 -44 42 -50q40 1 40 52q-2 47 -41 48q-38 -2 -41 -50z" />
<glyph unicode="&#x432;" d="M75 0v131h68q32 -2 34 -32q0 -23 -19 -31q24 -8 23 -32q-1 -34 -39 -36h-67zM131 115h-36v-38h41q19 2 20 21q-2 16 -25 17zM135 60h-40v-44h39q25 2 26 20q-2 23 -25 24z" />
<glyph unicode="&#x433;" d="M105 114v-114h-21v130h88v-16h-67z" />
<glyph unicode="&#x434;" d="M89 95v35h92v-114h23l-2 -47h-19v31h-111v-31h-18l-2 47h17q20 31 20 79zM92 16h69v98h-52v-22q-1 -49 -17 -76z" />
<glyph unicode="&#x435;" d="M189 60h-100q3 -41 38 -47q32 2 38 26h22q-8 -40 -60 -41q-58 3 -60 72q5 63 60 66q62 0 62 -76zM89 77h77q-4 41 -39 42q-36 -2 -38 -42z" />
<glyph unicode="&#x436;" d="M95 70l-56 61h28l51 -57v57h20v-57l50 57h27l-56 -61l59 -70h-26l-55 66v-66h-19v66l-54 -66h-27l58 69v1z" />
<glyph unicode="&#x437;" d="M96 95h-21q6 38 53 40q48 -1 51 -34q1 -26 -22 -33q24 -3 27 -30q-2 -38 -52 -39q-57 0 -60 43h21q2 -27 38 -28q30 1 31 23q-2 23 -26 23h-23v17h25q16 2 19 20q0 21 -29 21q-28 -2 -32 -23z" />
<glyph unicode="&#x438;" d="M95 0h-23v131h21v-102l68 102h23v-131h-21v103z" />
<glyph unicode="&#x439;" d="M83 180h18q3 -20 26 -20q23 1 26 20h19q-7 -34 -45 -35q-39 1 -44 35zM95 0h-23v131h21v-102l68 102h23v-131h-21v103z" />
<glyph unicode="&#x43a;" d="M74 0v131h21v-60l55 60h27l-59 -63l64 -68h-29l-58 64v-64h-21z" />
<glyph unicode="&#x43b;" d="M100 104v27h89v-130h-21v113h-47v-23q-1 -62 -10 -74q-9 -17 -44 -16v18q24 1 28 16q6 10 5 69z" />
<glyph unicode="&#x43c;" d="M76 0h-21v131h30l44 -103l44 103h28v-131h-21v102l-43 -102h-17l-44 103v-103z" />
<glyph unicode="&#x43d;" d="M74 0v131h21v-54h66v54h21v-131h-21v61h-66v-61h-21z" />
<glyph unicode="&#x43e;" d="M127 120q-36 -3 -39 -53q2 -50 41 -52q36 2 39 52q-2 50 -41 53zM129 137q58 -3 61 -70q-3 -66 -63 -68q-58 2 -61 68q4 66 63 70z" />
<glyph unicode="&#x43f;" d="M74 0v130h108v-130h-20v113h-68v-113h-20z" />
<glyph unicode="&#x440;" d="M88 133v-17q20 22 46 22q50 -2 55 -65q-2 -69 -58 -71q-29 1 -44 23v-61h-20v169h21zM167 72q-3 49 -36 50q-42 -1 -43 -53q4 -49 44 -52q33 8 35 55z" />
<glyph unicode="&#x441;" d="M165 48h23q-7 -50 -59 -50q-59 1 -61 69q2 69 65 70q46 -3 53 -46h-22q-5 26 -31 28q-41 -1 -43 -53q2 -48 39 -52q33 0 36 34z" />
<glyph unicode="&#x442;" d="M72 115v16h112v-16h-47v-115h-20v115h-45z" />
<glyph unicode="&#x443;" d="M123 4l-58 127h25l43 -101l36 101h24l-53 -139q-11 -30 -18 -26q-18 -3 -34 1v19q19 -5 26 1q2 1 6 11z" />
<glyph unicode="&#x444;" d="M118 17v102q-60 -3 -58 -51q-1 -49 58 -51zM118 136v45h21v-45q80 -4 79 -69q0 -64 -79 -67v-36h-21v36q-79 2 -80 68q2 65 80 68zM139 119v-102q58 4 57 51q1 48 -57 51z" />
<glyph unicode="&#x445;" d="M91 0h-25l49 69l-46 63h25l33 -46l33 46h25l-45 -63l50 -69h-26l-37 51z" />
<glyph unicode="&#x446;" d="M62 0v131h20v-114h68v114h20v-114h24l-2 -47h-18v30h-112z" />
<glyph unicode="&#x447;" d="M79 83v48h21v-45q0 -14 23 -14h33v59h21v-131h-21v53h-35q-42 -1 -42 30z" />
<glyph unicode="&#x448;" d="M41 0v131h21v-114h56v114h20v-114h56v114h21v-131h-174z" />
<glyph unicode="&#x449;" d="M205 0h-174v131h20v-114h56v114h20v-114h55v114h21v-114h22l-2 -45h-18v28z" />
<glyph unicode="&#x44a;" d="M92 0v112h-34v16h55v-50h45q38 -1 40 -39q-1 -38 -40 -39h-66zM156 61h-43v-45h41q24 0 24 22q0 23 -22 23z" />
<glyph unicode="&#x44b;" d="M200 0h-21v129h21v-129zM56 0v129h21v-51h44q38 -1 41 -38q-2 -39 -41 -40h-65zM118 62h-41v-46h41q21 1 22 24q-2 21 -22 22z" />
<glyph unicode="&#x44c;" d="M75 0v129h21v-51h44q38 -1 41 -38q-3 -39 -41 -40h-65zM137 62h-41v-46h41q20 2 22 23q-2 22 -22 23z" />
<glyph unicode="&#x44d;" d="M90 90h-22q9 45 59 47q57 -4 61 -69q-1 -67 -61 -69q-54 1 -59 48h22q3 -30 37 -33q36 3 39 47h-57v17h56q-6 40 -38 41q-29 -1 -37 -29z" />
<glyph unicode="&#x44e;" d="M150 119q-37 -2 -40 -52q0 -51 40 -53q38 2 39 52q-2 52 -39 53zM88 62h-23v-60h-20v129h20v-53h23q9 57 62 59q58 -2 61 -71q-2 -66 -61 -68q-57 2 -62 64z" />
<glyph unicode="&#x44f;" d="M115 131h66v-131h-20v53h-30l-32 -53h-24l34 54q-32 6 -33 38q1 39 39 39zM161 114h-42q-19 -2 -22 -22q3 -21 23 -23h41v45z" />
<glyph unicode="&#x451;" d="M189 60h-100q3 -42 38 -47q32 2 38 25h22q-8 -39 -60 -40q-58 3 -60 71q5 64 60 66q62 0 62 -75zM89 76h77q-4 41 -39 42q-36 -2 -38 -42zM98 179q9 -1 10 -11q-1 -9 -10 -10q-10 1 -11 10q1 10 11 11zM154 179q10 -1 11 -11q-1 -9 -11 -10q-9 1 -10 10q1 10 10 11z" />
<glyph unicode="&#x2014;" d="M257 87h-257v5h257v-5z" />
<glyph unicode="&#x2016;" d="M111 -26h-11v234h11v-234zM156 -26h-11v234h11v-234z" />
<glyph unicode="&#x2018;" d="M202 212v-31h-7v-11q1 -27 13 -37v-7q-19 12 -19 48v38h13z" />
<glyph unicode="&#x2019;" d="M75 212v-38q0 -36 -19 -48v7q12 10 13 37v11h-7v31h13z" />
<glyph unicode="&#x201c;" d="M171 212v-31h-6v-11q0 -26 14 -38v-6q-19 12 -19 48v38h11zM215 212v-31h-6v-11q0 -26 14 -38v-6q-19 12 -19 48v38h11z" />
<glyph unicode="&#x201d;" d="M44 212v-38q0 -36 -19 -48v6q14 12 14 38v11h-6v31h11zM88 212v-38q0 -36 -17 -48v6q13 12 13 38v11h-6v31h10z" />
<glyph unicode="&#x2026;" d="M44 105v-26h-8v26h8zM132 105v-26h-8v26h8zM219 105v-26h-8v26h8z" />
<glyph unicode="&#x2030;" d="M22 140q2 -42 26 -45q24 4 26 45q-2 41 -26 45q-24 -3 -26 -45zM17 140q2 46 31 50q28 -4 31 -50q-3 -45 -31 -50q-28 4 -31 50zM104 39q2 -39 27 -42q24 3 26 42q-2 41 -26 45q-25 -4 -27 -45zM99 39q3 46 32 50q28 -4 31 -50q-3 -43 -31 -47q-29 4 -32 47zM182 39 q2 -39 26 -42q24 3 26 42q-2 42 -26 45q-24 -4 -26 -45zM177 39q3 46 31 50q28 -4 31 -50q-3 -43 -31 -47q-28 4 -31 47zM36 -9l104 202l4 -2l-104 -202z" />
<glyph unicode="&#x2032;" d="M51 141l31 66l5 -2l-31 -66z" />
<glyph unicode="&#x2033;" d="M51 141l31 67l5 -2l-32 -67zM83 141l31 67l5 -2l-31 -67z" />
<glyph unicode="&#x203b;" d="M41 12l81 81l-77 77q-4 4 -1 8q4 3 8 -1l77 -77l80 80q3 3 6 -1q2 -4 -1 -8l-78 -78l79 -79q3 -8 -6 -8l-80 80l-80 -80q-8 -3 -8 6zM62 112q17 -2 19 -19q-2 -17 -19 -19q-17 2 -19 19q1 18 19 19zM129 43q17 -2 19 -19q-2 -17 -19 -19q-17 2 -19 19q1 18 19 19z M195 112q17 -2 19 -19q-2 -17 -19 -19q-17 2 -19 19q1 18 19 19zM129 181q17 -2 19 -19q-2 -17 -19 -19q-17 2 -19 19q1 18 19 19z" />
<glyph unicode="&#x20ac;" horiz-adv-x="209" d="M185 54l5 -1q-14 -63 -74 -61q-59 4 -71 77h-25v5h25q-1 6 -1 15q0 8 1 15h-25v5h25q15 73 71 78q52 -3 70 -54l-5 -2q-16 49 -65 51q-51 -4 -66 -73h102v-5h-103v-15v-15h103v-5h-102q10 -69 66 -72q56 -1 69 57z" />
<glyph unicode="&#x2103;" d="M222 133l-5 -1q-16 49 -63 51q-62 -7 -67 -93q3 -87 67 -92q54 -1 67 57l5 -1q-15 -63 -72 -61q-69 7 -72 97q6 90 72 98q50 -2 68 -55zM31 169q2 -21 23 -23q22 2 24 23q-2 22 -24 24q-21 -2 -23 -24zM26 169q2 26 28 28q27 -2 29 -28q-3 -25 -29 -28q-25 3 -28 28z" />
<glyph unicode="&#x2116;" d="M29 -5v192h7l91 -187v187h5v-192h-7l-91 186v-186h-5zM162 73q3 -43 34 -47q32 4 35 47q-3 42 -35 46q-31 -4 -34 -46zM157 73q4 46 39 51q36 -4 40 -51q-3 -48 -40 -52q-36 5 -39 52zM163 3h66v-3h-66v3z" />
<glyph unicode="&#x2160;" d="M137 1h-18v185h18v-185z" />
<glyph unicode="&#x2161;" d="M108 1h-18v185h18v-185zM166 1h-18v185h18v-185z" />
<glyph unicode="&#x2162;" d="M137 1h-18v185h18v-185zM101 0h-18v185h18v-185zM173 1h-18v185h18v-185z" />
<glyph unicode="&#x2163;" d="M55 1h-18v185h17zM136 1l-64 185h18l55 -164l56 164h18l-64 -185h-19z" />
<glyph unicode="&#x2164;" d="M118 1l-64 185h18l56 -164l55 164h18l-64 -185h-19z" />
<glyph unicode="&#x2165;" d="M101 1l-64 185h18l55 -164l56 164h18l-64 -185h-19zM219 1h-17v185h17v-185z" />
<glyph unicode="&#x2166;" d="M199 1h-17v185h17v-185zM85 1l-64 185h18l55 -164l56 164h18l-64 -185h-19zM235 1h-17v185h17v-185z" />
<glyph unicode="&#x2167;" d="M76 1l-64 185h18l55 -164l56 164h18l-64 -185h-19zM185 1h-17v185h17v-185zM215 1h-18v185h18v-185zM244 1h-17v185h17v-185z" />
<glyph unicode="&#x2168;" d="M52 1h-17v184h17v-184zM201 0l-54 82l-53 -82h-20l63 95l-60 90h20l50 -78l51 78h20l-60 -90l63 -95h-20z" />
<glyph unicode="&#x2169;" d="M182 1l-54 82l-54 -82h-19l63 95l-61 90h20l51 -78l50 78h21l-61 -90l63 -95h-19z" />
<glyph unicode="&#x216a;" d="M164 1l-54 82l-53 -82h-20l64 95l-61 90h20l50 -78l51 78h20l-60 -90l63 -95h-20zM219 1h-18v185h18v-185z" />
<glyph unicode="&#x216b;" d="M144 1l-54 82l-53 -82h-20l64 95l-61 90h20l50 -78l51 78h20l-60 -90l63 -95h-20zM199 1h-18v185h18v-185zM239 1h-18v185h18v-185z" />
<glyph unicode="&#x2170;" d="M136 1h-16v133h16v-133zM136 163h-16v23h16v-23z" />
<glyph unicode="&#x2171;" d="M107 1h-15v133h15v-133zM108 163h-17v23h17v-23zM164 1h-15v133h15v-133zM165 163h-17v23h17v-23z" />
<glyph unicode="&#x2172;" d="M135 1h-15v133h15v-133zM136 163h-17v23h17v-23zM103 0h-15v133h15v-133zM104 162h-17v23h17v-23zM168 1h-15v133h15v-133zM169 163h-17v23h17v-23z" />
<glyph unicode="&#x2173;" d="M63 2h-15v132h15v-132zM64 163h-17v23h17v-23zM141 1l-51 133h16l44 -114l43 114h16l-51 -133h-17z" />
<glyph unicode="&#x2174;" d="M119 1l-51 132h17l43 -114l43 114h17l-52 -132h-17z" />
<glyph unicode="&#x2175;" d="M98 1l-51 133h17l43 -114l43 114l16 -1l-51 -132h-17zM208 1h-15v133h15v-133zM209 163h-17v23h17v-23z" />
<glyph unicode="&#x2176;" d="M189 2h-15v132h15v-132zM190 163h-17v23h17v-23zM76 1l-51 133h17l43 -114l43 114h17l-52 -133h-17zM230 2h-15v132h15v-132zM231 163h-17v23h17v-23z" />
<glyph unicode="&#x2177;" d="M73 1l-50 133h16l43 -114l43 114h17l-51 -133h-18zM169 2h-15v132h15v-132zM170 163h-17v23h17v-23zM201 2h-16v132h16v-132zM201 163h-16v23h16v-23zM232 2h-15v132h15v-132zM233 163h-17v23h17v-23z" />
<glyph unicode="&#x2178;" d="M64 2h-16v132h16v-132zM65 163h-17v23h17v-23zM190 2l-40 57l-41 -57h-19l51 68l-47 64h19l37 -53l37 53h20l-48 -64l49 -68h-18z" />
<glyph unicode="&#x2179;" d="M169 2l-40 57l-42 -57h-18l51 68l-47 64h19l36 -53l38 53h19l-48 -64l50 -68h-18z" />
<glyph unicode="&#x2190;" d="M256 94v-8h-210q20 -22 20 -46q-27 36 -66 51q38 14 66 49q-1 -27 -20 -46h210z" />
<glyph unicode="&#x2191;" d="M132 -36h-8v207q-24 -20 -46 -19q36 26 50 66q13 -38 50 -66q-28 1 -46 19v-207z" />
<glyph unicode="&#x2192;" d="M0 94h210q-18 17 -20 46q28 -35 66 -49q-39 -15 -66 -51q0 23 20 46h-210v8z" />
<glyph unicode="&#x2193;" d="M132 218v-210q20 19 46 19q-36 -26 -50 -63q-14 37 -50 63q20 2 46 -19v210h8z" />
<glyph unicode="&#x2208;" d="M207 24v-15h-92q-65 2 -66 78q1 77 66 78h92v-14h-94q-46 -3 -47 -56h136v-14h-136q0 -57 46 -57h95z" />
<glyph unicode="&#x220f;" d="M203 161v-160q-1 -20 25 -19v-6h-79v6q26 -1 25 19v177h-92v-177q-1 -20 25 -19v-6h-79v6q26 -1 25 19v160q0 25 -24 25v6h198v-6q-24 0 -24 -25z" />
<glyph unicode="&#x2211;" d="M195 190l2 -40h-6q0 1 -1 4q-4 26 -38 25h-67l70 -92l-75 -87h95q24 -2 34 29h6q-1 -6 -4 -15q-5 -19 -7 -40q-2 0 -7 1q-8 2 -13 2h-128q-3 0 -8 -1h-7l89 100l-89 116q14 -2 27 -2h127z" />
<glyph unicode="&#x221a;" d="M124 0l128 218h4v-11l-136 -234h-6l-82 154l-29 -16l-3 9l47 26z" />
<glyph unicode="&#x221d;" d="M47 82q3 46 42 48q27 0 41 -36q17 35 50 34q24 -1 27 -7q0 -5 -3 -5q-2 0 -7 1h-8q-33 3 -51 -41q18 -28 49 -27q4 0 10 1q4 1 6 1q6 0 6 -3q-7 -11 -29 -12q-33 0 -45 33q-16 -36 -45 -35q-41 2 -43 48zM55 80q1 -30 30 -31q22 0 38 35q2 3 3 5q-12 25 -37 25 q-32 -2 -34 -34z" />
<glyph unicode="&#x221e;" d="M128 91q17 19 33 27q43 11 52 -32q-2 -35 -38 -37q-19 -1 -47 28q-26 -29 -46 -28q-36 2 -39 35q8 45 52 34q12 -6 33 -27zM122 84q-20 22 -32 26q-33 5 -37 -25q2 -25 30 -26q17 0 39 25zM133 84q18 -20 37 -25q30 -2 33 25q-4 33 -37 25q-13 -4 -33 -25z" />
<glyph unicode="&#x2220;" d="M41 1l121 160l9 -6l-109 -144h153v-10h-174z" />
<glyph unicode="&#x2225;" d="M108 -30h-9l126 248h9zM31 -30h-9l126 248h9z" />
<glyph unicode="&#x2227;" d="M200 -6h-13l-56 184l-62 -182h-13l67 198h16z" />
<glyph unicode="&#x2228;" d="M69 192l59 -187l60 187h12l-64 -201h-16l-64 201h13z" />
<glyph unicode="&#x2229;" d="M191 0v92q-1 57 -63 59q-62 -2 -63 -59v-92h-15v92q2 72 78 74q76 -2 78 -74v-92h-15z" />
<glyph unicode="&#x222a;" d="M191 68v93h15v-91q-1 -72 -78 -73q-77 1 -78 73v91h15v-93q1 -57 63 -58q62 1 63 58z" />
<glyph unicode="&#x222b;" d="M122 46l3 85q3 56 27 57q7 0 7 -6q0 -5 -5 -5q-3 0 -6 3q-2 2 -3 2q-9 3 -11 -50l-3 -86q-2 -86 -27 -82q-6 0 -7 7q0 5 5 5q3 0 6 -3q1 -2 2 -2q10 -5 12 75z" />
<glyph unicode="&#x222e;" d="M133 100l-1 -47q20 3 21 24q-1 19 -20 23zM122 53l2 47q-19 -3 -20 -23q1 -19 18 -24zM134 132v-26q23 -5 25 -29q-2 -27 -28 -30v-1q-1 -37 -5 -55q-5 -27 -22 -27q-6 0 -7 7q0 5 5 5q3 0 6 -3q1 -2 2 -2q10 0 12 56v20q-23 5 -24 30q2 26 26 29l2 25q3 57 25 58 q7 -1 8 -7q0 -5 -5 -5q-3 0 -6 3q-2 2 -3 2q-10 2 -11 -50z" />
<glyph unicode="&#x2234;" d="M83 41q-1 -10 -11 -11q-10 1 -11 11q1 10 11 11q10 -1 11 -11zM195 41q-1 -10 -11 -11q-10 1 -11 11q1 10 11 11q10 -1 11 -11zM139 137q-1 -10 -11 -11q-10 1 -11 11q1 10 11 11q10 -1 11 -11z" />
<glyph unicode="&#x2235;" d="M83 137q-1 -10 -11 -11q-10 1 -11 11q1 10 11 11q10 -1 11 -11zM195 137q-1 -10 -11 -11q-10 1 -11 11q1 10 11 11q11 0 11 -11zM139 41q-1 -10 -11 -11q-10 1 -11 11q1 10 11 11q10 -1 11 -11z" />
<glyph unicode="&#x2236;" d="M115 157l3 4l23 -24l-3 -3zM115 41l3 4l23 -24l-3 -4z" />
<glyph unicode="&#x2237;" d="M171 140q12 -1 13 -13q-2 -12 -13 -13q-11 1 -13 13q1 12 13 13zM171 49q11 -1 13 -12q-1 -12 -13 -13q-12 1 -13 13q2 11 13 12zM85 140q12 -1 13 -13q-2 -12 -13 -13q-11 1 -13 13q1 12 13 13zM85 49q11 -1 13 -12q-1 -12 -13 -13q-12 1 -13 13q2 11 13 12z" />
<glyph unicode="&#x223d;" d="M226 49h-11q-2 53 -40 55q-18 0 -43 -26q-28 -29 -50 -29q-50 0 -52 66h10q1 -54 40 -55q20 0 46 27q27 28 49 28q49 -2 51 -66z" />
<glyph unicode="&#x2248;" d="M212 118v-14q-22 -18 -42 -17q-16 0 -44 11q-26 10 -39 10q-20 0 -43 -19v13q23 19 42 18q16 0 44 -11q26 -10 39 -10q20 0 43 19zM212 80v-14q-22 -18 -42 -17q-16 0 -44 11q-26 9 -39 9q-20 0 -43 -19v14q22 18 42 17q16 0 44 -11q26 -10 39 -10q19 0 43 20z" />
<glyph unicode="&#x224c;" d="M228 12h-204v11h204v-11zM228 48h-204v11h204v-11zM226 87h-11q-2 53 -40 54q-18 0 -43 -26q-28 -28 -50 -28q-50 0 -52 65h10q1 -54 40 -55q20 0 46 27q27 28 49 28q48 -2 51 -65z" />
<glyph unicode="&#x2260;" d="M101 57h-58v12h68l20 27h-88v12h97l45 59h13l-45 -59h60v-12h-69l-20 -27h89v-12h-99l-44 -58h-13z" />
<glyph unicode="&#x2261;" d="M212 111h-168v12h168v-12zM212 41h-168v12h168v-12zM212 76h-168v12h168v-12z" />
<glyph unicode="&#x2264;" d="M215 59v-16l-174 48v16l174 48v-15l-152 -41zM215 12v-13l-174 47v15z" />
<glyph unicode="&#x2265;" d="M215 61v-15l-174 -47v13zM215 107v-16l-174 -48v16l152 40l-152 41v15z" />
<glyph unicode="&#x226e;" d="M113 61l23 52l-78 -30zM213 21v-12l-94 38l-21 -48h-12l23 52l-66 26v11l99 39l16 40h12l-14 -34l57 23v-12l-63 -25l-27 -62z" />
<glyph unicode="&#x226f;" d="M98 -1h-12l15 34l-58 -24v13l64 25l26 62l-90 36v11l95 -37l20 48h12l-22 -53l65 -26v-11l-98 -39zM143 104l-22 -52l77 31z" />
<glyph unicode="&#x2299;" d="M128 76q-13 2 -15 15q2 14 15 15q14 -1 15 -15q-1 -13 -15 -15zM128 9q75 7 82 82q-7 76 -82 83q-75 -7 -82 -83q7 -75 82 -82zM128 184q85 -8 93 -93q-8 -84 -93 -91q-85 7 -93 91q8 85 93 93z" />
<glyph unicode="&#x22a5;" d="M52 11h70v150h12v-150h70v-10h-152v10z" />
<glyph unicode="&#x2312;" d="M234 58l-1 -2q-4 0 -14 11q-39 43 -88 45h-7q-49 -2 -87 -45q-10 -11 -14 -11l-1 2q36 72 105 72q73 1 107 -72z" />
<glyph unicode="&#x2460;" d="M13 90q10 -102 114 -112q105 10 114 112q-10 104 -114 114q-104 -10 -114 -114zM8 90q10 109 119 119q109 -10 119 -119q-10 -107 -119 -117q-109 11 -119 117zM135 170h5v-155h-5v145q-15 -24 -57 -45l-2 5q46 22 59 50z" />
<glyph unicode="&#x2461;" d="M14 90q10 -102 113 -112q104 10 114 112q-10 104 -114 114q-103 -10 -113 -114zM9 90q10 109 118 119q109 -10 119 -119q-10 -106 -119 -116q-108 10 -118 116zM79 21h103v-5h-109v5q21 39 60 62q45 25 42 48q-2 33 -47 34q-34 -1 -46 -35l-4 1q11 38 50 39q49 -1 51 -39 q3 -27 -43 -52q-38 -23 -57 -58z" />
<glyph unicode="&#x2462;" d="M14 90q9 -102 114 -112q105 10 114 112q-10 104 -114 114q-104 -10 -114 -114zM9 90q10 109 119 119q109 -10 119 -119q-10 -107 -119 -117q-109 10 -119 117zM75 56l5 1q8 -37 49 -39q47 2 50 37q-4 35 -52 37h-14v5h14q44 1 46 34q-4 31 -44 34q-35 -1 -45 -34l-5 1 q11 38 50 38q45 -3 49 -39q-1 -28 -31 -36q36 -9 37 -40q-3 -40 -55 -42q-45 1 -54 43z" />
<glyph unicode="&#x2463;" d="M14 90q9 -102 114 -112q104 10 114 112q-10 104 -114 114q-104 -10 -114 -114zM9 90q10 109 119 119q108 -11 119 -119q-10 -107 -119 -117q-109 10 -119 117zM68 58h82v106zM185 58v-5h-30v-38h-5v38h-88v5l88 114h5v-114h30z" />
<glyph unicode="&#x2464;" d="M14 90q10 -102 113 -112q105 10 115 112q-10 104 -115 114q-103 -10 -113 -114zM9 90q11 109 118 119q109 -11 120 -119q-10 -107 -120 -117q-108 10 -118 117zM89 166h88v-5h-84l-7 -64q14 18 43 18q50 -3 54 -49q-3 -49 -56 -52q-43 1 -53 41l5 1q9 -37 48 -38 q48 3 51 48q-4 41 -49 44q-32 0 -45 -24l-5 1z" />
<glyph unicode="&#x2465;" d="M14 90q9 -102 114 -112q104 10 114 112q-10 104 -114 114q-104 -10 -114 -114zM9 90q10 109 119 119q108 -11 119 -119q-10 -107 -119 -117q-109 10 -119 117zM130 110q-47 -2 -50 -48q8 -43 48 -44q49 2 51 48q-4 41 -49 44zM179 134l-5 -2q-11 31 -43 32 q-52 -3 -54 -75q0 -6 1 -10q11 35 52 36q50 -3 54 -49q-2 -50 -56 -52q-44 0 -53 48q-3 12 -3 27q3 76 59 80q36 -1 48 -35z" />
<glyph unicode="&#x2466;" d="M14 90q10 -102 113 -112q105 10 115 112q-10 104 -115 114q-103 -10 -113 -114zM9 90q11 109 118 119q109 -11 120 -119q-10 -107 -120 -117q-108 10 -118 117zM73 163h110v-5q-55 -69 -74 -146l-5 1q19 75 73 145h-104v5z" />
<glyph unicode="&#x2467;" d="M14 90q9 -102 114 -112q105 10 114 112q-10 104 -114 114q-104 -10 -114 -114zM9 90q10 109 119 119q108 -11 119 -119q-10 -107 -119 -117q-109 10 -119 117zM129 18q48 2 51 37q-2 36 -51 37q-50 -1 -52 -37q4 -34 52 -37zM83 131q0 -34 46 -34q44 1 45 34 q-4 31 -45 34q-42 -3 -46 -34zM150 94q34 -8 35 -39q-4 -39 -56 -42q-53 3 -57 42q1 30 36 39q-29 8 -30 37q5 35 51 39q45 -3 50 -39q0 -29 -29 -37z" />
<glyph unicode="&#x2468;" d="M14 90q9 -102 114 -112q105 10 114 112q-10 104 -114 114q-104 -10 -114 -114zM9 90q10 109 119 119q108 -11 119 -119q-10 -107 -119 -117q-109 10 -119 117zM90 87q14 -15 36 -15q48 1 51 48q-7 44 -48 44q-48 -3 -51 -47q0 -18 12 -30zM76 49l5 1q11 -31 44 -32 q53 1 54 77v9q-12 -35 -53 -36q-24 0 -39 15q-14 14 -14 34q3 49 56 52q44 0 53 -48q3 -13 2 -26q-1 -80 -59 -81q-37 1 -49 35z" />
<glyph unicode="&#x2469;" d="M14 90q10 -102 113 -112q105 10 114 112q-10 104 -114 114q-103 -10 -113 -114zM9 90q11 109 118 119q109 -10 119 -119q-10 -107 -119 -117q-108 10 -118 117zM113 91q1 -71 41 -73q40 2 41 73q-2 70 -41 73q-39 -4 -41 -73zM108 91q3 73 46 78q44 -3 46 -78 q-1 -76 -46 -78q-45 3 -46 78zM75 168h5v-154h-5v140q-9 -22 -30 -40l-3 4q25 21 33 50z" />
<glyph unicode="&#x2474;" d="M62 206l3 -3q-51 -49 -53 -113q0 -70 53 -111l-3 -3q-55 41 -55 114q2 67 55 116zM190 203l3 3q53 -51 55 -116q0 -73 -55 -114l-3 3q54 41 53 111q-2 64 -53 113zM135 172h5v-162h-5v152q-16 -26 -56 -47l-2 4q45 23 58 53z" />
<glyph unicode="&#x2475;" d="M62 206l3 -3q-51 -49 -53 -113q0 -70 53 -111l-3 -3q-55 41 -55 114q2 65 55 116zM190 203l3 3q53 -49 55 -116q0 -73 -55 -114l-3 3q54 41 53 111q-2 64 -53 113zM77 16h109v-5h-114v5q22 40 63 64q47 26 44 51q-2 35 -49 36q-37 -1 -49 -37l-4 1q12 40 53 41 q51 -1 54 -41q3 -28 -46 -55q-38 -21 -61 -60z" />
<glyph unicode="&#x2476;" d="M62 206l3 -3q-51 -49 -53 -113q0 -70 53 -111l-3 -3q-55 41 -55 114q2 65 55 116zM190 203l3 3q53 -49 55 -116q0 -73 -55 -114l-3 3q54 41 53 111q-2 64 -53 113zM70 52l5 1q9 -39 52 -40q50 2 53 39q-4 37 -55 39h-15v4h15q46 2 49 36q-4 33 -47 36q-38 -1 -47 -36 l-5 1q10 39 52 40q48 -4 52 -41q-1 -28 -33 -38q37 -9 39 -41q-3 -42 -58 -44q-47 2 -57 44z" />
<glyph unicode="&#x2477;" d="M62 206l3 -3q-51 -49 -53 -113q0 -70 53 -111l-3 -3q-55 41 -55 114q2 65 55 116zM190 203l4 3q52 -50 54 -116q0 -73 -55 -114l-3 3q54 41 53 111q-2 64 -53 113zM68 55h86v111zM187 55v-5h-28v-40h-5v40h-93v5l93 119h5v-119h28z" />
<glyph unicode="&#x2478;" d="M62 206l3 -3q-51 -49 -53 -113q0 -70 53 -111l-3 -3q-55 41 -55 114q2 65 55 116zM190 203l4 3q52 -50 54 -116q0 -73 -54 -114l-4 3q54 41 53 111q-2 64 -53 113zM86 168h92v-5h-88l-8 -68q16 19 46 19q52 -4 56 -51q-3 -52 -58 -54q-45 1 -56 42l5 1q9 -37 51 -38 q51 2 53 49q-4 43 -51 47q-33 -1 -48 -26l-4 1z" />
<glyph unicode="&#x2479;" d="M62 206l3 -3q-51 -49 -53 -113q0 -70 53 -111l-3 -3q-55 41 -55 114q2 67 55 116zM190 203l3 3q53 -49 55 -116q0 -73 -55 -114l-3 3q54 41 53 111q-2 64 -53 113zM129 110q-49 -1 -54 -51q9 -45 51 -45q52 2 54 49q-4 44 -51 47zM180 134l-5 -1q-12 32 -46 33 q-58 -4 -56 -90q12 37 56 38q52 -4 56 -51q-2 -52 -59 -54q-45 0 -56 50q-2 13 -2 28q3 80 61 84q37 -1 51 -37z" />
<glyph unicode="&#x247a;" d="M62 206l3 -3q-51 -49 -53 -113q0 -70 53 -111l-3 -3q-55 41 -55 114q2 65 55 116zM190 203l4 3q52 -50 54 -116q0 -73 -55 -114l-3 3q54 41 53 111q-2 64 -53 113zM70 165h115v-5q-59 -77 -78 -153l-4 1q17 74 76 152h-109v5z" />
<glyph unicode="&#x247b;" d="M62 206l3 -3q-51 -49 -53 -113q0 -70 53 -111l-3 -3q-55 41 -55 114q2 65 55 116zM190 203l4 3q52 -50 54 -116q0 -73 -54 -114l-4 3q54 41 53 111q-2 64 -53 113zM127 13q51 3 54 39q-2 37 -54 39q-53 -1 -55 -39q4 -36 55 -39zM79 131q1 -35 48 -36q47 1 48 36 q-4 33 -48 36q-44 -3 -48 -36zM148 93q37 -9 38 -41q-4 -41 -59 -44q-55 3 -59 44q1 32 37 41q-30 8 -31 38q4 37 53 41q49 -4 53 -41q0 -30 -32 -38z" />
<glyph unicode="&#x247c;" d="M62 206l3 -3q-51 -49 -53 -113q0 -70 53 -111l-3 -3q-55 41 -55 114q2 65 55 116zM190 203l4 3q52 -50 54 -116q0 -73 -55 -114l-3 3q54 41 53 111q-2 64 -53 113zM86 85q14 -15 38 -15q50 2 54 50q-9 46 -51 46q-51 -3 -54 -49q1 -20 13 -32zM72 45l5 2q10 -32 46 -33 q56 1 57 80v10q-12 -38 -56 -39q-24 0 -42 16q-14 15 -14 36q4 51 59 54q48 -2 56 -50q0 -2 1 -7q2 -13 1 -20q-1 -83 -62 -85q-38 2 -51 36z" />
<glyph unicode="&#x247d;" d="M62 206l3 -3q-51 -49 -53 -113q0 -70 53 -111l-3 -3q-55 41 -55 114q2 65 55 116zM190 203l4 3q52 -50 54 -116q0 -73 -55 -114l-3 3q54 41 53 111q-2 64 -53 113zM111 90q1 -75 44 -77q44 2 45 77q-2 73 -45 76q-42 -4 -44 -76zM106 90q3 76 49 81q48 -3 50 -81 q-2 -79 -50 -82q-48 3 -49 82zM75 171h5v-162h-5v148q-10 -24 -34 -43l-3 4q27 21 37 53z" />
<glyph unicode="&#x247e;" d="M62 206l3 -3q-51 -49 -53 -113q0 -70 53 -111l-3 -3q-55 41 -55 114q2 67 55 116zM190 203l3 3q53 -49 55 -116q0 -73 -55 -114l-3 3q54 41 53 111q-2 64 -53 113zM83 171h5v-162h-5v148q-10 -24 -34 -43l-3 4q28 22 37 53zM173 171h5v-162h-5v148q-10 -24 -34 -43l-3 4 q28 22 37 53z" />
<glyph unicode="&#x247f;" d="M62 206l4 -3q-52 -48 -54 -113q0 -70 53 -111l-3 -3q-55 41 -55 114q2 65 55 116zM190 203l4 3q52 -50 54 -116q0 -73 -54 -114l-4 3q54 41 53 111q-1 66 -53 113zM76 171h5v-162h-5v148q-10 -24 -34 -43l-3 4q28 22 37 53zM106 130l-4 1q10 40 44 41q44 -2 46 -41 q3 -29 -39 -55q-32 -22 -50 -60h92v-5h-97v5q17 40 53 64q39 26 36 51q-2 34 -41 36q-30 -1 -40 -37z" />
<glyph unicode="&#x2480;" d="M62 206l3 -3q-51 -49 -53 -113q0 -70 53 -111l-3 -3q-55 41 -55 114q2 65 55 116zM190 203l4 3q52 -50 54 -116q0 -73 -55 -114l-3 3q54 41 53 111q-2 64 -53 113zM77 171h5v-162h-5v148q-10 -24 -34 -43l-3 4q28 22 37 53zM103 52l5 1q7 -39 43 -40q41 2 44 39 q-4 37 -46 39h-12v4h12q38 2 40 36q-3 33 -38 36q-32 -1 -39 -36l-5 1q9 39 44 40q40 -3 43 -41q0 -28 -27 -38q30 -9 32 -41q-3 -42 -48 -44q-40 1 -48 44z" />
<glyph unicode="&#x2481;" d="M62 206l3 -3q-51 -49 -53 -113q0 -70 53 -111l-3 -3q-55 41 -55 114q2 65 55 116zM190 203l4 3q52 -50 54 -116q0 -73 -55 -114l-3 3q54 41 53 111q-2 64 -53 113zM77 171h5v-162h-5v148q-10 -24 -35 -43l-3 4q27 20 38 53zM106 55h72v110zM212 55v-5h-29v-40h-5v40h-77 v5l77 119h5v-119h29z" />
<glyph unicode="&#x2482;" d="M62 206l3 -3q-51 -49 -53 -113q0 -70 53 -111l-3 -3q-55 41 -55 114q2 65 55 116zM190 203l4 3q52 -50 54 -116q0 -73 -55 -114l-3 3q54 41 53 111q-2 64 -53 113zM76 171h5v-162h-5v148q-10 -24 -35 -43l-3 4q27 20 38 53zM117 168h78v-5h-73l-7 -67q12 18 38 18 q44 -4 47 -51q-2 -51 -49 -54q-37 2 -47 43h5q7 -37 42 -38q42 2 44 49q-3 44 -42 47q-29 0 -40 -26l-4 2z" />
<glyph unicode="&#x2483;" d="M62 206l3 -3q-51 -49 -53 -113q0 -70 53 -111l-3 -3q-55 41 -55 114q2 65 55 116zM190 203l4 3q52 -50 54 -116q0 -73 -54 -114l-4 3q54 41 53 111q-2 64 -53 113zM77 171h5v-162h-5v148q-10 -24 -34 -43l-3 4q27 21 37 53zM156 110q-41 -1 -45 -51q8 -45 43 -45 q42 2 44 49q-3 44 -42 47zM199 134l-5 -1q-10 32 -38 33q-48 -4 -46 -87q10 34 46 35q44 -4 47 -51q-2 -52 -49 -54q-38 0 -48 50q-2 13 -2 28q2 81 52 84q31 -1 43 -37z" />
<glyph unicode="&#x2484;" d="M62 206l3 -3q-51 -49 -53 -113q0 -70 53 -111l-3 -3q-55 41 -55 114q2 67 55 116zM190 203l3 3q53 -49 55 -116q0 -73 -55 -114l-3 3q54 41 53 111q-2 64 -53 113zM75 171h5v-162h-5v148q-10 -24 -34 -43l-3 4q28 22 37 53zM198 167v-5q-50 -79 -65 -152h-5q15 75 64 152 h-91v5h97z" />
<glyph unicode="&#x2485;" d="M62 206l3 -3q-51 -49 -53 -113q0 -70 53 -111l-3 -3q-55 41 -55 114q2 65 55 116zM190 203l3 3q53 -49 55 -116q0 -73 -55 -114l-3 3q54 41 53 111q-2 64 -53 113zM76 171h5v-162h-5v148q-10 -24 -34 -43l-3 4q28 22 37 53zM154 13q42 2 45 39q-2 37 -45 39 q-43 -1 -45 -39q3 -36 45 -39zM114 131q1 -35 40 -36q39 1 40 36q-3 33 -40 36q-37 -3 -40 -36zM171 93q32 -9 33 -41q-3 -41 -50 -44q-46 3 -50 44q1 32 32 41q-26 9 -27 38q4 38 45 41q40 -4 44 -41q-1 -29 -27 -38z" />
<glyph unicode="&#x2486;" d="M62 206l3 -3q-51 -49 -53 -113q0 -70 53 -111l-3 -3q-55 41 -55 114q2 67 55 116zM190 203l3 3q53 -49 55 -116q0 -73 -55 -114l-3 3q54 41 53 111q-2 64 -53 113zM76 171h5v-162h-5v148q-10 -24 -34 -43l-3 4q28 22 37 53zM122 82q12 -12 29 -12q42 2 45 50 q-7 46 -42 46q-43 -3 -45 -49q1 -21 13 -35zM107 45l5 2q10 -32 38 -33q50 3 48 87q-12 -35 -47 -36q-19 0 -32 14q-15 14 -15 38q3 51 50 54q39 0 47 -50q2 -13 2 -27q-1 -83 -53 -85q-31 1 -43 36z" />
<glyph unicode="&#x2487;" d="M62 206l4 -3q-52 -48 -54 -113q0 -70 53 -111l-3 -3q-55 41 -55 114q2 65 55 116zM190 203l4 3q52 -50 54 -116q0 -73 -54 -114l-4 3q54 41 53 111q-1 66 -53 113zM137 90q1 -75 35 -77q33 3 34 77q-1 73 -34 76q-33 -4 -35 -76zM132 90q2 77 40 81q38 -3 39 -81 q-1 -80 -39 -82q-39 3 -40 82zM54 16h67v-5h-73v5q14 40 41 64q31 25 28 51q-1 35 -31 36q-25 -1 -30 -36h-5q7 40 35 41q35 -1 36 -41q2 -29 -30 -54q-25 -24 -38 -61z" />
<glyph unicode="&#x2488;" d="M184 25l3 3l23 -24l-3 -3zM118 181h5v-180h-5v169q-16 -30 -57 -53l-2 5q46 25 59 59z" />
<glyph unicode="&#x2489;" d="M204 25l4 3l23 -24l-4 -3zM60 7h109v-5h-114v5q22 45 63 72q47 28 44 56q-2 39 -50 40q-36 -1 -48 -41l-4 1q12 44 52 45q52 -2 54 -45q3 -32 -45 -60q-40 -25 -61 -68z" />
<glyph unicode="&#x248a;" d="M202 25l4 3l23 -24l-3 -3zM53 49h5q9 -44 52 -45q51 2 53 43q-3 42 -55 44h-15v4h15q47 2 49 40q-4 37 -47 40q-37 -1 -47 -40l-5 1q11 43 52 44q47 -4 52 -45q-1 -32 -34 -42q38 -10 40 -46q-2 -45 -58 -47q-47 1 -57 49z" />
<glyph unicode="&#x248b;" d="M204 25l3 3l23 -24l-3 -3zM55 51h87v123zM174 51v-5h-28v-45h-4v45h-93v5l93 132h4v-132h28z" />
<glyph unicode="&#x248c;" d="M205 25l4 3l23 -24l-4 -3zM72 176h92v-5h-88l-8 -76q16 22 46 22q52 -4 56 -57q-3 -57 -59 -60q-44 2 -55 47l5 1q9 -41 50 -43q51 2 54 55q-4 48 -51 52q-34 0 -48 -29l-5 1z" />
<glyph unicode="&#x248d;" d="M202 25l3 3l23 -24l-3 -3zM113 112q-50 -2 -54 -56q9 -51 51 -51q51 2 54 55q-4 48 -51 52zM164 139l-5 -2q-12 37 -46 38q-54 -3 -56 -88v-12q12 41 56 42q52 -4 56 -57q-3 -57 -59 -60q-46 1 -56 56q-2 13 -2 31q2 89 61 92q37 -1 51 -40z" />
<glyph unicode="&#x248e;" d="M191 25l4 3l23 -24l-4 -3zM172 176v-4q-60 -87 -78 -171l-5 1q18 82 77 170h-109v4h115z" />
<glyph unicode="&#x248f;" d="M205 25l4 3l23 -24l-4 -3zM113 4q51 3 55 43q-2 42 -55 44q-52 -2 -54 -44q4 -40 54 -43zM65 135q1 -39 48 -40q47 1 48 40q-4 37 -48 40q-44 -4 -48 -40zM134 93q38 -11 39 -46q-4 -44 -60 -47q-55 3 -59 47q1 35 39 46q-33 10 -33 42q5 41 53 45q48 -4 53 -45 q0 -33 -32 -42z" />
<glyph unicode="&#x2490;" d="M202 25l4 3l23 -24l-4 -3zM71 82q16 -15 37 -15q49 2 54 56q-9 52 -51 52q-51 -3 -54 -55q0 -24 14 -38zM56 40l4 1q12 -34 46 -36q57 1 58 89v10q-14 -41 -56 -42q-24 1 -40 16q-16 16 -16 42q3 56 59 59q47 0 56 -55q2 -13 2 -30q-1 -92 -63 -94q-38 1 -50 40z" />
<glyph unicode="&#x2491;" d="M214 25l3 3l23 -24l-3 -3zM109 89q1 -83 49 -85q48 2 49 85q-2 83 -49 86q-46 -5 -49 -86zM104 89q3 86 54 90q52 -3 54 -90q-2 -87 -54 -89q-53 3 -54 89zM53 179h5v-179h-5v164q-10 -25 -34 -48l-3 4q28 25 37 59z" />
<glyph unicode="&#x2492;" d="M211 25l4 3l22 -24l-3 -3zM61 179h5v-179h-5v164q-10 -25 -34 -48l-3 4q26 23 37 59zM170 179h5v-179h-5v164q-10 -25 -34 -48l-3 4q28 25 37 59z" />
<glyph unicode="&#x2493;" d="M214 25l3 3l23 -24l-3 -3zM57 179h5v-179h-5v164q-10 -25 -34 -48l-4 4q27 23 38 59zM100 7h102v-5h-108v5q19 43 59 72q44 28 41 56q-2 38 -46 40q-34 -1 -44 -41l-5 1q11 44 49 45q49 -2 51 -45q3 -32 -43 -60q-36 -26 -56 -68z" />
<glyph unicode="&#x2494;" d="M219 25l4 3l23 -24l-4 -3zM57 179h5v-179h-5v164q-10 -25 -34 -48l-4 4q27 23 38 59zM103 49h5q9 -44 48 -45q47 2 49 43q-3 42 -51 44h-13v4h13q44 2 46 40q-4 36 -44 40q-35 -1 -43 -40l-5 1q10 43 48 44q45 -4 49 -45q-1 -32 -32 -42q35 -9 37 -46q-2 -45 -54 -47 q-44 1 -53 49z" />
<glyph unicode="&#x2495;" d="M217 25l3 3l23 -24l-3 -3zM57 179h5v-179h-5v164q-10 -25 -34 -48l-4 4q27 23 38 59zM95 51h81v123zM213 51v-5h-33v-45h-4v45h-86v5l86 132h4v-132h33z" />
<glyph unicode="&#x2496;" d="M216 25l3 3l23 -24l-3 -3zM57 179h4v-179h-4v164q-11 -26 -35 -48l-3 4q28 25 38 59zM118 176h86v-5h-82l-8 -76q15 22 43 22q48 -4 52 -57q-3 -57 -54 -60q-41 1 -52 47l5 1q9 -42 47 -43q46 3 49 55q-4 48 -47 52q-32 0 -44 -29l-5 1z" />
<glyph unicode="&#x2497;" d="M217 25l3 3l23 -24l-3 -3zM58 179h4v-179h-4v164q-11 -26 -35 -48l-3 4q28 25 38 59zM157 112q-45 -2 -49 -56q8 -51 47 -51q48 3 50 55q-4 48 -48 52zM205 139l-5 -1q-10 36 -42 37q-54 -5 -52 -99q12 40 51 41q49 -4 53 -57q-3 -57 -55 -60q-44 1 -52 56q-2 13 -2 31 q2 89 57 92q35 -1 47 -40z" />
<glyph unicode="&#x2498;" d="M206 25l4 3l23 -24l-4 -3zM57 179h5v-179h-5v164q-10 -25 -34 -48l-3 4q26 23 37 59zM205 175v-5q-57 -88 -73 -169h-5q16 80 72 169h-102v5h108z" />
<glyph unicode="&#x2499;" d="M217 25l4 3l23 -24l-4 -3zM57 179h5v-179h-5v164q-10 -25 -34 -48l-3 4q28 25 37 59zM153 4q48 3 51 43q-2 42 -51 44q-48 -2 -50 -44q4 -40 50 -43zM109 135q1 -39 44 -40q44 1 45 40q-4 37 -45 40q-40 -4 -44 -40zM172 93q35 -10 36 -46q-3 -44 -55 -47q-51 3 -55 47 q1 35 36 46q-30 9 -30 42q4 41 49 45q46 -4 50 -45q0 -33 -31 -42z" />
<glyph unicode="&#x249a;" d="M215 25l3 3l23 -24l-3 -3zM57 179h5v-179h-5v164q-10 -25 -34 -48l-4 4q27 23 38 59zM119 81q14 -14 33 -14q46 1 49 57q-8 50 -46 51q-47 -3 -51 -55q0 -24 15 -39zM103 40l5 1q11 -35 43 -36q55 2 53 98q-14 -40 -52 -41q-21 0 -36 15q-16 17 -16 43q3 56 55 59 q53 -1 54 -85q-1 -92 -58 -94q-36 1 -48 40z" />
<glyph unicode="&#x249b;" d="M223 25l3 3l23 -24l-3 -3zM128 89q1 -83 46 -85q45 2 46 85q-2 82 -46 86q-43 -5 -46 -86zM123 89q3 85 51 90q49 -4 51 -90q-1 -86 -51 -89q-50 3 -51 89zM15 7h94v-5h-99v5q18 45 54 72q39 27 36 56q-1 38 -41 40q-30 -1 -40 -41l-5 1q11 44 45 45q44 -2 46 -45 q3 -31 -38 -60q-34 -26 -52 -68z" />
<glyph unicode="&#x2500;" d="M0 96h256v-13h-256v13z" />
<glyph unicode="&#x2501;" d="M0 104h256v-29h-256v29z" />
<glyph unicode="&#x2502;" d="M121 218h13v-254h-13v254z" />
<glyph unicode="&#x2503;" d="M112 218h29v-254h-29v254z" />
<glyph unicode="&#x2504;" d="M14 96h56v-13h-56v13zM100 96h56v-13h-56v13zM186 96h56v-13h-56v13z" />
<glyph unicode="&#x2505;" d="M14 104h56v-29h-56v29zM100 104h56v-29h-56v29zM186 104h56v-29h-56v29z" />
<glyph unicode="&#x2506;" d="M120 204h13v-57h-13v57zM133 118v-57h-13v57h13zM133 32v-55h-13v55h13z" />
<glyph unicode="&#x2507;" d="M141 204v-57h-29v57h29zM141 118v-57h-29v57h29zM141 32v-55h-29v55h29z" />
<glyph unicode="&#x2508;" d="M12 96h40v-13h-40v13zM76 96h40v-13h-40v13zM140 96h40v-13h-40v13zM204 96h40v-13h-40v13z" />
<glyph unicode="&#x2509;" d="M12 104h40v-29h-40v29zM76 104h40v-29h-40v29zM140 104h40v-29h-40v29zM204 104h40v-29h-40v29z" />
<glyph unicode="&#x250a;" d="M133 206v-40h-13v40h13zM133 142v-40h-13v40h13zM133 78v-40h-13v40h13zM133 14v-38h-13v38h13z" />
<glyph unicode="&#x250b;" d="M141 206v-40h-29v40h29zM141 142v-40h-29v40h29zM141 78v-40h-29v40h29zM141 14v-38h-29v38h29z" />
<glyph unicode="&#x250c;" d="M256 96v-13h-122v-119h-13v132h135z" />
<glyph unicode="&#x250d;" d="M256 104v-29h-122v-111h-13v140h135z" />
<glyph unicode="&#x250e;" d="M256 96v-13h-114v-119h-29v132h143z" />
<glyph unicode="&#x250f;" d="M256 104v-29h-114v-111h-29v140h143z" />
<glyph unicode="&#x2510;" d="M0 83v13h134v-132h-13v119h-121z" />
<glyph unicode="&#x2511;" d="M0 104h134v-140h-13v111h-121v29z" />
<glyph unicode="&#x2512;" d="M0 96h142v-132h-29v119h-113v13z" />
<glyph unicode="&#x2513;" d="M0 104h142v-140h-29v111h-113v29z" />
<glyph unicode="&#x2514;" d="M134 218v-122h122v-13h-135v135h13z" />
<glyph unicode="&#x2515;" d="M134 218v-114h122v-29h-135v143h13z" />
<glyph unicode="&#x2516;" d="M142 218v-122h114v-13h-143v135h29z" />
<glyph unicode="&#x2517;" d="M142 218v-114h114v-29h-143v143h29z" />
<glyph unicode="&#x2518;" d="M0 96h121v122h13v-135h-134v13z" />
<glyph unicode="&#x2519;" d="M0 104h121v114h13v-143h-134v29z" />
<glyph unicode="&#x251a;" d="M0 96h113v122h29v-135h-142v13z" />
<glyph unicode="&#x251b;" d="M0 104h113v114h29v-143h-142v29z" />
<glyph unicode="&#x251c;" d="M134 218v-122h122v-13h-122v-119h-13v254h13z" />
<glyph unicode="&#x251d;" d="M134 218v-114h122v-29h-122v-111h-13v254h13z" />
<glyph unicode="&#x251e;" d="M142 218v-122h114v-13h-122v-119h-13v127h-8v127h29z" />
<glyph unicode="&#x251f;" d="M134 218v-122h122v-13h-114v-119h-29v124h8v130h13z" />
<glyph unicode="&#x2520;" d="M142 218v-122h114v-13h-114v-119h-29v254h29z" />
<glyph unicode="&#x2521;" d="M142 218v-114h114v-29h-122v-111h-13v111h-8v143h29z" />
<glyph unicode="&#x2522;" d="M134 218v-114h122v-29h-114v-111h-29v140h8v114h13z" />
<glyph unicode="&#x2523;" d="M142 218v-114h114v-29h-114v-111h-29v254h29z" />
<glyph unicode="&#x2524;" d="M134 218v-254h-13v119h-121v13h121v122h13z" />
<glyph unicode="&#x2525;" d="M134 218v-254h-13v111h-121v29h121v114h13z" />
<glyph unicode="&#x2526;" d="M142 218v-127h-8v-127h-13v119h-121v13h113v122h29z" />
<glyph unicode="&#x2527;" d="M134 218v-130h8v-124h-29v119h-113v13h121v122h13z" />
<glyph unicode="&#x2528;" d="M142 218v-254h-29v119h-113v13h113v122h29z" />
<glyph unicode="&#x2529;" d="M142 218v-143h-8v-111h-13v111h-121v29h113v114h29z" />
<glyph unicode="&#x252a;" d="M134 218v-114h8v-140h-29v111h-113v29h121v114h13z" />
<glyph unicode="&#x252b;" d="M142 218v-254h-29v111h-113v29h113v114h29z" />
<glyph unicode="&#x252c;" d="M0 96h256v-13h-122v-119h-13v119h-121v13z" />
<glyph unicode="&#x252d;" d="M0 104h134v-8h122v-13h-122v-120h-13v112h-121v29z" />
<glyph unicode="&#x252e;" d="M0 96h121v8h135v-29h-122v-111h-13v119h-121v13z" />
<glyph unicode="&#x252f;" d="M0 104h256v-29h-122v-111h-13v111h-121v29z" />
<glyph unicode="&#x2530;" d="M0 96h256v-13h-114v-119h-29v119h-113v13z" />
<glyph unicode="&#x2531;" d="M0 104h142v-8h114v-13h-114v-119h-29v111h-113v29z" />
<glyph unicode="&#x2532;" d="M0 96h113v8h143v-29h-114v-111h-29v119h-113v13z" />
<glyph unicode="&#x2533;" d="M0 104h256v-29h-114v-111h-29v111h-113v29z" />
<glyph unicode="&#x2534;" d="M0 96h121v122h13v-122h122v-13h-256v13z" />
<glyph unicode="&#x2535;" d="M134 218v-122h122v-13h-122v-8h-134v29h121v114h13z" />
<glyph unicode="&#x2536;" d="M134 218v-114h122v-29h-135v8h-121v13h121v122h13z" />
<glyph unicode="&#x2537;" d="M134 218v-114h122v-29h-256v29h121v114h13z" />
<glyph unicode="&#x2538;" d="M142 218v-122h114v-13h-256v13h113v122h29z" />
<glyph unicode="&#x2539;" d="M142 218v-122h114v-13h-114v-8h-142v29h113v114h29z" />
<glyph unicode="&#x253a;" d="M142 218v-114h114v-29h-143v8h-113v13h113v122h29z" />
<glyph unicode="&#x253b;" d="M142 218v-114h114v-29h-256v29h113v114h29z" />
<glyph unicode="&#x253c;" d="M134 218v-122h122v-13h-122v-119h-13v119h-121v13h121v122h13z" />
<glyph unicode="&#x253d;" d="M134 218v-122h122v-13h-122v-119h-13v111h-121v29h121v114h13z" />
<glyph unicode="&#x253e;" d="M134 218v-114h122v-29h-122v-111h-13v119h-121v13h121v122h13z" />
<glyph unicode="&#x253f;" d="M134 218v-114h122v-29h-122v-111h-13v111h-121v29h121v114h13z" />
<glyph unicode="&#x2540;" d="M142 218v-122h114v-13h-122v-119h-13v119h-121v13h113v122h29z" />
<glyph unicode="&#x2541;" d="M134 218v-122h122v-13h-114v-119h-29v119h-113v13h121v122h13z" />
<glyph unicode="&#x2542;" d="M142 218v-122h114v-13h-114v-119h-29v119h-113v13h113v122h29z" />
<glyph unicode="&#x2543;" d="M142 218v-122h114v-13h-122v-119h-13v111h-121v29h113v114h29z" />
<glyph unicode="&#x2544;" d="M142 218v-114h114v-29h-122v-111h-13v119h-121v13h113v122h29z" />
<glyph unicode="&#x2545;" d="M134 218v-122h122v-13h-114v-119h-29v111h-113v29h121v114h13z" />
<glyph unicode="&#x2546;" d="M134 218v-114h122v-29h-114v-111h-29v119h-113v13h121v122h13z" />
<glyph unicode="&#x2547;" d="M142 218v-114h114v-29h-122v-111h-13v111h-121v29h113v114h29z" />
<glyph unicode="&#x2548;" d="M134 218v-114h122v-29h-114v-111h-29v111h-113v29h121v114h13z" />
<glyph unicode="&#x2549;" d="M142 218v-122h114v-13h-114v-119h-29v111h-113v29h113v114h29z" />
<glyph unicode="&#x254a;" d="M142 218v-114h114v-29h-114v-111h-29v119h-113v13h113v122h29z" />
<glyph unicode="&#x254b;" d="M142 218v-114h114v-29h-114v-111h-29v111h-113v29h113v114h29z" />
<glyph unicode="&#x25a0;" d="M230 -14h-204v202h204v-202z" />
<glyph unicode="&#x25a1;" d="M230 -14h-204v202h204v-202zM37 177v-180h182v180h-182z" />
<glyph unicode="&#x25b2;" d="M221 0h-186l93 188z" />
<glyph unicode="&#x25b3;" d="M128 164l-76 -153h152zM221 0h-186l93 188z" />
<glyph unicode="&#x25c6;" d="M128 0l-96 94l96 96l96 -96z" />
<glyph unicode="&#x25c7;" d="M128 13l81 81l-81 81l-81 -81zM128 0l-96 94l96 96l96 -96z" />
<glyph unicode="&#x25cb;" d="M128 9q75 7 82 82q-7 76 -82 83q-75 -7 -82 -83q7 -75 82 -82zM128 184q85 -8 93 -93q-8 -84 -93 -91q-85 7 -93 91q8 85 93 93z" />
<glyph unicode="&#x25ce;" d="M128 184q85 -8 93 -93q-8 -84 -93 -91q-85 7 -93 91q8 85 93 93zM128 178q-79 -7 -87 -87q8 -78 87 -86q79 8 87 86q-7 80 -87 87zM128 156q59 -6 65 -64q-5 -59 -65 -65q-59 6 -65 65q6 58 65 64zM128 149q-53 -5 -58 -57q5 -53 58 -58q53 5 58 58q-5 52 -58 57z" />
<glyph unicode="&#x25cf;" d="M128 184q85 -8 93 -93q-8 -84 -93 -91q-85 7 -93 91q8 85 93 93z" />
<glyph unicode="&#x25fc;" horiz-adv-x="135" vert-adv-y="270" d="M0 135h135v-135h-135v135z" />
<glyph unicode="&#x2605;" d="M128 179l24 -70h71l-58 -44l21 -67l-58 39l-58 -39l21 67l-58 44h71z" />
<glyph unicode="&#x2606;" d="M83 12l45 34l45 -33l1 1l-18 54l46 34h-57l-17 55h-1l-17 -55h-56l45 -34l-17 -55zM128 179l24 -70h71l-58 -44l21 -67l-58 40l-58 -40l20 67l-57 44h71z" />
<glyph unicode="&#x2640;" d="M83 129q3 -42 45 -45q42 3 45 45q-3 42 -45 45q-42 -3 -45 -45zM84 19v12h38v42q-47 9 -51 56q5 52 57 57q52 -5 57 -57q-4 -47 -51 -56v-42h38v-12h-38v-29h-12v29h-38z" />
<glyph unicode="&#x2642;" d="M83 46q4 -42 45 -46q41 4 45 46q-4 41 -45 45q-41 -4 -45 -45zM84 137l-3 5q33 23 45 43h5q9 -16 39 -38q3 -3 5 -4l-2 -6q-22 9 -39 26v-61q47 -9 51 -56q-4 -50 -57 -55q-53 5 -57 55q4 47 51 56v60q-17 -15 -38 -25z" />
<glyph unicode="&#x3000;" />
<glyph unicode="&#x3001;" d="M40 46l4 3l54 -60l-4 -3z" />
<glyph unicode="&#x3002;" d="M44 16q2 -23 28 -26q26 3 28 26q-3 25 -28 28q-25 -3 -28 -28zM39 16q3 30 33 33q30 -3 33 -33q-3 -27 -33 -30q-30 3 -33 30z" />
<glyph unicode="&#x3003;" d="M130 132l-45 -87h-4l28 84q3 10 11 12q10 0 10 -9zM175 132l-45 -87h-4l28 84q2 10 11 12q11 0 10 -9z" />
<glyph unicode="&#x3005;" d="M109 189l24 -12q1 0 1 -4q0 -3 -6 -5q-2 -1 -3 -2q-7 -15 -17 -28h60q3 0 8 3t7 3q17 -11 21 -22q-1 -7 -6 -7h-6q-2 0 -5 -4q-1 -1 -1 -2q-23 -33 -50 -63q38 -30 10 -41q-7 0 -22 26q-4 7 -6 10q-13 18 -27 29l1 2q20 -7 35 -19q31 35 52 74q-1 1 -2 1h-75 q-25 -29 -47 -38q-4 1 -3 4q28 23 44 50q14 25 7 39q1 8 6 6z" />
<glyph unicode="&#x3008;" d="M125 89l53 122l5 -2l-53 -120l53 -116l-5 -2z" />
<glyph unicode="&#x3009;" d="M74 209l4 2l54 -121l-54 -119l-4 2l52 117z" />
<glyph unicode="&#x300a;" d="M108 89l53 122l5 -2l-53 -120l53 -117l-5 -1zM137 89l54 122l4 -2l-52 -120l52 -117l-4 -1z" />
<glyph unicode="&#x300b;" d="M88 209l4 2l54 -121l-54 -119l-4 2l52 117zM58 209l4 2l54 -121l-54 -119l-4 2l53 117z" />
<glyph unicode="&#x300c;" d="M125 207h51v-5h-46v-228h-5v233z" />
<glyph unicode="&#x300d;" d="M126 207h5v-232h-50v5h45v227z" />
<glyph unicode="&#x300e;" d="M115 207h72v-27h-46v-206h-26v233zM182 202h-62v-223h16v206h46v17z" />
<glyph unicode="&#x300f;" d="M141 -26h-72v26h46v207h26v-233zM74 -21h62v223h-16v-206h-46v-17z" />
<glyph unicode="&#x3010;" d="M172 208h-54v-234h54q-33 41 -33 117q1 72 33 117z" />
<glyph unicode="&#x3011;" d="M84 -26h54v234h-53q32 -47 33 -118q0 -76 -34 -116z" />
<glyph unicode="&#x3013;" d="M65 141h127v-27h-127v27zM65 65h127v-27h-127v27z" />
<glyph unicode="&#x3014;" d="M126 187l49 24l2 -4l-46 -23v-186l46 -23l-2 -4l-49 24v192z" />
<glyph unicode="&#x3015;" d="M79 207l2 4l49 -24v-192l-49 -24l-2 4l46 23v186z" />
<glyph unicode="&#x3016;" d="M116 214h64q-39 -44 -40 -124q1 -79 40 -122h-64v246zM121 209v-236h48q-34 46 -34 117q0 72 34 119h-48z" />
<glyph unicode="&#x3017;" d="M140 214v-246h-64q39 43 40 122q-1 80 -40 124h64zM135 209h-48q34 -47 34 -119q0 -71 -34 -117h48v236z" />
<glyph unicode="&#x3041;" d="M125 29l-19 -6q0 3 -2 5q-1 0 -3 -2q-32 -22 -51 -7q-8 7 -8 20v3q0 8 8 25q1 4 2 5q11 14 24 25q9 7 23 13v1q0 4 1 11q1 8 1 11h-24h-18l-2 19q10 -1 22 -1h13h12v1q2 6 2 14v3v7q-1 5 -1 7h6q5 0 15 -2q5 -1 7 -1q-3 -7 -9 -22q-1 -4 -1 -5q24 3 45 9l2 -19 q-24 -6 -50 -8q-1 -9 -4 -19q12 3 24 3h3q1 5 1 11h2l22 -4q-1 -4 -3 -9q17 -3 29 -12q19 -13 20 -38v-5q0 -23 -17 -39q-11 -14 -34 -21q-2 -1 -2 0l-15 13v3q17 3 30 13q17 13 17 30v5q-2 26 -33 35q-13 -31 -39 -59v-2q1 -4 4 -11zM114 94v-10q0 -5 2 -16q-2 7 0 -3l2 2 q12 15 20 36h-2q-15 -2 -22 -5v-4zM97 78v11v2q-22 -11 -29 -28q-12 -19 -2 -27q6 -6 17 1q9 3 17 11q-3 15 -3 30z" />
<glyph unicode="&#x3042;" d="M56 157h15q5 0 16 1h8q0 2 1 5q2 17 2 26q0 4 -1 10h5q5 0 14 -1q8 -1 12 -1q1 -4 -2 -10q-2 -3 -2 -5q0 -3 -2 -10q-1 -8 -2 -11q5 0 11 2q27 4 45 10v-25q-27 -6 -55 -11h-5q-1 -10 -2 -24q13 4 31 6q0 1 1 4v4v2q-1 2 2 4l24 -4l1 -2l-1 -1q-1 -2 -3 -8q23 -1 40 -15 q22 -23 23 -49v-7q-1 -36 -39 -60q-15 -10 -24 -10h-1q-12 13 -22 19q25 2 43 16q18 16 19 37v3q-1 24 -21 39q-3 2 -11 4h-2q-4 2 -11 3q-14 -39 -43 -73q4 -12 7 -18q-3 -1 -10 -4t-11 -3q-3 0 -5 6q-7 -6 -11 -6q-19 -15 -37 -15h-4q-23 1 -25 34v4q1 29 29 59 q14 13 37 23q0 6 1 19q1 12 1 10h-15q-11 -1 -17 -1h-15q-3 0 -3 1q-4 4 -6 14v1q-3 6 -1 9q11 -1 21 -1zM94 29l-1 3q-3 25 -3 50q-23 -12 -37 -38q-6 -9 -6 -20q1 -15 13 -15t25 11q4 5 9 9zM114 93v-24q0 -18 1 -18q19 26 26 48q-17 -3 -24 -5q-1 -1 -3 -1z" />
<glyph unicode="&#x3043;" d="M39 154l24 -6q1 -3 -2 -7v-6q0 -33 13 -66l3 -6q5 -12 11 -15q2 -1 4 -1q5 0 12 7l1 1q7 6 13 14h2l11 -19v-3q-8 -9 -17 -16q-13 -11 -23 -11q-16 -1 -32 32q-10 20 -17 66q-2 14 -3 20q0 5 -1 12q-1 3 -1 4h2zM219 77l-22 -8q-14 36 -38 68l17 9h2q28 -36 41 -69z" />
<glyph unicode="&#x3044;" d="M17 167l1 1q18 -3 34 -7q0 -2 -2 -7q-2 -7 -2 -11q-1 -5 -1 -12v-7q0 -25 4 -42q6 -21 14 -40q7 -16 17 -16q7 0 15 7q10 9 16 19h2l12 -18q2 -1 0 -3q-4 -10 -14 -18q-15 -14 -33 -14q-24 0 -38 31q-3 7 -7 20q-2 9 -4 13q-6 28 -9 56q0 3 -1 10q-1 6 -2 9q0 5 -1 15 q0 9 -1 14zM166 141l23 7h2q18 -22 39 -65q8 -14 9 -22l-24 -11h-4q-15 48 -46 88z" />
<glyph unicode="&#x3045;" d="M173 175l-6 -21q-25 5 -51 14h-2q-4 1 -5 5l7 18q27 -12 57 -16zM184 91v-5q-1 -54 -51 -87l-17 14q33 18 42 48q3 8 5 24v1q0 10 -6 19q-8 13 -27 8q-11 -4 -20 -9q-7 -4 -13 -7q-4 -2 -7 -2l-18 23q1 1 2 1h6q7 0 21 5l9 3l9 3q17 5 26 5h5q14 -1 24 -12q10 -15 10 -32 z" />
<glyph unicode="&#x3046;" d="M101 183l10 24h1q39 -16 70 -21l1 -1q-1 -3 -2 -9q-3 -11 -4 -17l-1 -1q-6 0 -19 4q-1 1 -2 1q-14 4 -40 12q-8 3 -13 5zM59 119h7q10 0 28 6q13 3 26 7q15 5 32 5h3q23 -1 33 -18q9 -13 9 -33v-9q-1 -62 -55 -108q-1 0 -3 -1t-3 -1h-1l-1 1q-8 7 -20 15v2q54 36 56 97v5 q-1 26 -22 27h-4q-9 0 -26 -8q-2 -1 -3 -1q-15 -5 -27 -14l-2 -2q-4 -3 -6 -2l-21 29v3z" />
<glyph unicode="&#x3047;" d="M166 165l-11 -19q-25 9 -51 22v1l11 17q33 -16 51 -21zM144 133l20 -11v-3q-14 -8 -32 -32q-4 -5 -6 -8h7q10 0 14 -6q4 -3 6 -11q0 -3 1 -9q1 -13 2 -18q6 -11 18 -12h4q17 0 30 6v-24q-15 -3 -31 -3h-11q-14 0 -22 7q-6 9 -8 19q-1 12 -3 24q-3 8 -10 9h-4h-2 q-1 -1 -2 -1q-9 -5 -18 -18q-9 -9 -23 -27q-1 -3 -5 -7q-1 -2 -2 -3l-19 15q47 47 75 91q-6 -2 -21 -5q-15 -2 -22 -5q-1 0 -3 -1q-2 -2 -5 -2l-10 24q9 1 29 2q35 2 52 9h1z" />
<glyph unicode="&#x3048;" d="M110 205h2q31 -17 49 -23q1 -1 3 -2q4 -1 5 -3l-8 -21l-3 -1q-31 11 -59 28v2q5 9 11 20zM46 125h5q27 0 53 5q19 1 34 7q5 2 6 4h2l23 -14q2 -1 1 -4v-1q-13 -9 -32 -34l-12 -15h7q11 0 19 -6q5 -6 7 -20q1 -3 2 -9q2 -12 4 -18q3 -12 14 -13h12q16 0 36 5v-27 q-17 -2 -32 -2h-21q-19 0 -28 13q-6 9 -10 30q0 2 -1 5q-1 7 -2 10q-5 9 -13 9q-11 0 -21 -12q-24 -27 -43 -55h-2q-12 9 -25 16v1q29 27 70 77q17 20 24 34l-1 2q-10 -5 -30 -8q-16 -3 -23 -6q-2 0 -5 -2q-3 -3 -5 -2z" />
<glyph unicode="&#x3049;" d="M164 137l10 17q20 -10 38 -24l-11 -16q-23 18 -37 23zM88 178l26 -3l2 -2q-5 -10 -7 -27q0 -5 0 -3q4 0 13 2l15 3v-18q-5 -2 -17 -4q-9 -2 -12 -3v-29q23 9 41 9h6q18 0 30 -8q15 -11 16 -29v-4q0 -23 -19 -35q-14 -10 -40 -15l-2 1l-11 16v2q50 7 51 32q-1 23 -31 24 q-17 -1 -41 -13v-11q0 -7 1 -20q1 -12 1 -18v-5q-1 -10 -11 -14q-9 -4 -23 2q-32 12 -32 32q0 14 17 27q12 9 25 17v16v9q1 7 1 11q-8 -1 -26 -1h-7l-2 21h2q5 -2 12 -2h4q5 0 16 2q-7 -2 3 0v13v6q0 5 -1 14q-1 3 -1 4zM87 63q-22 -15 -22 -23q0 -5 6 -9q5 -4 14 -5 q4 0 4 3q0 10 -2 31q2 -15 0 3z" />
<glyph unicode="&#x304a;" d="M229 138l1 -1l-12 -21h-2q-24 16 -49 29v2l12 17l2 1q30 -15 48 -27zM72 194h7q5 0 15 -1q10 -2 15 -2l1 -2q-6 -19 -7 -41q1 1 10 3q15 5 23 8l1 -25q-18 -6 -36 -10q-1 -9 -1 -18v-17q30 14 54 14h4q24 0 40 -10q19 -14 20 -36v-5q0 -13 -6 -24t-18 -20 q-21 -15 -53 -18q-6 10 -16 23q17 1 33 7q21 8 28 20q6 12 0 25q-9 13 -30 14h-5q-21 0 -49 -14q0 -3 1 -8q0 -5 1 -16q2 -21 2 -32v-5q-1 -18 -15 -24q-13 -2 -29 5q-36 13 -36 34q0 15 14 31q18 18 35 27q-1 22 0 42q-4 0 -12 -1q-16 -2 -24 -2h-7l-3 25l1 2q11 -2 22 -2 q15 0 24 2q0 19 -4 51zM77 50q-1 0 -2 -1q-18 -11 -21 -21q-2 -9 4 -15q12 -10 19 -4q3 2 3 9q0 8 -2 17v8q-1 5 -1 7z" />
<glyph unicode="&#x304b;" d="M171 148v3q3 3 9 7q6 5 9 7t9 -6q10 -9 19 -21q17 -20 31 -41v-3l-24 -15q-28 44 -53 69zM122 135h15q15 0 20 -8q6 -8 6 -19v-4q0 -27 -9 -59q-8 -35 -28 -45q-12 -7 -34 -7h-5q-3 0 -3 1q-2 4 -5 11q-4 9 -7 14v1q4 0 11 -1t10 -1h4q13 0 19 9q4 4 10 18q1 1 1 2 q9 23 9 48v6q-1 11 -10 12q-7 0 -22 -2q-7 -1 -11 -1q-14 -43 -38 -82q-9 -15 -21 -28q-4 0 -12 5q-3 2 -5 3q-1 0 -2 1q-6 1 -7 4q22 19 39 54q10 20 19 39q-15 -1 -29 -8l-1 -1q-3 -2 -7 -2l-14 29l1 2q9 -2 28 0q7 1 10 1q10 3 19 3q2 6 3 10q6 18 6 40v4v3q-1 2 -1 4 q4 -1 11 -2q14 -2 22 -4q0 -4 -4 -9q-1 -1 -1 -2q-2 -4 -3 -14q-1 -3 -1 -5q0 -3 -2 -11q-1 -7 -2 -11q11 2 21 2z" />
<glyph unicode="&#x304c;" d="M222 94l-1 -2l-21 -12q-20 37 -49 68v3l19 11q28 -26 52 -68zM229 161v-2l-13 -11h-2q-13 20 -24 26v2l12 10h2q10 -8 25 -25zM215 195v2l12 10h2q1 -1 3 -2q7 -6 16 -15q6 -6 6 -10l-12 -11h-2q-10 15 -25 26zM69 191l34 -8q-1 -3 -3 -8q-2 -3 -3 -5q-1 -3 -2 -11 q-1 -3 -1 -5q-1 -4 -2 -12q-2 -7 -2 -10q3 1 8 1q6 1 8 1t6 1h6h4q10 0 19 -4q10 -8 10 -20v-12q0 -27 -9 -63q-7 -34 -27 -39q-15 -7 -31 -7h-7q-3 7 -8 17q-3 6 -4 9l1 2q2 0 7 -1q9 -2 14 -2h4q14 0 21 13q5 11 9 27q6 29 6 46q-1 13 -14 12q-5 -1 -15 -2l-15 -3 q-20 -67 -55 -111l-2 -1q-5 3 -16 7q-5 3 -8 4v2q23 26 36 51q6 10 15 34q3 6 4 9q-15 -4 -30 -10q-4 -3 -9 -3l-11 28l2 2q2 0 6 -1q5 -1 8 0q7 1 21 4q13 3 19 4q0 3 1 6q5 23 5 47v11z" />
<glyph unicode="&#x304d;" d="M168 186h2q8 -14 9 -21q-8 -5 -24 -10q-5 -2 -8 -3q3 -4 8 -14q5 -9 7 -14q6 2 18 7l18 6h3l9 -18l-1 -3q-4 -1 -11 -3q-8 -3 -12 -4q-6 -3 -13 -4q2 -3 3 -6q12 -19 28 -39q0 -1 1 -2q4 -5 4 -8l-22 -21q-32 21 -80 21h-6q-13 0 -21 -4q-13 -9 -9 -22q1 -4 11 -11 q11 -7 23 -8q15 -3 30 -3h5q6 0 12 1l-2 -28h-7q-93 5 -97 54v5q1 16 20 29q19 9 40 9h10q21 0 50 -9h1q-2 3 -6 10q-3 7 -13 25q-10 -3 -21 -4q-27 -4 -55 -5l-2 1l-12 19l1 2h7q29 0 57 5q8 0 14 2q-6 13 -13 28q-21 -6 -43 -9q-2 4 -6 9q-3 4 -4 6q-3 3 -4 7h3q20 3 43 8 q-1 4 -5 12l-6 12q0 2 -2 4q-1 4 -1 6l27 5q6 -17 12 -32q15 5 30 12z" />
<glyph unicode="&#x304e;" d="M205 172l-1 -3l-14 -10h-2q-4 4 -10 11q-12 14 -19 19v2l15 10h3q3 -3 8 -7q8 -7 20 -22zM233 189v-2l-13 -11h-2q-13 17 -30 30v2l15 10h2q16 -13 28 -29zM137 184l11 -19v-3q-12 -8 -34 -15q1 -2 4 -7t4 -7q3 -6 7 -12q20 6 39 15l10 -20q-16 -10 -36 -16q9 -15 21 -30 q3 -3 9 -10t8 -11l1 -2l-25 -16q-28 14 -59 14h-11q-16 0 -28 -6q-17 -14 -5 -29q9 -5 19 -8q11 -2 22 -2h5h14q1 0 4 1q5 1 7 0v-26h-26q-24 0 -46 9q-28 12 -29 36v6q1 21 24 33q17 7 42 7h11q8 0 25 -2q9 -1 13 -1q-11 14 -19 29q-3 0 -7 -1h-5q-33 -7 -60 -7h-8l-11 25 h12q34 0 65 6q-6 13 -13 26q-20 -6 -41 -6h-4l-13 22h6q9 0 18 2q12 1 22 4q-8 18 -20 36l32 6h2q1 -15 9 -36q18 6 34 15z" />
<glyph unicode="&#x304f;" d="M144 205h2l27 -19v-3q-10 -8 -20 -25q-19 -26 -40 -50q-1 -1 -2 -3q-8 -11 -8 -17q0 -9 8 -15q4 -6 13 -17l5 -5q12 -17 26 -34q2 -3 6 -7q11 -15 17 -25v-2l-25 -16h-2q-4 6 -12 20q-7 14 -12 20q-7 12 -23 34q-8 11 -12 16q-1 2 -4 5q-10 14 -10 24v4q1 12 10 24 q2 3 6 8q7 9 10 14q18 21 30 46q7 11 10 23z" />
<glyph unicode="&#x3050;" d="M110 205h2q13 -9 28 -15v-2q-4 -3 -8 -11q-1 -2 -2 -3q-18 -31 -40 -59q-6 -7 -11 -15q0 -1 -2 -3q-3 -6 -3 -9q0 -6 9 -15l1 -1q45 -50 63 -76q1 -1 2 -4q4 -4 3 -7l-24 -16h-2q-18 33 -59 83q-13 15 -18 24q-6 12 3 29q3 4 7 11q5 8 7 11q36 48 44 78zM144 138v3l13 13 h2q2 -1 6 -4q12 -9 18 -15q1 -1 2 -1q2 -1 2 -4t-2 -3q-2 -2 -6 -5l-6 -6h-2l-5 5q-14 12 -22 17zM168 164l12 14q6 -1 15 -9q2 -1 3 -2q6 -6 12 -11v-2l-13 -13q0 -1 -2 0q-13 11 -27 21v2z" />
<glyph unicode="&#x3051;" d="M49 93v-11q0 -31 8 -48h2q4 4 9 14q3 7 5 10h2l8 -6q-12 -33 -12 -56v-6q-4 0 -11 -1t-11 -1q-7 9 -11 19q-13 33 -13 74v14q0 32 8 63q6 20 0 33q12 0 32 -8q0 -4 -3 -12q-2 -4 -2 -6q-11 -42 -11 -72zM159 191l37 -2q0 -3 -2 -9q-2 -4 -2 -6q-1 -7 -1 -13v-8 q0 -9 1 -19q18 5 36 9l3 -24q-18 -6 -38 -9v-17q1 -42 -7 -62q-12 -34 -41 -54h-1q-1 0 -3 1t-3 1q-9 6 -18 10l-1 1q30 20 40 41q11 21 10 63v12q-20 -1 -41 -1h-13h-3l-9 26l1 2q4 0 11 -1q14 -2 22 -2h14q9 0 17 1q-1 37 -9 60z" />
<glyph unicode="&#x3052;" d="M17 194l32 -8q-1 -5 -4 -14q-1 -3 -2 -5q-12 -43 -12 -76v-15q1 -22 10 -42h2q3 5 8 18q3 6 4 9l13 -11q-12 -23 -16 -60l-19 -2q-25 39 -26 92v13q0 20 6 58q4 18 4 37v6zM185 185l14 12q3 -2 8 -7q13 -10 18 -17l-13 -14q-12 14 -27 26zM207 205l13 13q3 -2 8 -6 q14 -11 21 -18l-13 -14q-12 15 -29 25zM141 194h5q4 0 14 -1q10 -2 15 -2q-3 -12 -3 -24v-4q0 -4 1 -14q1 -7 1 -12q8 1 25 6q5 1 8 2h2q2 -13 3 -25q-9 -3 -26 -5q-6 -1 -9 -2v3q-1 3 0 1v-13v-9q0 -28 -6 -53q-8 -26 -25 -45q-7 -11 -16 -18q-12 6 -26 8l-1 1q25 18 37 46 q12 27 11 59v13q0 16 0 5q-5 -1 -11 -1q-16 -1 -33 -1h-15l-6 25l1 1q14 -2 27 -2h13q15 0 21 1q-1 13 -3 30q-3 23 -4 30z" />
<glyph unicode="&#x3053;" d="M125 169h8q16 0 47 7q-1 0 3 1v-29q-21 -2 -41 -2h-23q-21 1 -41 4l-2 1l-6 28l1 1q3 -1 8 -2q30 -9 46 -9zM120 29h21q36 0 74 9v-32q-31 -6 -77 -6h-15q-30 0 -47 8q-16 7 -35 26v3l17 15q1 2 1 0q16 -15 29 -19q10 -4 32 -4z" />
<glyph unicode="&#x3054;" d="M53 151l-6 27q6 -1 18 -4q23 -5 35 -5h4q20 0 53 8v-31q-18 -3 -34 -3h-11q-22 0 -59 8zM13 37l18 15q2 2 3 0q14 -15 27 -19q17 -7 39 -7h12q39 0 77 11v-35q-36 -2 -73 -2h-17q-28 0 -40 4q-20 6 -40 25q-6 4 -6 8zM178 138v3l13 13h2q12 -9 24 -19q3 -2 4 -5 q0 -1 -1 -1q0 -2 -1 -2q-2 -2 -6 -5l-6 -6h-2q-13 13 -27 22zM202 164l12 14q6 -1 15 -9q2 -1 3 -2q6 -6 12 -11v-2l-13 -13q-2 -1 -2 0q-13 11 -27 21v2z" />
<glyph unicode="&#x3055;" d="M187 162l2 -1l6 -20v-4q-16 -6 -34 -10q25 -44 49 -66v-2l-23 -18h-3q-15 12 -35 17q-16 5 -33 5h-4q-14 0 -27 -5q-14 -9 -15 -21q0 -6 4 -10q7 -8 18 -12q13 -6 36 -6h12h17h1l-3 -26h-17q-33 0 -60 13q-31 12 -32 41v4q1 23 20 35q15 8 36 8h13q32 0 52 -11l1 3 q-17 21 -32 45q-38 -8 -77 -10l-10 23l1 2q7 -1 14 -1h4q29 0 57 7q-1 1 -2 3t-2 3q-10 21 -22 41v2q16 2 31 5q2 -20 17 -49q22 6 40 15z" />
<glyph unicode="&#x3056;" d="M165 178v2l13 13h2q6 -4 16 -12q6 -5 9 -7q0 -1 2 -3q1 -1 1 -2q0 -2 -1 -3t-3 -2q-4 -4 -9 -8q-2 -1 -2 0q-13 10 -28 22zM189 202l12 15q6 -1 15 -9q2 -1 3 -2l5 -5q5 -4 7 -6t0 -2l-12 -13q-2 -1 -2 0q-4 4 -14 11q-9 7 -14 10v1zM168 162h2l8 -25q-19 -6 -41 -12 l6 -9q1 -2 2 -3q23 -37 40 -52l-22 -22q-29 24 -68 24h-4q-15 0 -31 -5q-14 -5 -14 -18q-1 -21 35 -30q16 -3 35 -3h17l-4 -24h-11q-33 0 -58 11q-34 14 -35 44v3q1 23 20 35q16 8 42 8h8q20 0 48 -7q-15 21 -29 43h-3q-15 -3 -31 -4q-18 -2 -36 -2h-6q-2 0 -2 1l-11 22h20 q25 0 57 5q0 2 -1 4q-1 3 -2 4q-2 4 -7 13q-8 17 -14 26v1l34 3q1 -6 1 -13q2 -11 12 -33q23 5 43 15z" />
<glyph unicode="&#x3057;" d="M55 199h2l32 -6q-1 -6 -3 -13v-138q0 -19 6 -27q9 -10 21 -10h6q9 0 17 4q12 4 23 11q16 10 28 25h2l12 -23q2 -2 0 -2q-20 -21 -42 -30q-20 -11 -44 -11h-3q-18 0 -33 10q-17 10 -20 29q-1 14 -1 29v131q0 4 -2 12q-1 6 -1 9z" />
<glyph unicode="&#x3058;" d="M47 199l34 -4l1 -4q-2 -3 -4 -11v-2v-2v-128q0 -17 7 -31q8 -12 26 -12h4q34 0 68 40h2l13 -21v-2q-16 -19 -38 -30q-24 -13 -49 -13h-7q-29 2 -44 25q-9 18 -9 47v123q0 13 -4 25zM143 153v2l13 13h2q1 -1 4 -3q14 -10 20 -17q4 -1 4 -4q0 -1 -1 -2l-1 -1q-6 -6 -12 -10 q-1 -1 -2 0q-4 3 -11 9q-10 9 -16 13zM167 178l12 13q6 0 15 -8l3 -3q6 -4 12 -11v-1l-13 -13q0 -1 -2 0q-13 11 -27 21v2z" />
<glyph unicode="&#x3059;" d="M129 79v13q-1 10 -8 11q-6 0 -10 -4q-9 -8 -9 -20v-6q1 -20 13 -21q7 0 12 11q3 7 2 16zM123 213l35 -6q-5 -14 -5 -31v-9h37h45v-29q-37 6 -75 5h-7v-31l1 -1q9 -12 9 -34v-17q0 -16 -10 -42q-9 -18 -22 -33q-9 -9 -19 -18h-2q-14 9 -29 14v2q38 17 53 51q-21 -10 -39 0 q-19 13 -20 40v5q5 41 42 46h5h7v18h-11q-42 0 -85 -10l-2 1l-10 29l1 2q3 0 11 -1t12 -1h12q4 0 17 1q31 1 55 2q-2 23 -5 40q-1 5 -1 7z" />
<glyph unicode="&#x305a;" d="M242 196l-13 -11q-3 2 -8 7q-10 10 -16 14l11 11q2 -2 7 -5q13 -10 19 -16zM225 179l-13 -11q-17 17 -27 23l13 11q10 -6 27 -23zM125 77v14q-1 12 -10 12q-6 0 -12 -8q-10 -11 -7 -28q4 -15 15 -15q13 0 14 25zM153 207l1 -2q-7 -13 -7 -36q0 1 0 -5q7 0 21 1h20h43v-28 q-35 6 -71 6h-14q0 13 0 -10v-23q2 -2 4 -5q9 -12 9 -32v-6q-1 -46 -29 -79q-8 -11 -22 -21q-1 -2 -2 0q-4 1 -11 5q-13 5 -21 7q17 7 30 20q19 15 21 32q-6 -2 -12 -2h-4q-34 4 -38 43v4q5 42 42 46h4q5 0 6 -1q2 11 2 22q-26 -1 -52 -5q-24 -2 -47 -8l-12 29l1 3q3 0 8 -1 q10 -2 15 -2h5q14 0 42 2q14 1 21 1q10 0 19 1q-2 28 -8 47q18 -1 36 -3z" />
<glyph unicode="&#x305b;" d="M10 118l2 2q8 -1 15 -1h6q10 0 19 1q14 2 22 2v21q1 17 -5 32l34 -2q1 -2 -1 -6l-1 -1q-2 -10 -2 -21v-20q11 0 13 1q8 1 25 2q17 2 25 2v7q1 10 1 14v17q0 11 -4 23h3q13 -2 28 -2l1 -1q0 -7 -1 -27q-2 -28 -2 -29q13 0 18 1q18 0 36 2l4 -30q-13 4 -27 4h-14 q-6 0 -19 -1v-8q-2 -25 -7 -37q-6 -18 -21 -18h-3q-7 0 -13 2v24h5q8 0 10 13q3 9 4 19v3q-23 -1 -41 -2q-7 -1 -21 -2q0 -43 2 -62q1 -21 18 -22h42q23 0 47 5v-27q-6 0 -17 -1q-22 -2 -34 -2h-13q-29 -1 -42 5q-21 5 -25 31q-3 10 -3 33v38q-13 -1 -47 -8q-3 -2 -9 -2z " />
<glyph unicode="&#x305c;" d="M187 164v2l13 13h2q13 -8 25 -20l1 -1q2 -1 2 -3q0 -1 -1 -2v-1q-2 -2 -7 -6q-4 -3 -5 -4q-2 -1 -2 0q-3 2 -10 8q-3 3 -18 14zM211 189l12 13q8 -1 18 -11q8 -4 12 -11q2 0 0 -1l-13 -13q0 -1 -1 0q-15 11 -28 21v2zM142 189l31 -3v-2l-3 -9v-24q-1 -16 -1 -25q4 0 11 1 q14 1 21 2q8 0 25 2q-12 -2 3 0v-26h-34h-12h-15q0 -4 -1 -11q0 -8 -1 -12q0 -4 -1 -11v-9q-3 -13 -13 -21q-9 -5 -28 0l-1 25h8q5 0 10 8q1 3 1 8q1 5 1 8q0 7 1 13h-9h-3q-23 -1 -50 -4v-37q0 -3 1 -9v-7t1 -5q1 -8 2 -11q5 -16 23 -17h24q32 1 62 7l-4 -30h-89 q-7 0 -21 6q-7 3 -12 10q-10 14 -10 39v52l-24 -3t-25 -3q-3 -1 -7 -1v26h24q15 0 32 2q0 28 -5 55l30 -4q0 -3 -1 -11q-1 -7 -1 -11v-27q14 0 28 2q10 0 31 2q-15 -2 3 0v42q0 3 -1 11t-1 12z" />
<glyph unicode="&#x305d;" d="M113 145l-1 -2l-23 -11l-2 1q-1 2 -2 5q-13 27 -22 40q2 1 7 4q11 6 17 7q15 -21 26 -44zM172 199l31 -15v-2q-6 -3 -14 -14q-1 -1 -1 -2q-1 -2 -3 -5q-13 -19 -21 -29q-2 -4 -8 -9q-3 -4 -5 -6l21 3q14 1 21 2q3 0 10 1q13 2 20 2h5v-27h-9q-17 0 -45 -12 q-18 -9 -30 -24q-14 -18 -9 -31q8 -18 30 -24q16 -4 34 -5q-1 -3 -3 -10q-3 -12 -5 -17h-4q-8 0 -23 4q-4 1 -6 1l-6 3q-6 3 -19 10q-23 14 -25 42v5q0 19 18 37q10 11 22 18q-45 -7 -83 -24q-1 -1 -4 -2q-10 -6 -16 -6q-3 0 -8 8q-1 1 -1 2q-1 1 -2 4q-5 12 -6 18 q12 -4 36 2q3 1 4 1q5 1 16 4l21 6h2q2 1 3 1q8 6 21 21q29 36 38 69h3z" />
<glyph unicode="&#x305e;" d="M89 146l-24 -11q-11 24 -25 48l21 8q8 -10 21 -32q5 -9 7 -13zM227 168l-13 -11q-12 14 -27 26l13 11q15 -12 27 -26zM252 190l-12 -11l-26 26l13 11q13 -12 25 -26zM179 186v-2q-9 -7 -21 -26q-5 -8 -8 -11l-9 -12q-8 -9 -11 -13l-3 -3l-1 -1l18 3q12 1 18 2h2 q25 4 40 4l2 -26h-9q-12 0 -40 -9q-1 -1 -2 -1q-22 -9 -32 -22q-13 -15 -13 -28q0 -14 10 -22q15 -14 45 -14h9l-9 -28q-27 3 -53 16q-28 15 -29 42v5q-1 16 17 36q9 13 23 22q-4 -1 -11 -2q-64 -14 -93 -33l-15 32h8q13 0 37 6q13 2 33 8q5 1 8 2q2 2 5 7q8 10 11 14 q29 34 38 67q7 -1 20 -7q10 -5 15 -6z" />
<glyph unicode="&#x305f;" d="M175 116h9q16 0 34 -1l1 -27l-1 -1q-28 6 -43 6h-10q-11 0 -22 -3l4 25h13q10 1 15 1zM233 18l-3 -28q-16 -2 -33 -2h-10q-21 0 -44 5q-1 0 -4 1q-7 0 -9 3l-1 23q3 -1 9 -2q28 -5 44 -5h5q23 0 46 5zM98 202h2l30 -8v-3q-7 -4 -10 -16q-3 -6 -6 -17q-1 -4 -2 -6l33 6 q5 1 7 2l2 -1v-26q-24 -4 -48 -6q0 -1 -1 -5q1 2 -1 -2q-23 -85 -53 -137l-27 8l-1 2q35 64 58 133q-7 -1 -20 -1q-13 -1 -20 -1l-2 1l-4 24l1 2q4 0 13 -1q8 -1 12 -1h8q9 0 19 1q1 2 2 6q8 27 8 40v6z" />
<glyph unicode="&#x3060;" d="M169 114h9q7 0 20 -2q7 -1 10 -1l-1 -27q-24 6 -38 6h-8q-7 0 -21 -2q-5 -1 -8 -1l2 24q4 0 12 1q16 2 23 2zM168 9h10q27 0 41 6l-2 -27q-18 -3 -35 -3h-7q-25 0 -60 11l4 22q2 -1 7 -2q28 -7 42 -7zM182 156v2l13 12q0 2 2 0q12 -7 23 -18l5 -5l-2 -2l-1 -1 q-4 -6 -12 -10q0 -1 -2 0q-13 10 -26 22zM206 180l12 15q5 -1 13 -7q3 -3 5 -4q7 -7 12 -11v-3l-14 -12q0 -1 -2 0q-4 4 -13 11q-8 7 -13 10v1zM83 199h4l32 -8v-2q-7 -6 -8 -14l-3 -9q-4 -11 -6 -18q20 5 39 9l2 -1l-3 -26q-22 -4 -45 -6q-11 -39 -26 -77q-12 -35 -30 -67 l-1 -1l-30 11q23 30 43 84q5 11 12 32q4 11 6 16h-21h-15q-3 0 -4 1l-4 25q5 0 15 -1t15 -1h11h10q7 23 7 47v6z" />
<glyph unicode="&#x3061;" d="M114 199l1 -1q-6 -9 -7 -19q-2 -6 -4 -16q-1 -6 -2 -9q36 3 68 15v-27q-35 -10 -71 -13q-1 -15 -4 -28q0 -3 -1 -9t-1 -8v-4q0 -2 1 -2q2 1 5 2q44 24 69 23h7q22 0 40 -16q14 -16 14 -37v-4q-1 -24 -21 -45q-19 -15 -51 -22q-14 -2 -28 -2h-6q-6 9 -11 18l-1 1 q-5 4 -5 6h14q22 0 35 3q15 2 25 9q30 20 19 48q-8 16 -33 17h-3q-44 -1 -75 -45q-5 0 -15 2q-3 1 -5 1q-1 2 -1 3v4q4 57 9 83h-6h-7q-10 0 -31 4q15 -3 -3 0l-2 26q18 -3 39 -3h13q4 17 4 36v4q0 4 -1 7q17 0 32 -2z" />
<glyph unicode="&#x3062;" d="M246 180l-13 -12q-12 15 -28 28l13 12l5 -5q16 -13 23 -23zM223 163l-13 -13l-9 9q-4 5 -19 19l13 12l11 -11q12 -10 17 -16zM157 169h2v-28q-15 -6 -48 -10q-12 -1 -24 -3q-6 -52 -5 -55q13 13 28 20q20 10 42 10h6q28 0 44 -13q18 -16 19 -38v-5q0 -16 -13 -33 q-8 -12 -30 -24q-24 -12 -65 -14l-15 24h6q10 0 19 2q18 2 30 7q37 15 38 39v4q0 1 -1 3q-4 14 -11 18q-8 6 -19 6h-7q-51 -3 -77 -48l-21 6q5 45 9 89q-17 -1 -46 -1l-8 29q7 0 19 -2q12 -1 18 -1h20v5q2 13 2 27v5q0 7 -3 13q9 0 25 -2q8 -1 12 -1q-2 -6 -5 -10 q-7 -14 -8 -36q14 2 26 5q21 3 41 12z" />
<glyph unicode="&#x3063;" d="M159 157h5q25 0 42 -15q17 -17 18 -42v-5q0 -16 -9 -30q-8 -13 -27 -26q-29 -19 -60 -21l-16 19q38 5 60 19q30 18 30 43v4q-4 29 -41 34h-4q-16 0 -31 -5q-12 -4 -24 -9q-4 -2 -11 -5q-20 -10 -29 -16q-1 0 -2 -2q-4 -3 -7 -2l-21 24q28 7 55 16q1 0 4 1q43 19 68 18z " />
<glyph unicode="&#x3064;" d="M158 165h5q35 0 59 -19q25 -23 26 -53v-5q0 -23 -15 -43q-12 -16 -29 -26q-20 -13 -41 -19q-22 -7 -35 -7l-24 24v1q30 2 57 12q34 12 46 26q13 13 14 32v5q-1 18 -18 34q-14 13 -35 14h-5q-18 0 -50 -10q-23 -7 -54 -21q-1 -1 -4 -2q-14 -6 -18 -13h-3l-26 28v2 q20 3 58 17q28 10 42 14q2 0 5 1q30 8 45 8z" />
<glyph unicode="&#x3065;" d="M148 162h6q34 0 58 -18q25 -20 26 -51v-7q0 -22 -11 -39q-8 -13 -29 -28q-24 -19 -81 -27l-2 1q-9 11 -19 24q25 2 49 9q35 9 54 30q14 15 15 33v4q-1 23 -21 34q-14 10 -39 10h-4q-19 0 -39 -5q-5 -1 -15 -4q-10 -2 -15 -4q-33 -10 -54 -26l-24 29q17 2 50 14q5 2 8 3 q5 2 16 4q9 3 13 4q38 10 58 10zM187 183l11 14q20 -12 30 -21l-12 -14q-1 1 -3 2q-17 13 -26 19zM212 204l11 14q15 -9 30 -21l-12 -14q-4 3 -11 8q-12 9 -18 13z" />
<glyph unicode="&#x3066;" d="M24 151h3l87 18q57 12 86 17q15 3 30 5l2 -29h-6q-46 0 -69 -25q-26 -28 -26 -67v-4q0 -25 14 -39q14 -15 44 -14h17v-30h-15q-40 1 -63 22q-21 21 -21 58v10q0 39 32 78q-13 -3 -40 -10q-13 -3 -20 -5l-9 -3q-20 -5 -30 -11z" />
<glyph unicode="&#x3067;" d="M4 151h6q10 0 30 5l12 3q19 5 37 9q33 8 65 14q27 4 40 9q0 -4 3 -11q3 -10 2 -15q-5 -1 -14 -3q-24 -3 -34 -11q-22 -17 -29 -43q-6 -22 -6 -35v-6q0 -24 15 -39q15 -14 39 -15h5q8 0 16 2v-30h-8q-39 1 -63 17q-29 23 -30 63v5q0 39 31 82q-40 -10 -80 -22q-2 -1 -7 -2 q-10 -3 -14 -8l-16 28v3zM188 137l14 13q3 -3 8 -9q11 -11 16 -18l-14 -12q-14 18 -24 26zM215 157l14 12q13 -12 23 -26l-15 -12q-10 14 -22 26z" />
<glyph unicode="&#x3068;" d="M185 159l22 -25v-2q-62 -18 -97 -41q-18 -12 -31 -30q-6 -10 -6 -17v-4q1 -18 19 -27q12 -6 34 -6h7q30 0 58 8l2 -30q-26 -2 -50 -2h-15q-35 -1 -53 11q-25 14 -26 45v5q1 34 41 62q2 3 5 4q-8 35 -32 84l27 5q15 -30 30 -75l36 18q15 6 29 17z" />
<glyph unicode="&#x3069;" d="M167 175l16 9q2 -3 6 -8q13 -15 18 -23l-16 -10q-10 16 -24 32zM194 193l14 8q15 -13 24 -31l-14 -9q-4 6 -12 16q-8 11 -12 16zM163 154l19 -21v-2q-21 -6 -40 -13q-33 -13 -62 -31q-17 -11 -25 -24q-6 -9 -7 -21v-3q1 -17 21 -26q14 -6 32 -6h4q16 0 48 5q8 1 12 2 l2 -29q-19 -2 -42 -2h-21q-20 0 -41 7q-24 9 -34 24q-5 10 -5 24v4q0 24 22 48q11 12 26 22q-10 43 -33 82l27 4q18 -36 29 -73q2 0 3 1q15 8 31 12q3 2 10 5q11 4 16 7q1 0 2 1q3 3 6 3z" />
<glyph unicode="&#x306a;" d="M220 103h-2q-20 23 -44 40l14 19h2q18 -13 35 -28q8 -6 9 -11zM145 168v-26q-21 -7 -44 -11q-14 -51 -52 -111h-3l-23 9l-1 2q32 41 52 98q-16 -2 -33 -2l-3 27h8q14 0 22 1q3 0 8 1h6q7 23 7 43v6q5 -2 15 -4q9 -2 14 -4q0 -5 -3 -13q-2 -6 -2 -9t-1 -8t-2 -8q18 3 35 9 zM147 125h2l23 -5q0 -6 -1 -12q0 -13 2 -41q1 -17 1 -26q28 -8 53 -23v-3l-10 -22q-4 0 -10 5q-2 2 -3 2q-13 7 -30 13q0 -10 -3 -17q-1 -3 -5 -7q-1 -2 -2 -3q-10 -11 -33 -11h-6q-22 0 -34 13q-11 12 -7 29q3 11 14 19q17 9 36 9h7q5 0 9 -1q-1 41 -3 81zM132 23h-4 q-15 -1 -20 -10q-4 -14 13 -17h9q19 1 20 24q-9 3 -18 3z" />
<glyph unicode="&#x306b;" d="M38 191l35 -11q-1 -5 -5 -13q-2 -5 -3 -8q-16 -38 -16 -79v-8q0 -28 10 -46h1q2 4 5 11q4 7 5 10l11 -2q-1 -5 -3 -14q-5 -22 -5 -32v-6l-24 -5q-11 12 -18 39q-5 20 -5 51v11q0 32 8 64q4 17 4 33v5zM165 169h11q20 0 39 -2v-26q-7 0 -19 1t-18 1h-11q-9 0 -28 -3 q-17 -3 -26 -3l-2 27q8 0 23 2q21 3 31 3zM164 31h9q27 0 56 8l1 -27q-20 -7 -46 -7h-11q-47 0 -71 22q-7 7 -8 12l18 11q18 -19 52 -19z" />
<glyph unicode="&#x306c;" d="M142 159h6q40 -1 62 -22q22 -23 23 -56v-4q0 -27 -12 -52l6 -3q14 -7 20 -13l-13 -20q-12 9 -26 16q-19 -21 -55 -22h-6q-34 3 -36 29q3 29 44 33h4q18 0 39 -9q9 16 9 34v6q0 26 -18 44q-15 14 -41 15h-4q-4 0 -6 -1q-4 -24 -14 -50q-5 -15 -13 -28q2 -3 8 -7q2 -1 3 -2 l-18 -18h-2q-1 1 -5 4q2 -1 -2 1q-6 -7 -13 -15q-22 -23 -43 -23h-3q-25 1 -27 34v5q0 19 13 43q8 14 17 27l-3 6q-9 17 -12 26q-2 3 -3 9q-1 1 -1 2l25 11q3 -18 11 -36q29 26 62 34q1 4 1 12v8q0 4 -2 13q-1 6 -1 9q17 -2 32 -5q1 -3 -2 -6q-1 -1 -1 -2q-2 -9 -2 -19v-3 q-1 -3 -1 -5zM114 130q-13 -4 -24 -12q-6 -4 -16 -13q-3 -3 -5 -4q14 -19 24 -28q17 28 21 57zM34 36v-5q1 -11 10 -11q6 0 18 11q2 1 3 2q8 8 15 17q-15 15 -26 32q-3 -3 -6 -8q-14 -22 -14 -38zM154 26h-7q-5 0 -10 -3q-3 -4 -4 -9q1 -11 17 -12h5q14 0 31 15q-1 0 -2 1 q-1 0 -2 1q-13 7 -28 7z" />
<glyph unicode="&#x306d;" d="M59 201h3l32 -5q0 -3 -3 -11q-1 -3 -2 -5q-6 -15 -7 -31l2 2q4 2 8 6h2l9 -6q7 -6 10 -8q-14 -14 -30 -39q18 18 40 33q30 22 53 22h4q21 0 37 -28q9 -23 9 -41v-6q0 -19 -7 -42q17 -7 31 -22l-14 -20h-2q-9 7 -19 16l-4 2q-1 1 -2 1q-19 -28 -51 -29h-4q-25 2 -38 19 q-8 23 14 40q12 9 32 9h3q15 0 28 -5q3 15 3 31v16q0 19 -11 29q-13 10 -30 3q-18 -7 -48 -33l-4 -4q-12 -11 -24 -23v-7q0 -23 4 -63q2 -8 3 -17l-29 -2v31q1 22 1 33q-1 -2 -4 -5q-2 -4 -4 -6q-1 -3 -4 -8q-11 -16 -12 -26h-4l-24 16v2q6 5 15 16q3 3 4 5q18 27 33 54v11 q1 8 1 12q-3 -1 -10 -4q-23 -9 -32 -16l-11 27v2q37 6 54 12q0 3 1 7v7q1 7 1 16v5q0 6 -2 18q-1 6 -1 9zM184 30q-14 4 -29 4q-22 -3 -17 -16q6 -9 16 -9q7 0 14 5q9 5 15 13q0 1 1 2v1z" />
<glyph unicode="&#x306e;" d="M247 94v-7q0 -34 -27 -63q-20 -24 -50 -36q0 -2 -2 0q-10 9 -23 15v2q72 34 73 87v5q0 24 -22 46q-18 15 -42 18q-9 -39 -22 -73q-17 -42 -31 -65q-13 -24 -32 -24q-30 1 -50 34q-10 18 -10 34v5q0 13 8 33q9 20 18 30q21 29 54 41q28 10 46 10h11q45 0 73 -27 q27 -28 28 -65zM36 77v-5q0 -16 10 -31q8 -12 19 -12q9 1 17 12q4 6 10 18q2 5 3 7q27 53 34 95q-21 -3 -38 -10q-24 -14 -41 -37q-14 -23 -14 -37z" />
<glyph unicode="&#x306f;" d="M41 199h3l27 -10q-1 -6 -6 -16l-3 -6q-8 -21 -13 -43q-6 -28 -6 -42v-9q0 -21 7 -47h2q2 4 6 11q3 7 5 10h2l8 -8v-2q-6 -26 -10 -49l-22 -5q-21 35 -21 88v15q0 19 8 51q1 5 4 15q9 28 9 43v4zM148 194l35 -5q-2 -23 -2 -50q0 -17 0 1q21 2 42 6v-24q-20 -4 -41 -6 q1 -75 1 -72q5 -2 23 -9q2 -2 3 -2q14 -7 27 -18l-16 -19h-3q-8 6 -17 12q-4 2 -11 6q-5 3 -7 4q-4 -14 -11 -20q-14 -15 -37 -15h-5q-16 0 -30 8q-14 9 -15 26v4q1 14 15 24q12 8 30 8h5q13 0 25 -2q0 6 -1 19q-2 25 -2 38v6h-9h-12q-21 1 -43 4l-3 25q5 0 14 -2 q26 -3 40 -3h8h4q-1 26 -2 36v2q0 12 -5 18zM132 31h-5q-15 0 -19 -5q-7 -9 6 -18q19 -8 37 4q6 5 7 14q-12 5 -26 5z" />
<glyph unicode="&#x3070;" d="M27 197h3l29 -11q0 -6 -7 -17q-1 -3 -2 -4q-20 -49 -20 -84v-8q0 -29 10 -53q1 3 4 8q2 5 7 17l12 -7q-8 -32 -8 -46v-7l-22 -6h-3q-21 43 -22 93v9q0 18 9 54q1 6 2 9q8 22 8 46v7zM227 169l-13 -11q-6 6 -20 16q-5 4 -8 6l12 14q3 -2 8 -6q15 -11 21 -19zM248 188 l-14 -12q-5 5 -16 14q-7 6 -11 9l12 13q3 -2 9 -7q14 -10 20 -17zM140 191l32 -2q-4 -16 -5 -32q0 -4 -1 -17q1 0 3 1h3q20 2 39 7v-25q-21 -4 -44 -7q0 -3 1 -9v-7q1 -8 2 -24q2 -18 3 -26v-5q18 -6 49 -24l6 -3l-17 -22q-5 3 -14 8q-15 10 -24 14q-3 -14 -11 -21 q-14 -13 -40 -14h-4q-31 1 -39 20q-9 22 10 39q11 10 34 10h4q12 0 23 -1q-2 11 -6 63h-13h-12q-21 0 -40 4v25q24 -6 39 -6h12h14v28q0 2 -1 7q-1 13 -3 19zM123 31h-4q-13 0 -19 -7q-7 -10 4 -19q20 -7 39 7q6 5 7 14q-12 5 -27 5z" />
<glyph unicode="&#x3071;" d="M25 197h3q12 -5 29 -11v-3q-5 -6 -8 -14q-1 -3 -3 -10q-9 -24 -11 -35q-6 -23 -6 -46v-11q0 -9 2 -17q3 -15 8 -27q1 3 4 9q4 8 6 13l14 -5q-1 -2 -2 -6q-9 -30 -9 -45v-4l-19 -6h-2q-9 13 -14 26q-10 29 -10 61v17q0 16 7 48q1 6 2 9q0 2 1 5q8 30 8 46v6zM219 157 q-30 1 -31 29q2 27 31 29q28 -2 30 -29q-1 -28 -30 -29zM219 173q13 1 14 12q-1 13 -14 14q-14 -1 -15 -13q0 -13 15 -13zM122 136h12h9q-2 37 -6 55l34 -2v-2q-4 -4 -3 -13q0 -5 -1 -8v-28l2 1t3 1q18 3 35 8v-24q-12 -4 -40 -8q1 -7 1 -22q1 -15 1 -22q0 -4 1 -12v-11v-4 q25 -9 53 -25l-14 -24q-18 11 -40 21q-2 -12 -9 -19q-12 -15 -37 -15h-6q-41 4 -44 35q3 30 45 34h6q11 0 21 -1v4q-2 35 -2 49v10h-13h-10q-14 0 -41 4q19 -3 -3 0v25q22 -6 46 -7zM120 31h-5q-19 -1 -20 -14q1 -11 20 -12h4q10 0 18 5q7 7 7 17q-12 4 -24 4z" />
<glyph unicode="&#x3072;" d="M18 169h7q36 1 72 22h2l22 -16v-2q-3 -3 -10 -7q-4 -3 -16 -13q-12 -13 -26 -41q-15 -32 -15 -52v-5q0 -17 11 -29q14 -16 32 -17h4q26 1 42 19t20 50q2 17 2 35v13q0 10 -2 30q-2 15 -2 22l24 5q0 -6 2 -10q2 -9 6 -17q3 -3 6 -12l3 -6q14 -18 29 -34q1 -1 3 -2 q5 -4 4 -7l-21 -16h-3q-15 19 -27 40v-28q-1 -48 -22 -77q-23 -29 -63 -31h-3q-28 1 -50 17q-19 19 -20 48v8q-1 44 40 101q-5 -3 -16 -6q-11 -4 -16 -6l-1 -1q-3 -4 -7 -3l-11 26v2z" />
<glyph unicode="&#x3073;" d="M80 191h1l22 -15v-2q-23 -14 -38 -38q-15 -22 -26 -48q-5 -15 -5 -29v-4q4 -44 46 -48h4q19 0 31 10q15 12 21 25q15 32 15 68v9q0 15 -7 46q-2 9 -3 13q11 2 24 2q17 -49 54 -85l-21 -16q-15 15 -25 35q-1 -6 -2 -17q-2 -47 -14 -69q-23 -43 -73 -45h-5q-29 1 -51 19 q-18 19 -19 49v6q0 32 33 86q5 7 7 11q-5 -2 -16 -5q-14 -3 -20 -8l-11 26q5 1 17 3q36 6 52 16q1 0 4 2q3 3 5 3zM189 180l15 11q15 -15 26 -32l-15 -13q-11 18 -26 34zM212 199l14 13l4 -4q18 -15 24 -25l-13 -14q-13 17 -29 30z" />
<glyph unicode="&#x3074;" d="M84 191l20 -15v-2q-17 -10 -37 -41q-2 -4 -6 -10q-12 -22 -16 -35q-6 -18 -6 -28v-5q5 -43 46 -48h5q26 1 43 21q13 14 18 46q3 17 3 32v8q0 25 -6 47q-3 8 -5 17q14 2 27 5q7 -43 53 -88l-21 -16q-7 7 -18 24q-6 9 -9 13v-16q0 -23 -5 -44q-5 -24 -16 -39 q-26 -33 -66 -34h-4q-27 0 -48 17q-24 22 -24 48v4q0 10 5 29q0 -1 1 3q1 5 6 16q2 5 3 8q12 24 27 48q-4 -2 -12 -4q-14 -3 -20 -7l-2 -2q-3 -3 -5 -2l-11 28h6q15 0 41 8q16 5 31 14h2zM225 146h-4q-25 2 -27 29q2 28 27 30h4q25 -2 27 -31q-1 -27 -27 -28zM236 175 q-1 13 -13 14q-12 -1 -13 -14q1 -12 13 -13q12 1 13 13z" />
<glyph unicode="&#x3075;" d="M91 173l18 18q23 -10 47 -30l-18 -20q-21 18 -47 32zM95 125h25v-3q3 -15 7 -27l3 -6q7 -15 12 -22q1 -1 2 -4q18 -30 12 -46q-7 -23 -31 -24q-11 0 -23 3l-1 1l-3 22l1 1q18 -6 25 4q6 6 0 22q-2 4 -2 5q-8 12 -13 26q-14 26 -14 44v4zM3 58l24 8q3 -10 8 -21q2 -8 9 -8 q2 0 5 2t5 2l6 6l11 11q5 -13 9 -27q-3 -3 -10 -9q-13 -14 -22 -16q-21 -6 -34 21q-8 15 -11 31zM182 73l19 13q28 -22 52 -57l-22 -16h-2q-14 21 -47 60z" />
<glyph unicode="&#x3076;" d="M92 173l17 18q3 -1 8 -4q29 -15 39 -28l-15 -18q-22 18 -49 32zM70 55l11 -21q2 -2 0 -3q-9 -11 -21 -19q-9 -7 -20 -7h-3q-15 0 -23 20q-6 9 -11 31q-1 1 -1 2l24 8q2 -9 7 -18q3 -11 12 -11q8 0 19 12zM254 23l-22 -14h-2q-20 34 -48 63l16 11h3l6 -6q7 -4 16 -14 q12 -13 24 -27q1 -1 2 -3q6 -6 5 -10zM184 158l14 11q15 -12 27 -31l-17 -11h-1q-3 4 -9 13q-9 12 -14 18zM254 157l-15 -11q-5 7 -16 20q-6 7 -9 11l15 9q14 -14 25 -29zM94 125h25v-3q3 -15 7 -27l3 -6q7 -15 12 -22q1 -3 4 -8q15 -27 10 -42q-7 -23 -31 -24q-11 0 -23 3 v1l-4 22l1 1q16 -6 25 4q6 6 0 22q-2 4 -2 5q-7 12 -13 26q-14 26 -14 44v4z" />
<glyph unicode="&#x3077;" d="M155 159l-17 -18q-19 18 -45 29l13 21q20 -10 49 -32zM120 124v-4v-2q2 -17 12 -34q3 -8 11 -23q7 -12 10 -19q4 -8 4 -16v-4q-3 -29 -31 -32h-3q-6 0 -11 2q-5 -1 -11 2l-2 24l13 -3q13 -1 15 12v4q0 10 -12 30q-1 1 -1 2q-21 37 -19 62q13 -1 25 -1zM69 55l13 -21 q-9 -12 -21 -24q-4 -5 -12 -7q-9 -3 -20 2q-7 5 -13 13q-12 16 -13 37l23 11q1 -9 4 -18q6 -14 15 -14q3 0 9 4l1 1q8 7 14 16zM179 73l21 11q34 -28 53 -61l-22 -14q-16 26 -52 64zM220 119q-29 2 -31 31q2 27 31 30q29 -2 31 -31q-1 -29 -31 -30zM220 135q14 0 14 14 q0 15 -14 15q-13 -1 -14 -14q1 -14 14 -15z" />
<glyph unicode="&#x3078;" d="M244 62l2 -2l-17 -26h-2q-39 21 -96 69q-3 3 -10 8q-6 6 -10 8l-1 1q-11 7 -18 4q-4 -3 -12 -11q-12 -12 -21 -22q-12 -12 -19 -26h-2l-28 25v3q10 1 24 13l3 3q4 3 11 9t11 9q21 25 39 24q13 1 35 -18q6 -4 18 -13q20 -15 31 -22q21 -15 62 -36z" />
<glyph unicode="&#x3079;" d="M244 50l2 -2l-17 -26h-2q-39 21 -96 69q-3 2 -8 6q-8 7 -12 9q-11 9 -19 6q-4 -3 -12 -11q-12 -11 -21 -22q-12 -12 -19 -27h-2l-28 26v3q10 1 24 13l3 3q6 4 15 13q5 4 7 6q21 23 39 22q14 0 35 -17q6 -4 18 -13q20 -15 31 -22q30 -19 62 -36zM173 148v3l13 13h1 q14 -9 24 -19l2 -2q1 0 3 -3q0 -1 -1 -1q0 -2 -1 -2q-1 -1 -4 -3q-5 -5 -9 -7q0 -1 -2 0q-4 3 -10 9q-11 8 -16 12zM197 174l11 14q6 -1 14 -7q3 -3 5 -4q5 -6 12 -11v-2l-13 -13q-1 -1 -3 0q-12 11 -26 21v2z" />
<glyph unicode="&#x307a;" d="M201 127q-29 2 -31 31q2 29 31 31q29 -2 31 -31q0 -30 -31 -31zM201 143q16 0 16 14q0 16 -16 16q-13 -1 -14 -15q1 -14 14 -15zM244 49l2 -2l-17 -27h-2q-39 22 -96 70q-3 2 -8 6q-8 7 -12 9q-11 9 -19 6q-4 -3 -12 -11q-12 -11 -21 -22q-12 -11 -19 -26h-2l-28 25v3 q10 1 22 11q3 3 5 4q4 4 11 10q7 7 11 10q21 23 39 22q11 0 31 -14q3 -2 4 -3l21 -15q18 -15 28 -21q30 -18 62 -35z" />
<glyph unicode="&#x307b;" d="M42 74v-11q0 -5 2 -18q-2 9 0 -3q2 -9 6 -19h2l8 29q7 0 14 -3q-1 -6 -3 -17q-5 -25 -5 -37v-10l-22 -6h-2q-22 30 -22 83v18q0 33 8 66q1 3 2 10q6 23 6 35v6q17 -5 32 -8q-15 -35 -21 -73q0 -3 -1 -8q-4 -22 -4 -34zM204 191l3 -23q-13 -4 -25 -5q-2 -8 -2 -16v-20 q9 1 27 4q8 1 11 2l3 -22l-1 -2q-19 -4 -39 -5q0 -5 1 -15q2 -17 4 -44q27 -9 50 -27l-11 -22h-2q-22 15 -37 22q0 -18 -17 -28q-13 -5 -27 -5h-4q-43 4 -46 35q2 29 45 32h4q14 0 20 -1q0 1 -1 4q-1 9 -1 15q0 3 -1 11q-1 12 -2 21q-21 -1 -44 -1h-12q-1 0 -3 1l-5 23l1 2 q3 0 10 -1q16 -2 25 -2h10h17v35h-37h-13l-7 24v3q17 -3 34 -3h12q30 0 60 8zM145 31h-4q-4 0 -12 -2q5 2 -2 0q-11 -4 -11 -10q1 -12 18 -14h6q11 0 18 10q4 5 4 16q-4 -1 -11 0h-6z" />
<glyph unicode="&#x307c;" d="M20 201h3l15 -3q9 -3 14 -4v-3q-4 -3 -8 -13q-1 -4 -2 -6q-2 -7 -5 -23q-4 -15 -6 -23q-5 -27 -5 -53v-15q0 -16 4 -27q8 11 15 23l13 -6q-11 -27 -11 -52v-8q-3 0 -10 -1q-10 -2 -14 -2q-21 37 -21 83v11q0 15 3 32q2 21 8 41q0 2 1 6q6 25 6 39v4zM230 146l-15 -11 q-2 3 -7 10q-10 13 -14 20l14 10q2 -3 7 -8q12 -13 15 -21zM218 183l12 11l7 -7q12 -13 17 -22l-13 -11q-5 7 -16 20q-5 6 -7 9zM190 191v-24q-6 0 -21 -2q11 2 -3 0q-1 -11 -1 -16v-20q20 2 36 6l4 -24q-21 -3 -40 -6v-5q0 -25 3 -52q27 -10 52 -30l-13 -22q-17 14 -38 24 q-3 -17 -13 -22q-13 -10 -33 -10h-4q-40 3 -42 31v4q0 14 14 25q11 7 31 7h5q8 0 15 -1v50q-8 -1 -17 -1h-13q-6 0 -16 1h-15l-7 25l3 1q21 -3 44 -4h14h6v16v21h-3q-19 -2 -39 -2h-9l-9 25v3q16 -3 31 -4h12q15 0 44 4q15 1 22 2zM123 34h-3q-21 -2 -22 -14q1 -12 21 -13 q8 0 14 3q8 8 9 21q-10 3 -19 3z" />
<glyph unicode="&#x307d;" d="M49 191v-2q-5 -8 -8 -19q-9 -27 -13 -47q-6 -30 -6 -46v-9q0 -22 6 -42q4 6 10 17l6 9l11 -2q-5 -16 -8 -33q0 -3 -1 -9q-2 -10 -2 -16v-7l-22 -3q-2 0 -5 6l-1 2q-1 4 -4 10q-4 9 -5 14q-6 23 -6 47v20q0 21 8 61q4 17 5 26q3 12 3 25v4q5 0 14 -3q12 -3 18 -3zM227 128 q-27 2 -29 28q2 26 29 28q26 -2 27 -28q-1 -27 -27 -28zM212 156q1 -13 15 -14q13 0 13 14q-1 13 -13 14q-14 -1 -15 -14zM107 182h12q29 0 66 7l4 -22l-1 -2q-12 -1 -24 -3l-1 -1q-2 -14 -2 -28v-8q21 2 32 5l3 -21q-14 -4 -35 -6q1 -11 2 -32q2 -18 2 -26v-1q21 -9 53 -29 l-11 -20l-2 -1q-8 6 -29 18q-7 4 -10 6q-2 -16 -12 -23q-13 -10 -31 -10h-5h-3q-39 6 -42 34q2 29 47 33h6h15q-1 15 -3 43v6h-14h-22q-12 0 -24 1l-2 1q-1 12 -3 24q23 -3 45 -3h17h2v31v4l-1 1q-20 -1 -41 -1h-9l-8 24q5 0 15 -1h14zM121 31h-6q-17 -1 -18 -13 q1 -11 18 -13h4q12 1 18 9q3 3 5 13v1q-10 3 -21 3z" />
<glyph unicode="&#x307e;" d="M122 201l31 -3l1 -1q-2 -3 -4 -8q-1 -3 -2 -4v-4q-1 -8 -2 -18q11 1 31 4q9 1 13 2l-2 -23q-19 -4 -42 -5q1 -5 1 -16q1 -10 1 -16h2q22 1 44 7l-4 -23q-20 -6 -40 -7q1 -23 3 -48q32 -11 56 -31l-12 -18q-13 11 -43 23q-1 -20 -20 -29q-11 -6 -31 -6h-9q-24 0 -37 13 q-15 13 -8 33q7 11 19 16q17 6 34 6h10q5 0 15 -2q-6 2 2 0q0 9 -2 27q-1 9 -1 14h-21q-18 0 -36 2l-2 1l-5 22v2q4 -1 10 -2q18 -3 28 -3h20h5q0 15 -1 35h-6q-26 0 -50 2l-2 1l-6 23q7 0 20 -2q17 -2 25 -2h19v11q0 11 -2 27zM100 26h-6q-23 -2 -24 -17q1 -6 10 -9 q8 -1 15 -1h6q11 -1 22 4q7 6 7 16v4q-3 0 -10 1q-14 2 -20 2z" />
<glyph unicode="&#x307f;" d="M9 31v4q0 12 10 32q9 14 18 21q26 21 57 21h2q5 6 7 12q12 21 25 42l-2 2q-34 -5 -48 -17l-5 10t-12 21l1 1h12q9 0 28 4q5 1 7 1q16 3 31 9h2l26 -25q1 -4 -5 -7l-1 -1q-9 -6 -17 -14q-3 -4 -8 -12q-3 -4 -4 -6t-4 -6q-2 -5 -9 -17q11 -2 22 -5q10 -3 27 -11q9 -4 13 -6 q6 28 6 43v8h2l27 -8v-2q-7 -15 -12 -41q0 -1 -1 -2q0 -3 -3 -9q31 -18 46 -32l-12 -23h-2q-17 15 -35 29q-2 2 -5 3q-6 -13 -13 -25q-19 -29 -49 -46h-2q-9 9 -21 16v1q31 15 47 34q10 9 19 31q0 1 -1 1q-34 19 -64 24q-5 -10 -15 -28q-7 -12 -10 -18q-24 -42 -51 -37 q-23 7 -24 28zM40 60q-1 -2 -3 -5q-5 -6 -6 -10q-4 -18 9 -19q5 0 12 6q0 1 1 2q6 6 10 13q12 19 21 40q-23 -3 -44 -27z" />
<glyph unicode="&#x3080;" d="M177 148v3l10 17q33 -15 52 -31l-14 -21h-2q-28 23 -46 32zM65 74v6v1q-1 1 -2 4q-2 8 -6 8q-5 0 -8 -3q-8 -8 -8 -23v-4q1 -15 10 -16q8 1 12 10q2 5 2 17zM60 201l32 -4q-4 -15 -6 -40q21 3 41 8l-3 -28q-6 0 -19 -2q-14 -1 -21 -2v-11v-11q0 -4 2 -11q1 -3 1 -5 q3 -12 2 -25v-9q0 -15 -6 -27q0 -1 -1 -3t-1 -3v-4q1 -11 9 -17q5 -6 19 -5h21q13 0 26 3q10 1 16 9q10 14 11 38v6l26 -13v-4q-1 -26 -12 -41q-12 -16 -38 -18q-19 -3 -40 -3h-20q-18 0 -29 10q-13 11 -13 28v3q-36 2 -40 43v4q0 19 10 32q11 13 35 15q0 -4 1 18 q-14 -1 -29 -1h-8q-1 0 -3 1l-6 25q9 -1 18 -1h23h5v12q-1 8 -1 11v6q0 3 -1 8q-1 6 -1 8z" />
<glyph unicode="&#x3081;" d="M137 197h5h2l25 -6q-1 -6 -2 -18q-2 -13 -3 -19q33 -2 52 -17q24 -24 25 -58v-6q0 -29 -13 -48q-14 -20 -34 -30q-13 -9 -29 -13q-1 0 -6 5q-1 2 -2 3q-2 3 -11 9q-1 1 -2 1q64 15 68 71v3q-1 27 -18 42q-13 12 -36 14q-10 -41 -33 -75q9 -9 19 -16l-21 -19h-1l-9 9l-4 4 l-5 -5q-6 -7 -10 -10q-23 -22 -46 -22h-3q-28 2 -30 39v5q0 20 13 44q1 1 3 4q12 18 20 25l-15 30q-5 11 -8 16l28 14v-5v-2q4 -19 14 -39q35 23 68 26q3 12 3 23v4q0 9 -4 17zM133 129q-29 -5 -51 -21q1 -2 4 -6q4 -6 5 -8q1 -1 2 -3q9 -13 16 -19q6 10 12 22l3 9 q7 16 9 26zM39 41v-4q0 -12 7 -15q5 -3 15 2q12 6 27 21l3 3q1 2 2 3q-8 9 -14 19q-5 6 -13 18q-1 3 -2 4q-7 -9 -15 -19q-10 -20 -10 -32z" />
<glyph unicode="&#x3082;" d="M101 207h4l29 -8v-2q-3 -2 -5 -8l-3 -6q-4 -13 -7 -27q0 -1 -1 -3q-1 -3 -2 -5h7h12q6 0 17 2q4 1 6 1l-5 -25q-1 -1 -3 -1h-23h-16q-1 -7 -2 -19q-2 -14 -3 -22q26 -4 48 -1v-4l-4 -20q-1 -1 -3 -1h-21q-11 0 -23 1v-7q-1 -4 -1 -7v-10q0 -15 10 -26q11 -9 23 -9h6 q20 1 29 10q10 12 10 27v4q0 17 -19 47q-2 4 -3 5l29 2q21 -24 22 -56v-5q-1 -27 -21 -44q-16 -15 -44 -15h-6q-24 0 -43 17q-16 13 -16 45v10q0 8 1 16q-5 2 -16 5q-11 4 -17 5l2 25q16 -7 34 -10v5q2 6 4 18q2 11 3 17q-12 3 -22 6q-8 1 -8 3l2 25q16 -6 31 -9q1 3 3 11 q1 7 2 10q0 2 1 7q2 12 2 19v7z" />
<glyph unicode="&#x3083;" d="M145 159l-13 -13q-14 14 -32 23l13 14q3 -2 10 -7q16 -10 22 -17zM76 157v-4v-2q2 -3 5 -9q7 -12 10 -18q17 8 34 14q36 16 55 16h6q36 -4 40 -38v-5q0 -20 -30 -37q-18 -7 -46 -9l-3 1l-10 16v2h11q21 0 36 7q16 7 17 25v4q0 6 -3 9q-3 5 -10 7h-3q-3 1 -5 1 q-5 0 -17 -3q-5 -1 -8 -2q-4 -1 -13 -5q-5 -2 -8 -3q-5 -2 -16 -8q-11 -5 -17 -8q4 -6 10 -20q7 -13 10 -20q12 -26 22 -53l-20 -8q-3 10 -11 31q-1 4 -2 6q-13 27 -28 54q-6 -4 -13 -7q-1 -1 -4 -3q-10 -5 -14 -11h-2l-19 18v3q18 4 43 17q-10 17 -22 33l22 9h3z" />
<glyph unicode="&#x3084;" d="M96 180l16 17q23 -12 40 -30l-19 -16q-17 18 -37 29zM68 167v-6v-2q9 -18 18 -35q2 0 4 2q3 1 9 4q28 14 43 18q28 11 50 11h5q18 0 33 -9q17 -13 18 -35v-6q-1 -30 -31 -44q-21 -10 -62 -13l-14 22v3h6q30 0 48 6q32 14 21 39q-9 12 -27 13h-4q-15 0 -43 -11 q-5 -2 -8 -3q-18 -8 -36 -17l-1 -1q3 -5 8 -15q6 -10 8 -15q26 -49 36 -74v-3l-23 -11h-2q-14 36 -50 107q-3 -2 -10 -6q-17 -9 -25 -15l-2 -2q-5 -4 -8 -3l-21 27q13 1 38 13q5 2 7 3t5 2q3 2 5 2q-2 3 -6 10q-2 6 -4 9q-2 2 -4 8q-7 11 -12 17l1 2l28 8h2z" />
<glyph unicode="&#x3085;" d="M124 186l24 -6v-3q1 -8 4 -20h4q26 0 43 -19q16 -16 16 -38v-5q-1 -28 -20 -47q-19 -17 -42 -17h-5h-11q-4 -8 -16 -23q-1 -2 -2 -3l-18 8q1 2 4 5q12 13 17 21q-1 0 -3 2q-16 12 -24 31l16 10q4 -16 19 -26q3 9 4 18q3 14 3 27v9q0 18 -3 30q-21 -4 -43 -26 q-22 -26 -22 -51v-4q0 -14 4 -25l-18 -8q-14 38 -14 79v14q0 5 1 16q2 12 2 18v5q0 3 -2 10q-1 3 -1 5l28 -6q-1 -3 -4 -8q-1 -3 -2 -4q-3 -16 -3 -46v-14q23 47 72 60l-6 24q-1 5 -2 7zM148 50h5q19 1 31 16q10 12 10 29v5q0 19 -16 32q-9 7 -24 9q2 -13 2 -28v-9 q0 -28 -10 -54h2z" />
<glyph unicode="&#x3086;" d="M120 197l31 -4l1 -2q0 -2 2 -8q2 -11 4 -21h4q30 0 52 -19q19 -20 20 -51v-8q-1 -29 -18 -51q-23 -25 -54 -26h-5q-6 0 -13 2q-11 -19 -26 -34l-25 13q17 16 27 32q-18 13 -30 28l12 17q11 -12 21 -21q3 -3 5 -4q7 28 7 55v21v21q-2 0 -8 -1q4 1 -2 -1q-9 -3 -24 -12 q-24 -15 -38 -43q-7 -18 -7 -33v-8q1 -17 7 -32l-24 -8l-2 1q-9 22 -12 49q-3 18 -3 35v14q0 7 1 21t1 21v13q0 14 -2 27l32 -5q-4 -12 -6 -24q-6 -35 -6 -54v-13q30 61 91 75q-4 21 -13 38zM155 31h4q20 1 34 15q15 19 15 41v6q0 15 -13 32q-14 13 -34 16q2 -15 2 -29v-17 q0 -33 -10 -64h2z" />
<glyph unicode="&#x3087;" d="M117 186h3l25 -6q0 -1 1 -3v-2q-1 -2 -2 -5q-3 -8 -3 -11v-11v-7q35 2 53 7l6 -21q-16 -4 -47 -6h-10q0 -16 3 -57q6 -1 11 -4q20 -10 42 -27l1 -2l-14 -18l-2 -1q-16 16 -39 29q-1 -13 -14 -24q-10 -10 -32 -10h-6q-15 0 -26 9q-11 10 -11 25q2 27 40 30h14q9 0 17 -2 q0 6 -1 19q-1 14 -1 21q-1 6 -1 20q-2 38 -7 57zM93 26h5q27 1 30 23q-3 1 -19 5q-20 3 -29 -3q-9 -8 -5 -16q4 -9 18 -9z" />
<glyph unicode="&#x3088;" d="M148 194l2 -3q-6 -11 -6 -32v-11v-5q44 3 70 14l2 -33q-33 -5 -66 -5h-5q0 -4 1 -11v-9q-1 13 4 -51q31 -11 69 -39l-17 -21h-2q-3 3 -11 9q-4 3 -6 3q-16 11 -33 20q-4 -17 -10 -22q-13 -14 -28 -19q-8 -1 -19 -1h-3q-19 0 -33 11q-20 13 -20 29v4q1 15 19 28q12 8 33 8 h9q14 0 27 -3q-1 24 -3 48q-2 26 -2 42v20q0 5 -1 15q-1 11 -1 17q15 -1 30 -3zM91 37h-3q-25 -2 -27 -18q2 -16 25 -19h5q17 0 24 7q9 7 10 20v4q-21 6 -34 6z" />
<glyph unicode="&#x3089;" d="M71 189l17 19q3 -1 8 -4q18 -7 44 -22v-2l-17 -18q-28 18 -52 27zM50 154l28 -6q-7 -29 -9 -75q37 30 72 30h7q27 0 45 -11q20 -16 21 -38v-5q0 -24 -21 -44q-21 -15 -46 -22q-11 -6 -24 -6l-13 22v1q19 3 40 9q34 14 34 36v4q-2 27 -37 30h-4q-16 0 -40 -10 q-24 -13 -32 -32l-29 10q1 8 3 25q5 47 5 71v11z" />
<glyph unicode="&#x308a;" d="M85 124v-5q0 -15 4 -24h2l10 16h3l11 -10q-2 -4 -5 -11q-11 -24 -11 -39v-4q-12 -2 -24 -2q-6 9 -10 26q-6 21 -6 45v8q0 12 4 37q4 22 4 33q15 -1 29 -3q-3 -10 -5 -21q-6 -29 -6 -46zM155 194l33 3l2 -1q-2 -12 2 -34q0 -4 2 -11q3 -25 3 -38v-16q1 -32 -11 -61 q-17 -41 -42 -61q-1 -2 -3 0l-23 11l-1 2q24 21 36 43q16 31 16 69v19q0 44 -14 75z" />
<glyph unicode="&#x308b;" d="M52 178h14q44 0 74 10q2 0 4 1q4 2 6 2h1l26 -21v-1q-13 -9 -23 -22q-5 -6 -16 -19q-11 -12 -17 -19q4 0 12 1q7 1 11 1h5q26 -1 44 -16q19 -17 19 -43v-3q-1 -30 -30 -49q-23 -15 -50 -15h-4q-46 4 -49 34v4q3 26 34 29h5q25 0 49 -32q15 13 16 31v5q-3 28 -37 31h-5 q-40 -1 -67 -35q0 -1 -1 -2q-3 -4 -5 -5l-24 18v3q50 39 85 93q-36 -2 -55 -12q-1 0 -2 -2q-4 -3 -7 -2l-13 33v2zM119 7h5q7 0 13 2q0 6 -7 11q-13 12 -24 8q-9 -5 -5 -13q4 -7 18 -8z" />
<glyph unicode="&#x308c;" d="M71 180v5q0 6 -2 14q16 -2 34 -2v-3q-3 -3 -6 -11q-1 -2 -1 -3q-4 -16 -6 -30q1 0 1 1l18 -14q1 -2 -2 -5q-1 0 -2 -1q-2 -2 -5 -8q-4 -5 -6 -8q5 4 15 13q32 32 56 31h4q9 0 17 -4t11 -18v-4q0 -19 -5 -57q-3 -19 -4 -28q-2 -15 1 -21q4 -9 16 -5q9 2 23 15l4 4l1 1 q5 8 10 8l8 -27q-17 -17 -26 -23q-16 -10 -28 -10h-4q-12 1 -23 11q-7 11 -7 30v4q0 16 5 49q1 9 2 13q0 2 1 7q2 9 2 14v4q-2 12 -20 10q-14 -6 -25 -16l-2 -2q-18 -14 -33 -30q-2 -2 -5 -7l-6 -6v-8q0 -16 3 -49q2 -23 2 -35h-29v38q0 13 1 25q-13 -15 -30 -42h-2l-22 13 v2q52 56 61 99q-5 -2 -14 -6q-21 -7 -31 -15l-14 30l1 2q30 0 59 12q1 5 2 15q1 9 1 14q0 2 1 7v7z" />
<glyph unicode="&#x308d;" d="M62 178h6q11 0 32 4q-14 -3 3 0q31 3 45 11q1 0 4 2t5 2h3l22 -17v-3q-9 -5 -21 -22q-3 -5 -5 -7q-18 -22 -38 -45q4 1 11 3q18 5 29 5h4q23 0 45 -12q24 -17 25 -45v-4q-2 -39 -33 -57q-30 -18 -60 -18l-11 24h4q26 0 43 8q27 14 28 40v4q0 14 -12 26q-10 10 -29 10h-5 q-36 -1 -62 -20q-22 -17 -47 -47l-24 21q17 14 47 45l11 11q36 36 52 68q-7 -2 -20 -5q-19 -5 -28 -8q-1 0 -4 -2l-4 -2l-17 28z" />
<glyph unicode="&#x308e;" d="M110 185l1 -2q-6 -14 -6 -24v-8l8 3h2l11 -8q0 -4 -5 -10l-3 -3q-7 -9 -13 -18q14 10 29 16q18 6 28 6h4q20 0 33 -13q19 -17 19 -35v-5q0 -26 -31 -53q-15 -9 -31 -17q0 -1 -1 0l-18 15q17 6 32 16q25 16 25 37v5q-4 29 -30 32h-5q-8 0 -26 -9q-1 -1 -2 -1 q-16 -8 -30 -20q1 -42 7 -84h-27v61q-3 -5 -9 -14q-9 -14 -14 -21l-20 14q21 21 45 60v3v14q-15 -6 -28 -13l-8 24q18 5 39 12v6q1 5 1 8v14q0 8 -4 16q5 0 14 -2q9 -1 13 -2z" />
<glyph unicode="&#x308f;" d="M112 162l16 -11v-3q-6 -5 -10 -11q-9 -15 -18 -27q36 27 68 27h5q27 0 43 -12q23 -19 24 -43v-4q-1 -32 -25 -58q-21 -20 -55 -30h-2l-22 19q28 7 44 18q31 21 31 45v4q0 11 -9 24q-8 10 -17 14q-18 6 -42 -3q-13 -6 -25 -13q-12 -8 -22 -17q2 -52 6 -102h-30v76 q-18 -21 -33 -46h-2l-21 20q29 27 50 61q4 6 7 14q0 9 1 18q-4 -2 -14 -5t-15 -5q-1 0 -3 -2q-3 -2 -5 -1l-10 26v2q24 4 49 11v7q1 9 1 20v9q0 11 -2 21q6 -1 18 -2q11 -2 16 -2q0 -3 -2 -9q-2 -4 -2 -5q-2 -7 -4 -20q-1 -8 -2 -11q1 1 5 2q5 2 8 4z" />
<glyph unicode="&#x3090;" d="M152 5h4q6 0 12 1q-4 9 -12 14q-10 10 -21 3q-5 -6 -2 -11q4 -7 19 -7zM147 130h5q31 0 56 -17q25 -18 25 -55v-6q0 -32 -22 -51q-21 -17 -55 -18h-5q-15 0 -28 9q-14 9 -15 23v4q3 25 32 28h5q24 0 44 -31l2 2l2 1q13 13 14 33v4q-1 23 -15 37q-13 12 -39 12h-6 q-12 0 -17 -1q0 -1 -1 -2q0 -2 -1 -3q-1 -2 -2 -7q-20 -58 -38 -84l-2 -2q-10 -15 -20 -18q-23 -11 -37 12q-6 10 -6 23v8q0 29 25 58q26 25 62 35h1q1 5 5 16q6 18 8 27q-4 -1 -13 -2q-27 -5 -40 -14l-14 29v3h9q31 0 71 14h3l24 -13v-4q-5 -4 -9 -12q-10 -18 -17 -39 q4 1 9 1zM91 92q-27 -14 -40 -41q-12 -24 0 -33q9 -7 18 2q8 12 13 26q6 13 16 42l3 9q-1 -1 -5 -2q-3 -2 -5 -3z" />
<glyph unicode="&#x3091;" d="M130 79q-1 7 -9 8q-9 -1 -6 -11q1 -5 8 -5t7 8zM154 199l22 -19v-2q-25 -19 -48 -41q15 9 25 9h4q18 0 32 -9q18 -14 19 -31v-3q-1 -24 -26 -40q-25 -11 -51 -11h-5q-2 0 -5 1q-28 -9 -49 -27q4 2 7 2q18 0 35 -19q22 37 56 38h5q48 -3 65 -57l-28 -6l-2 1q-5 19 -14 29 q-17 18 -35 14q-12 -5 -18 -14q-10 -14 -10 -31l-30 -4q0 2 -1 6q-2 16 -9 22q-14 11 -29 0q-12 -8 -19 -28l-28 11l-1 3q19 43 85 73q-5 6 -5 14v4q3 10 9 16q8 6 18 5q26 -3 26 -28q26 -2 29 26q0 8 -11 16q-23 15 -60 -8q-15 -9 -35 -34h-3l-21 13v3q45 35 83 77 q-6 -1 -17 -3q-20 -4 -29 -8q-1 0 -3 -1t-4 -1l-12 32l11 -2h2h7q14 0 36 4q13 1 30 8h2z" />
<glyph unicode="&#x3092;" d="M98 207l32 -8v-2l-7 -8q-1 -3 -4 -10q-2 -8 -4 -11q22 3 40 10v-27q-23 -6 -49 -8q-6 -15 -15 -29q18 8 28 8h4q3 0 10 -2l2 -1q6 -3 12 -11q7 -9 8 -20q9 4 17 7l9 3q12 4 18 7q2 1 4 3q4 4 6 3l21 -24v-3q-35 -7 -71 -19q2 -8 2 -17v-7q0 -5 -2 -17q-1 -6 -1 -9h-25 q0 4 1 11v10v10v9q-10 -4 -22 -13q-19 -13 -13 -28q4 -14 34 -14h4q27 1 50 7l3 -29q-20 -3 -40 -3h-15q-24 0 -41 9q-20 12 -21 29v4q2 26 29 46q7 5 20 11q7 4 11 6q-3 16 -11 20q-7 2 -19 -2q-22 -11 -48 -53q-3 -4 -4 -6l-25 11q35 47 54 91h-11h-18l-7 24v2 q12 -2 21 -2h13h12q1 3 1 4q7 16 7 32v6z" />
<glyph unicode="&#x3093;" d="M231 55l12 -25q2 -2 0 -3l-7 -7q-37 -42 -67 -41h-4q-16 0 -28 17q-6 8 -8 33l-3 21q-1 13 -2 20q-1 8 -6 9q-8 0 -19 -7q-12 -7 -19 -16q-18 -18 -33 -56l-4 -8q-2 -6 -4 -9l-26 7q11 33 46 95q14 25 21 38l12 21q5 9 8 14q1 2 2 5q12 22 14 36h4l34 -16v-3 q-19 -18 -33 -39q-12 -18 -21 -36q-7 -9 -12 -19q1 1 3 2q9 5 13 7q31 13 42 -6q4 -6 6 -19v-2q0 -5 1 -13q1 -18 2 -27q2 -15 10 -20q8 -7 21 0q16 9 39 40q4 5 6 7z" />
<glyph unicode="&#x30a1;" d="M65 167h115l8 6h3l26 -16v-3q-10 -5 -22 -22q-3 -4 -5 -6q-11 -14 -35 -33q0 -1 -2 0l-21 11v1q29 17 46 43h-113h-26v20q14 -1 26 -1zM111 127l26 -5q-1 -3 -3 -7q-2 -3 -2 -5q-3 -12 -6 -23q-11 -43 -55 -78q-2 -1 -7 5l-1 1q-2 2 -5 4q-4 3 -6 4v2q42 25 53 70 q2 8 3 24q1 5 1 8h2z" />
<glyph unicode="&#x30a2;" d="M16 145v30q19 -2 40 -2h142l8 5h5l29 -19q0 -8 -2 -7q0 -1 -3 -2t-4 -2q-2 -3 -7 -8q-38 -44 -62 -63q0 -1 -2 0q-5 3 -16 10q-5 3 -8 5v2q35 20 54 52h-145h-14q-10 -1 -15 -1zM109 122l35 -6q1 -2 -3 -5l-3 -3q-1 -4 -2 -12l-3 -12q-7 -33 -21 -57q-18 -28 -46 -50 q-1 -2 -3 0q-14 9 -29 17v2q70 34 75 120v6z" />
<glyph unicode="&#x30a3;" d="M180 189l21 -20v-2l-9 -2q-3 -3 -8 -10q-16 -20 -25 -28v-88q0 -19 1 -37h-24v16q1 12 1 18v70q-13 -10 -28 -19q-25 -16 -40 -21h-2l-12 18v3q33 10 67 38q36 28 55 64h3z" />
<glyph unicode="&#x30a4;" d="M190 201h4l28 -26v-2q-15 -6 -37 -30l-9 -9q-1 -1 -5 -4l-5 -5v-44q0 -22 2 -65q2 -27 2 -41h-34q1 16 1 35v50v42q-32 -24 -80 -51q-2 -1 -2 0l-21 20v2q43 20 79 49q56 39 77 79z" />
<glyph unicode="&#x30a5;" d="M111 186h3l24 -6q0 -3 -2 -7v-25h40l1 1q6 3 8 2l23 -17v-2l-6 -3q-15 -87 -84 -128q-1 -1 -3 0q-3 3 -10 8q-6 4 -8 6v1q72 35 81 111h-109v-30q0 -4 1 -12v-12h-22v24v53q1 0 4 -1q9 -1 15 -1h45v19v9q-1 6 -1 10z" />
<glyph unicode="&#x30a6;" d="M141 173v-6q0 -4 1 -10h50q1 0 5 1q4 2 6 1t5 -4q14 -8 21 -14q0 -4 -4 -9q-1 -1 -1 -2q-3 -5 -4 -14q-1 -5 -2 -7q-12 -38 -34 -71q-28 -41 -72 -63q0 -2 -2 0q-4 2 -13 8q-8 6 -13 9v1q43 20 67 49q28 35 40 88h-135l1 -64h-30v18q1 12 1 19v28v12q-1 9 -1 14h85v16 q0 14 -2 28q11 0 32 -2q-14 2 3 0q0 -3 -2 -9q-1 -3 -1 -4v-6q-1 -5 -1 -7z" />
<glyph unicode="&#x30a7;" d="M100 154h55q12 0 37 2q-18 -2 3 0v-25q-6 0 -18 1q-11 1 -16 1h-23v-78h35q20 0 41 2v-26q-5 0 -15 1q-19 2 -29 2h-87q-9 0 -27 -2q-9 -1 -14 -1v26h5q24 -2 37 -2h34v78h-21q-7 0 -20 -1q-12 -1 -18 -1v25q20 -2 41 -2z" />
<glyph unicode="&#x30a8;" d="M91 162h75q11 0 34 2q11 1 17 1v-32q-7 0 -20 1q-14 1 -21 1h-32v-94h32q13 0 39 2q13 1 19 1v-31q-9 0 -29 1t-30 1h-97q-10 0 -29 -1q-18 -1 -27 -1v31q5 0 16 -1q25 -2 38 -2h38v94h-20q-8 0 -25 -1q-18 -1 -27 -1v32q6 0 17 -1q21 -2 32 -2z" />
<glyph unicode="&#x30a9;" d="M161 141h15q20 0 39 2v-27q-4 0 -13 1q-17 2 -26 2h-14v-8q2 -45 2 -67v-10q0 -14 -11 -24q-12 -6 -28 -6h-6q-1 0 -3 1l-6 21l1 2h11q18 2 19 16v36q0 11 -1 31l-4 -8q-2 -5 -9 -14q-4 -4 -5 -6q-13 -16 -30 -27q-15 -11 -32 -19q-1 -1 -2 0l-17 15v3q51 18 81 64h-31 q-9 0 -28 -2q-9 -1 -14 -1v27q20 -2 40 -2h49q-1 7 -1 23q-1 14 -1 22q5 0 14 -1q10 -1 14 -2q1 -3 -1 -7t-2 -6v-29z" />
<glyph unicode="&#x30aa;" d="M168 141h8q30 0 60 2v-30q-9 0 -29 1h-29h-10q-1 5 1 -39q1 -43 1 -66v-5q0 -16 -20 -25q-8 -2 -25 -3q-6 -1 -9 -1l-2 1q-3 15 -11 28v1h5q16 -1 23 2q10 4 10 13v42q0 -9 -1 35q-13 -20 -38 -42q-31 -30 -60 -41q-2 1 -4 4l-2 2q-5 6 -15 14q1 -1 -1 1v2q62 24 101 77 h-37q-9 0 -27 -1q-19 -1 -29 -1v31h3q26 -2 51 -2h57q-1 8 -3 37q-1 12 -1 19q18 -1 35 -3q0 -3 -2 -10q-1 -3 -1 -5q0 10 1 -38z" />
<glyph unicode="&#x30ab;" d="M113 191h9q4 0 13 -1q10 -1 15 -1q0 -3 -2 -7q-1 -2 -1 -3q-1 -6 -2 -17q-1 -6 -1 -9v-9q40 2 82 3q2 -1 3 -3q0 -9 -1 -27q-1 -58 -9 -88q-5 -29 -28 -36q-13 -4 -41 -6q-5 14 -8 28l1 1l25 -1q10 -1 18 11q3 4 6 17q1 2 1 3q2 11 3 32q1 7 1 11v21v9q-28 -1 -57 -1 q-4 -22 -13 -44q-12 -32 -41 -62q-12 -13 -32 -24q-1 -2 -3 0q-15 12 -24 16v2q21 10 41 30q19 18 26 36q12 22 17 46q-39 -1 -78 -3v31q15 -2 30 -2h35h17v15v8q0 12 -2 24z" />
<glyph unicode="&#x30ac;" d="M219 167l-13 -11q-6 9 -23 21l-3 3l13 11q11 -8 26 -24zM242 188l-13 -11q-6 9 -23 21l-3 3l13 11q11 -6 26 -24zM101 194h4q5 0 15 -1q11 -2 17 -2l-2 -4q-1 -5 -3 -12q-4 -16 -7 -34h10q33 0 67 2q3 0 4 -3v-14q0 -16 -2 -49q2 24 0 -3q-2 -40 -11 -62q-6 -14 -22 -22 q-13 -5 -40 -7h-7l-3 1q0 1 -1 4q-1 11 -3 15q0 1 -1 2q-2 5 0 8q2 0 7 -2q7 -2 11 -2h5q15 1 26 13q9 9 11 27q4 25 4 60v10h-49h-9q0 -3 -1 -4v-1q-16 -81 -77 -126h-2q-4 2 -13 6q-9 5 -14 6l-1 2q37 24 53 49q21 32 28 67q-17 0 -52 -2q-17 -1 -26 -1v28q49 -2 77 -2h6 v3q2 15 2 31v7v6q-1 4 -1 6z" />
<glyph unicode="&#x30ad;" d="M201 162h3l2 -31q-36 -2 -71 -5q1 -5 3 -16q1 -11 2 -17q0 -1 1 -3v-2q45 4 90 13h2l3 -31q-16 -1 -47 -4q-21 -2 -31 -3q-2 -1 -7 -1q-5 -1 -7 -1q3 -20 6 -41q1 -10 6 -30q1 -7 2 -11q-6 -1 -18 -2q-11 -2 -16 -2q-1 8 0 5q-4 51 -8 78q-48 -5 -94 -11l-2 31q21 1 62 4 q21 1 31 2v6q-1 3 -1 5q0 5 -1 14q-1 10 -2 14q-11 -1 -34 -3q-23 -3 -34 -4l-4 28l1 2q33 1 67 4q-4 25 -11 49l38 2q-4 -10 -2 -34q1 -5 1 -8q0 -1 1 -3v-4q35 3 69 10z" />
<glyph unicode="&#x30ae;" d="M213 172l-13 -11q-3 3 -9 8q-11 11 -18 16l13 11q10 -7 27 -24zM234 196l-13 -11q-15 15 -24 21l11 11q3 -2 8 -6q13 -9 18 -15zM190 157l2 -30q-10 -2 -29 -4q-18 -3 -27 -4q1 -6 3 -16q3 -15 4 -23q42 6 84 15l5 -28q-42 -6 -85 -12q2 -8 5 -23q8 -33 13 -50v-2l-30 -7 q-2 21 -10 59q-3 13 -4 19q-15 -2 -47 -7q-31 -5 -47 -8l-5 30l1 1q48 3 93 9v3q-1 3 -1 5q-1 5 -2 16l-3 15q-11 -1 -34 -5q-22 -3 -34 -5h-1l-3 27q33 3 66 9q-1 4 -2 10q-4 26 -8 38v2l36 3q1 -3 -1 -9q-2 -5 -2 -8q2 -18 5 -32q30 5 58 12z" />
<glyph unicode="&#x30af;" d="M119 201h2l32 -10v-2q-6 -3 -12 -15q-1 -3 -2 -5q-1 -1 -2 -3q-2 -3 -3 -4h13h36q8 0 16 3h2q14 -10 27 -22v-2l-9 -10l-2 -1q-7 -12 -13 -24q-44 -77 -113 -118q-7 -5 -21 -11q-3 -1 -5 -2q-1 -2 -2 0q-13 10 -30 18q106 41 151 142h-70q-9 -13 -20 -24q-12 -12 -36 -30 q-3 2 -10 5q-6 3 -10 4q-1 0 -3 1q-6 1 -7 4q67 40 91 106z" />
<glyph unicode="&#x30b0;" d="M217 169l-13 -10q-17 17 -27 24l13 11q8 -6 22 -20zM238 194l-13 -11q-15 15 -24 21l11 11q2 -2 7 -5q13 -10 19 -16zM130 186v-3q-6 -4 -13 -18q-3 -4 -4 -6q0 -1 -1 -2q0 -1 -1 -2q35 -3 54 2q3 0 6 2h2l26 -18v-4q-8 -3 -14 -19q-1 -1 -1 -2q-22 -56 -49 -87 q-23 -29 -64 -54q-1 0 -2 -1q-7 -6 -11 -5q-7 10 -24 19v1q95 46 127 141h-67q-21 -30 -49 -53q-1 -1 -3 0q-5 3 -17 8q-4 2 -7 3v2q43 29 69 78q8 15 11 31q9 -1 25 -9q5 -3 7 -4z" />
<glyph unicode="&#x30b1;" d="M92 199h3l31 -10q1 -3 -3 -8q-1 -2 -2 -3q-3 -6 -9 -17q-6 -14 -10 -21q0 -1 -1 -2q0 -2 -1 -3h82q32 0 65 2v-29q-9 0 -27 1h-26h-15q-6 -41 -26 -74q-22 -35 -59 -58q0 -2 -2 0l-18 9q-5 3 -8 4v3q37 25 54 46q24 32 27 70h-64q-21 -29 -49 -53l-3 1q-12 12 -22 17 q68 54 83 125z" />
<glyph unicode="&#x30b2;" d="M222 172l-13 -11l-5 5q-13 13 -21 19l13 11q8 -6 21 -19zM243 196l-13 -11l-4 4q-11 12 -19 17l11 11q2 -2 6 -5q13 -9 19 -16zM120 183v-3q-6 -3 -11 -17q-2 -6 -4 -9q-3 -10 -8 -19h78q10 0 30 1q21 1 32 1v-28q-10 0 -30 1t-31 1h-7q-3 -46 -17 -72q-17 -31 -53 -56 q-2 -2 -2 0q-12 8 -26 14v2q13 4 31 23q15 13 21 27q15 27 17 62h-58q-3 -4 -6 -9q-20 -25 -41 -44q-2 -1 -2 0q-11 8 -20 15v1q42 37 64 90q5 14 7 30q9 -1 26 -7q6 -3 10 -4z" />
<glyph unicode="&#x30b3;" d="M72 165h71q33 0 65 1v-98q0 -12 1 -35v-33h-30v10h-76q-31 0 -56 -1v31q18 -1 39 -1h33q30 0 60 1v95h-77h-27q-19 -1 -28 -1v33q13 -2 25 -2z" />
<glyph unicode="&#x30b4;" d="M210 169l-14 -12q-12 14 -24 26l14 11q17 -15 24 -25zM196 201l12 14q15 -9 25 -22l-12 -15q-14 17 -25 23zM189 -1h-30v5q-23 0 -68 -1q-45 0 -68 -1v29h58h23q28 0 55 2v94h-78q-31 0 -58 -1v29q18 -1 53 -1h52q29 0 59 2q0 -80 2 -157z" />
<glyph unicode="&#x30b5;" d="M187 179v-38q0 -6 0 -4q10 1 30 2q19 1 29 1v-31q-7 0 -22 1q-14 1 -22 1h-16q-2 -41 -12 -69q-15 -38 -56 -68q-1 -2 -3 0q-4 3 -14 10q-5 2 -8 4v2q60 46 65 103q0 3 1 9q0 6 1 9h-59v-66h-31q2 24 2 50v16h-14q-8 0 -24 -1t-24 -1v32q7 0 20 -2q19 -2 29 -2h13v31 q0 5 -2 17q-1 6 -1 9q18 -1 34 -3q0 -2 -1 -6t-1 -7v-41h60v4q0 12 -3 37q-2 13 -3 19q18 -1 34 -3q1 -3 -1 -9q-1 -4 -1 -6z" />
<glyph unicode="&#x30b6;" d="M232 165l-13 -11q-3 3 -9 8q-11 10 -18 16l13 11q7 -5 18 -16q6 -5 9 -8zM253 189l-13 -11q-3 2 -8 7q-10 10 -16 14l11 11q3 -2 8 -6q13 -9 18 -15zM67 197l31 -3q0 -3 -1 -9t-1 -9v-41h59q0 3 0 2v14q0 14 -4 43q4 -21 0 3h7q6 0 19 -2q5 -1 7 -1q1 -4 -2 -12l-1 -2 v-45q29 0 59 2v-26q-30 2 -60 3v-6q-1 -8 -1 -13q-3 -33 -11 -49q-19 -42 -67 -72h-2l-19 21q22 7 45 34q19 22 26 57q-1 -7 4 28h-59v-69h-29q2 27 2 55v14h-7q-13 0 -39 -2q-13 -1 -20 -1v26q30 -2 60 -2h6v41q0 11 -2 21z" />
<glyph unicode="&#x30b7;" d="M20 111l16 22q28 -14 52 -32q-3 -3 -8 -11q-6 -7 -9 -11h-2q-26 19 -49 30v2zM120 162l1 -3q-2 -3 -5 -8q-7 -11 -11 -15q-4 3 -13 10q-23 19 -37 26v1q1 1 2 3q6 6 14 17q27 -12 49 -31zM236 110l-1 -4q-27 -26 -58 -49q-46 -35 -82 -54q-1 0 -3 -1q-19 -7 -26 -13 l-3 -3q-3 -4 -6 -3l-12 15l-12 15v2q57 14 112 53q47 32 78 67h2q5 -13 11 -25z" />
<glyph unicode="&#x30b8;" d="M54 169l15 20q21 -9 52 -35l-20 -19q-21 20 -47 34zM16 108l17 19h2q4 -3 12 -8q23 -14 33 -24l-21 -22q-20 21 -43 35zM229 119l11 -24v-2q-28 -28 -75 -57q-37 -23 -91 -41q-3 -3 -13 -5q-7 -2 -10 -4q-1 -1 -3 -4t-4 -3l-17 34l2 2q14 2 27 5q12 4 36 14q12 5 18 7 q5 3 16 9q18 8 26 13q44 25 77 56zM159 145v2l14 12q0 2 2 0q12 -7 23 -18q4 -3 4 -5q0 -1 -1 -2l-1 -1q-4 -6 -12 -10q0 -1 -1 0q-7 5 -20 15q-5 5 -8 7zM184 169l12 15q4 -1 13 -7q3 -3 5 -4q7 -7 12 -11v-3l-14 -12q0 -1 -2 0q-4 4 -13 11q-8 7 -13 10v1z" />
<glyph unicode="&#x30b9;" d="M186 177l23 -15q1 -1 1 -5q-4 -4 -9 -7q-3 -2 -5 -7q-1 -2 -2 -3q-12 -22 -27 -43q-3 -4 -6 -9q16 -13 31 -27q24 -22 44 -46v-2q-2 -1 -5 -4q-12 -9 -17 -16h-2q-9 8 -25 28q-28 31 -43 46q-8 -7 -14 -15q-38 -36 -85 -57q0 -2 -2 0q-11 8 -23 17v1q101 45 135 120 q3 6 4 13h-59q-7 0 -22 -1t-23 -1v31q28 -2 58 -2h47q8 0 16 3h1q6 3 9 1z" />
<glyph unicode="&#x30ba;" d="M230 169l-13 -10q-3 3 -9 8q-11 11 -18 16l13 11q8 -6 22 -20zM251 194l-13 -11q-3 2 -8 7q-10 10 -16 14l11 11q2 -2 7 -5q13 -10 19 -16zM170 169l24 -21v-1q-4 -3 -8 -11l-1 -1q-19 -37 -39 -59q43 -28 77 -67l-24 -21q-5 5 -15 14q-36 37 -57 54q-46 -42 -91 -62 q-5 -4 -10 -4q-6 10 -21 20v3q18 7 36 16q80 43 112 108h-48h-33q-22 -1 -33 -1v28q35 -1 69 -1h17q10 0 26 2q6 0 12 3q3 1 5 1h2z" />
<glyph unicode="&#x30bb;" d="M88 194h16h9q5 -1 8 -1q0 -4 -3 -10q-3 -5 -3 -8v-46q8 2 25 4q36 7 55 11q2 0 8 4q1 2 2 2l3 3l1 1h1l30 -19v-2q-7 -6 -18 -23q-3 -5 -5 -7q-20 -25 -41 -48q-4 1 -11 4q-6 3 -9 4q-1 1 -4 2q-5 1 -6 4q33 24 48 51l-1 1q-15 -3 -42 -9q-24 -5 -36 -7v-13q0 -28 3 -55 q2 -17 20 -19h38q9 0 26 1t25 1v-27h-91q-18 0 -32 10q-11 9 -13 31q-2 14 -2 29v36q-5 -1 -16 -3q-14 -3 -21 -4h-2q-18 -4 -25 -10l-3 9q-5 14 -6 22v2q29 2 55 7q9 2 18 3v34v17q-1 12 -1 18z" />
<glyph unicode="&#x30bc;" d="M227 166l-10 -15q-4 3 -11 9q-13 11 -21 15l12 14q2 -1 5 -4q17 -11 25 -19zM208 197l11 13q20 -14 30 -24l-12 -13q-5 3 -13 11q-10 9 -16 13zM72 189l33 -3q0 -1 -1 -2q-2 -6 -3 -15v-47q6 1 18 2q29 4 45 7q16 2 25 6q1 1 4 2q2 2 3 2h1l28 -19v-3q-8 -5 -18 -20 q-5 -7 -7 -10q-18 -25 -39 -48h-4q-10 7 -24 13v1q32 24 46 54q-22 -4 -70 -12q-5 -1 -8 -1v-65q1 -14 23 -16h34q12 0 24 2q10 1 32 4q-14 -2 5 1v-30h-3q-15 -2 -31 -2h-61q-25 0 -36 10q-13 9 -14 34v58q-6 -1 -20 -3q-19 -3 -29 -5q-3 0 -7 -1q-3 -1 -4 -1l-7 30l1 2h14 q18 0 36 2q3 1 8 2q6 1 8 1v54q0 4 -2 13q2 -6 0 3z" />
<glyph unicode="&#x30bd;" d="M27 159l23 15q28 -28 49 -63l-25 -16h-2q-16 28 -45 64zM193 180h2l34 -18v-3q-14 -9 -23 -38q-16 -39 -42 -70q-21 -25 -45 -45q-17 -12 -37 -21q0 -2 -2 0l-13 13q-1 1 -4 2q-4 0 -4 2q19 8 35 22q36 27 53 50q19 26 30 53q13 26 16 53z" />
<glyph unicode="&#x30be;" d="M15 150v2l22 14h2q24 -26 42 -55q-4 -3 -12 -7q-10 -6 -14 -9q-2 4 -7 11q-20 30 -33 44zM169 167h3l32 -16q0 -3 -4 -7l-3 -3q-2 -5 -7 -16q-1 -2 -1 -3q-32 -74 -85 -118q-18 -13 -39 -25h-2q-11 10 -23 18l1 2q25 11 47 28q19 17 35 36q39 51 46 104zM180 178l12 13 q22 -11 31 -18l-11 -16q-7 6 -23 15zM201 205l8 13q18 -9 32 -21l-10 -14q-7 6 -23 17q-5 3 -7 5z" />
<glyph unicode="&#x30bf;" d="M116 205h3q2 -1 7 -3q8 -3 22 -8v-3q-8 -5 -15 -22h53l8 4h3q2 -1 5 -3q14 -9 20 -16q2 -2 0 -2q-9 -11 -15 -23q-7 -13 -12 -27q-19 -43 -52 -76q-31 -30 -72 -51q0 -2 -2 0t-7 5q-5 4 -8 6q-1 0 -2 1q-6 2 -7 6q56 26 94 70q-27 22 -45 30l19 18q30 -13 43 -24 q17 24 24 54v2h-62q-28 -42 -58 -64q-1 -1 -2 0l-24 16q66 48 82 110z" />
<glyph unicode="&#x30c0;" d="M223 173l-13 -14l-10 10q-12 14 -20 20l14 12q16 -12 29 -28zM204 205l13 12q15 -12 27 -26l-13 -13q-16 19 -27 27zM90 201h2l30 -12v-3q-6 -4 -11 -15l-3 -6q-1 -3 -3 -6h27h22q8 0 14 4l2 1q4 2 5 1l27 -19v-3q-8 -6 -16 -23q-1 -1 -1 -2q-22 -52 -52 -84 q-34 -37 -88 -60q-5 3 -8 8l-6 6q-5 4 -8 7v1q29 7 68 35q15 12 27 26q-16 13 -50 30l16 18q20 -5 51 -25q3 5 6 9q17 25 20 46h-72q-23 -30 -50 -56q-2 -1 -2 0l-24 12l-1 2q63 49 78 108z" />
<glyph unicode="&#x30c1;" d="M190 199l21 -24v-2q-6 -1 -18 -5t-19 -6q-9 -3 -19 -4v-27v-15q44 0 86 5v-34q-9 0 -28 1t-29 1h-31q-3 -21 -9 -40q-15 -38 -55 -67q-4 -5 -9 -5h-1q-3 1 -8 4q-12 8 -20 11v1q30 16 48 36q20 23 25 60h-44q-10 0 -32 -1t-33 -1v29h111v25v12q-31 -4 -64 -6q-2 1 -4 6 q-1 2 -2 3l-6 9q-3 3 -4 5l1 3h13q35 0 69 5q33 3 54 17q1 0 2 2q3 3 5 2z" />
<glyph unicode="&#x30c2;" d="M237 151l-15 -10q-9 14 -24 26l14 11l5 -5q14 -14 20 -22zM254 173l-12 -14q-9 15 -22 27l11 12q15 -10 23 -25zM169 191l20 -21q2 -1 1 -4v-1l-21 -3q-8 -2 -13 -3q-7 -1 -15 -3v-40h35q13 0 36 2q12 1 18 1v-29q-14 0 -43 1t-44 1h-2q-4 -40 -22 -64q-26 -32 -61 -51 q-2 -2 -3 0l-21 19q50 25 69 60q9 14 9 34v3q1 0 0 -1h-4q-24 0 -71 -2q-23 -1 -35 -1v30q6 0 19 -1q26 -2 39 -2h53v7q0 15 -2 28q-32 -4 -64 -5l-13 27h32q27 0 56 5q23 4 44 13h3z" />
<glyph unicode="&#x30c3;" d="M84 109l-24 -8q-3 12 -15 36q-3 6 -4 9l24 7q1 -2 3 -7q8 -15 16 -37zM101 162l24 5q11 -22 15 -45l-24 -6q-7 30 -15 46zM188 167l27 -10v-3q-7 -4 -11 -19q-2 -5 -3 -8q-6 -17 -16 -32q-14 -22 -32 -41q-23 -24 -55 -45q0 -1 -2 0l-17 17q48 27 73 58q28 38 33 83h3z " />
<glyph unicode="&#x30c4;" d="M43 94l-1 1q-9 30 -22 59l12 3q10 3 16 4q12 -22 23 -60q-15 -3 -28 -7zM95 169l27 6q12 -24 18 -59q-14 -3 -29 -5q-5 31 -16 58zM199 173h3q18 -9 34 -19v-3l-8 -5q-4 -12 -9 -23q-28 -61 -60 -89q-34 -31 -75 -51q-2 -2 -2 0l-22 17v2q120 56 139 171z" />
<glyph unicode="&#x30c5;" d="M54 103l-25 -11l-2 1q-1 4 -5 13q-2 5 -3 8q-7 18 -16 37q5 1 13 3q9 2 13 3q12 -20 25 -54zM122 118l-28 -8l-1 1q-8 28 -20 56l28 7l2 -1q1 -3 4 -10q12 -29 15 -45zM179 165h2l30 -19v-3q-8 -3 -13 -15q-1 -1 -1 -2q-7 -18 -16 -34q-10 -19 -24 -36q-23 -31 -55 -53 q-19 -12 -41 -21h-2q-9 12 -22 18v1q18 5 35 16q36 20 64 57q14 19 25 40q14 28 18 51zM192 175l13 13q18 -11 27 -21l-11 -13q-7 6 -21 15q-5 4 -8 6zM211 199l13 11h3q2 -1 5 -3q15 -10 21 -16l-13 -13q-17 16 -29 21z" />
<glyph unicode="&#x30c6;" d="M106 185h43q14 0 41 2q-19 -2 3 0v-30q-7 0 -19 1h-18h-48h-24q-16 -1 -24 -1v29q24 -1 46 -1zM92 125h72q36 0 72 2v-34q-10 0 -30 1h-30h-25q-2 -19 -5 -34q-14 -51 -73 -86q-2 -2 -2 0l-9 6q-9 8 -15 10v3q33 13 51 35q21 26 21 61v5h-30h-34q-23 -1 -35 -1v34 q36 -2 72 -2z" />
<glyph unicode="&#x30c7;" d="M82 180h42q12 0 34 2q12 1 18 1v-29q-6 0 -19 1q-14 1 -21 1h-51q-7 0 -21 -1t-21 -1v29q4 0 13 -1q17 -2 26 -2zM227 164l-13 -11q-12 12 -27 24l13 11q15 -12 27 -24zM248 188l-13 -11q-10 11 -24 21l11 11q2 -2 7 -5q13 -10 19 -16zM67 125h94q28 0 58 2v-32 q-7 0 -22 1q-26 2 -39 2h-23q-2 -30 -7 -44q-15 -46 -64 -75h-2q-10 11 -23 17v2q28 10 46 32q22 26 22 65v3h-36q-10 0 -31 -1q-21 -2 -32 -2v32q38 -2 59 -2z" />
<glyph unicode="&#x30c8;" d="M77 199l36 -2q-2 -9 -5 -17v-2v-63l13 14q28 -13 57 -39l1 -2l-18 -25h-2q-24 24 -51 42v-23q0 -21 3 -62q2 -29 2 -43h-34q2 36 2 81q0 38 -1 112q0 15 -3 29z" />
<glyph unicode="&#x30c9;" d="M177 158l-12 -11q-2 2 -6 5q-14 13 -22 18l14 12q8 -6 21 -19zM198 182l-12 -12q-16 16 -24 21l11 11q14 -8 25 -20zM58 201l34 -3q0 -3 -2 -8q-2 -6 -2 -10v-67q4 9 13 17q27 -13 57 -41q-9 -14 -17 -26h-3q-31 32 -50 43v-51q0 -39 2 -76h-32q0 8 0 5q2 35 2 54v138 q0 13 -2 25z" />
<glyph unicode="&#x30ca;" d="M149 157v-24h9q18 0 54 2q18 1 28 1v-32q-10 0 -32 1h-32h-28q-2 -29 -9 -48q-11 -31 -34 -55q-16 -18 -28 -25q-2 -1 -6 2q-1 1 -2 1q-5 4 -15 9q-3 2 -5 3l-1 2q36 19 57 58q11 22 15 53h-30q-27 0 -74 -2v32q37 -2 73 -2h31v4q0 13 -4 38q-1 13 -2 19q4 0 13 -1 q18 -2 27 -2q0 -3 -2 -9q-2 -3 -2 -4q-1 -8 -1 -21z" />
<glyph unicode="&#x30cb;" d="M109 163h59q15 0 29 2v-32q-7 0 -22 1t-22 1h-45q-9 0 -26 -1t-25 -1v31q25 -1 52 -1zM92 45h69q35 0 68 2v-34q-10 0 -32 1t-33 1h-72q-11 0 -33 -1t-32 -1v34q32 -2 65 -2z" />
<glyph unicode="&#x30cc;" d="M196 178l29 -19v-2q-6 -6 -10 -14l-18 -30q-12 -20 -25 -38q22 -15 43 -34l-23 -21q-19 17 -39 32q-3 -2 -8 -8q-8 -7 -13 -11q-33 -28 -74 -45q0 -2 -2 0q-12 10 -25 17v2q54 19 98 63q-27 20 -56 36l16 20q32 -16 59 -35q11 12 18 25q10 15 17 32h-70h-22 q-15 -1 -23 -1v27q59 -2 117 1l8 3h3z" />
<glyph unicode="&#x30cd;" d="M170 73l16 20h2q3 -1 8 -4q12 -6 18 -11q5 -3 13 -10q9 -6 13 -10l-19 -21q-18 15 -51 36zM152 165v-14h11h2q9 2 17 6h2l24 -19v-2q-7 -5 -18 -16l-4 -4q-15 -17 -32 -29v-56q0 -12 2 -34q1 -12 1 -18h-32q0 8 1 22q1 15 1 22v37v8q-29 -21 -62 -35q-20 -10 -31 -11 q-1 2 -4 5q-4 7 -8 10l-2 1q-4 4 -4 7q37 9 82 35q41 21 60 45h-31h-39q-27 -1 -40 -1v27h77v14q0 6 -2 19q-1 7 -1 10q4 0 11 -1q14 -2 22 -2q0 -5 -2 -14q-1 -8 -1 -12z" />
<glyph unicode="&#x30ce;" d="M179 183h4l32 -16v-3q-11 -8 -21 -32q-1 -2 -1 -3q-23 -44 -56 -80q-30 -36 -67 -59h-2q-6 4 -16 10q-7 4 -10 6l-1 1q79 44 124 138q11 18 14 38z" />
<glyph unicode="&#x30cf;" d="M30 25h-2q-14 9 -24 12v2q2 3 7 8q25 27 35 44q17 28 24 63q18 -5 34 -11q0 -4 -4 -11q-1 -2 -2 -3q-3 -5 -8 -16q-2 -6 -4 -9q-22 -45 -56 -79zM252 52v-2l-25 -17h-2q-3 5 -9 16q-34 64 -57 96l24 12h2q28 -34 67 -105z" />
<glyph unicode="&#x30d0;" d="M76 146h3l29 -16v-3q-6 -5 -15 -20q-3 -5 -5 -8q-30 -47 -60 -69q-1 -1 -3 0l-21 18v2q54 41 72 96zM223 37h-2q-29 51 -68 96l22 15q37 -36 77 -93q-9 -4 -25 -15q-3 -2 -4 -3zM188 169l11 11q9 -6 26 -23l-13 -11q-10 13 -24 23zM249 178l-13 -13q-17 17 -27 24l13 12 q2 -1 5 -4q15 -11 22 -19z" />
<glyph unicode="&#x30d1;" d="M75 148l32 -15v-3q-7 -5 -15 -20q-1 -3 -2 -4q-31 -48 -68 -72l-19 22q56 43 70 92h2zM152 135l24 15q44 -42 74 -94v-4l-25 -16l-2 1q-2 4 -7 11q-36 60 -64 87zM224 215q27 -2 29 -29q-1 -28 -29 -29q-27 2 -29 29q2 27 29 29zM240 186q-1 14 -16 15q-15 -1 -16 -15 q1 -16 16 -17q15 1 16 17z" />
<glyph unicode="&#x30d2;" d="M45 189h3l31 -6q0 -2 -1 -4q-1 -1 -1 -2q-1 -3 -1 -9v-56q12 2 35 9q4 2 7 3q38 13 60 27h2q9 -9 16 -18v-1q5 -6 4 -10q-7 -1 -20 -6q-7 -2 -10 -3q-57 -21 -94 -29v-29q0 -17 4 -24q7 -11 21 -11h28q49 0 82 6v-31q-18 -2 -36 -2h-70q-26 0 -43 13q-14 13 -14 36v113 q0 17 -3 34z" />
<glyph unicode="&#x30d3;" d="M161 173l13 12q12 -8 27 -26v-2l-12 -13q-4 5 -14 15zM182 194l14 11q17 -10 29 -25l-13 -13q-17 20 -30 27zM62 168v-59q20 4 39 10q26 8 39 15q9 5 18 12h2l20 -26q2 -2 0 -6h-4h-2q-13 -4 -25 -9q-38 -14 -87 -22v-20q-1 -30 12 -37q4 -3 12 -3h43q16 0 48 4 q16 1 24 2l-3 -30q-8 0 -24 -1q-33 -2 -50 -2h-33q-20 0 -29 3q-17 3 -23 15q-3 8 -3 17v74q0 20 -3 61q-1 13 -2 20q6 0 18 -1t17 -2q0 -2 -2 -7t-2 -8z" />
<glyph unicode="&#x30d4;" d="M195 191q-13 -1 -15 -14q1 -13 15 -14q12 1 13 14q-2 13 -13 14zM195 205q25 -2 27 -28q-2 -27 -27 -29q-27 2 -29 29q2 26 29 28zM34 183h3q7 0 20 -2q7 -1 10 -1q0 -6 -4 -13v-61q13 3 38 11l9 3q26 9 49 23h2h2q8 -8 14 -16l1 -1q6 -5 6 -10h-9q-18 -9 -38 -15 q-35 -13 -74 -21v-35q0 -14 14 -19q6 -2 23 -2h5h21q18 0 55 3q11 2 16 2l-2 -29h-3q-18 -1 -37 -1h-74q-20 0 -31 5q-13 6 -14 31q-1 9 -1 19v98v15q-1 10 -1 16z" />
<glyph unicode="&#x30d5;" d="M87 165h66q30 0 43 4h1l26 -14q1 -1 1 -3q0 -5 -4 -8t-8 -12q-1 -4 -2 -6q-24 -53 -63 -89q-29 -28 -75 -49q-2 -2 -3 0l-24 17v2q101 43 138 134h-105h-23q-15 -1 -23 -1v26q28 -1 55 -1z" />
<glyph unicode="&#x30d6;" d="M73 157h61q14 0 28 2q1 0 5 1q4 2 6 2h1l25 -21l-3 -9q-2 -3 -3 -5q-2 -4 -4 -11q-4 -11 -7 -16q-9 -18 -17 -30q-15 -23 -34 -41q-24 -22 -73 -49h-2l-24 19v1q108 52 130 130h-94q-10 0 -28 -1h-27v29q30 -1 60 -1zM195 194l26 -25l-13 -12l-27 26zM243 189l-14 -11 l-26 23l13 11z" />
<glyph unicode="&#x30d7;" d="M65 157h88q4 0 11 3q3 2 4 2h2l26 -20q0 -3 -3 -7q-2 -3 -3 -4q-2 -5 -5 -14q-2 -7 -3 -11q-1 -1 -2 -4q-3 -8 -12 -21q-12 -22 -31 -42q-26 -30 -67 -49q-8 -6 -20 -10q-2 0 -9 7l-2 2q-2 2 -8 5q-5 4 -8 6q99 36 136 131h-93q-9 0 -27 -1h-25v29q32 -2 51 -2zM213 212 q27 -2 29 -29q-1 -28 -29 -29q-27 2 -29 29q2 27 29 29zM227 183q-1 13 -14 14q-13 -1 -14 -14q1 -13 14 -14q13 1 14 14z" />
<glyph unicode="&#x30d8;" d="M32 63l-24 21v3q21 11 56 42q7 5 10 8q13 11 22 11t26 -11q2 -1 3 -2q3 -2 8 -6q72 -53 115 -74v-3l-17 -28h-2q-52 35 -101 76q-2 2 -8 6q-10 9 -16 12q-11 4 -25 -11l-2 -2q-21 -22 -42 -42q-1 -1 -3 0z" />
<glyph unicode="&#x30d9;" d="M30 63l-21 25v2q30 19 58 40q2 1 5 4q11 9 19 11q11 4 27 -8q11 -6 32 -21q10 -8 15 -11q2 -1 5 -4q49 -34 77 -49l-17 -29h-1q-40 28 -79 59q-6 5 -18 14q-7 6 -10 8q-2 1 -5 4q-9 7 -14 8q-10 3 -21 -5q-12 -12 -24 -23q-15 -13 -28 -25zM169 159l15 10q13 -11 25 -23 l-12 -13q-7 7 -20 19q-5 5 -8 7zM233 165l-13 -14q-11 14 -26 27l12 12q15 -12 27 -25z" />
<glyph unicode="&#x30da;" d="M251 54v-2l-20 -27h-3q-6 2 -18 10q-5 4 -7 5q-33 21 -88 69q-9 7 -15 7q-5 0 -11 -6q-2 -1 -3 -2q-3 -3 -11 -10q-8 -6 -12 -10t-12 -11q-9 -8 -13 -12l-2 -2q-4 -6 -8 -5l-23 24v2q26 15 48 32q5 5 15 13q5 4 7 6q2 1 5 3q8 6 12 7q11 3 30 -9q1 -1 2 -1l9 -6 q3 -2 14 -11q62 -50 104 -64zM202 195q27 -2 29 -29q-2 -28 -29 -30q-28 2 -30 30q2 27 30 29zM217 166q-1 13 -15 14q-14 -1 -15 -14q0 -15 15 -15t15 15z" />
<glyph unicode="&#x30db;" d="M60 90l27 -13v-4q-6 -4 -16 -18q-3 -5 -5 -7q-13 -19 -31 -36q0 -1 -2 0t-6 4q-5 4 -9 6h-1q-7 2 -8 6q34 27 51 62zM173 72l18 19h2q29 -25 54 -52v-2l-22 -19h-2q-2 3 -6 8q-27 32 -44 46zM110 191l38 -2q0 -2 -2 -7q-2 -6 -2 -10v-32h39q24 0 48 1v-28q-8 0 -25 1h-25 h-37v-17v-52q0 -20 1 -37v-5v-1q-4 -9 -9 -13q-4 -3 -10 -5q-15 -6 -30 -5h-4q-3 13 -8 23q-3 6 -1 7h7q12 -1 17 0q9 4 9 13v71q0 -5 0 21h-44h-24q-17 -1 -25 -1v28q21 -1 44 -1h48q-1 17 -5 51z" />
<glyph unicode="&#x30dc;" d="M61 93h2l26 -14v-2q-5 -4 -11 -13l-6 -9q-7 -9 -22 -26q-8 -9 -12 -14q-3 -1 -8 3l-2 2q-3 2 -12 6q-2 1 -3 1v2q33 33 48 64zM169 77l19 15q21 -18 47 -55l-20 -17h-2q-5 7 -16 21q-17 24 -28 36zM179 173l12 11q6 -5 17 -15q5 -5 8 -7l-10 -14l-5 5q-14 14 -22 20z M203 197l12 12q16 -10 28 -23l-13 -13q-13 14 -27 24zM112 191h4q5 0 15 -1t15 -1q1 -2 -1 -5q-1 -1 -1 -2q-1 -5 -1 -10v-32h35q29 0 46 1v-30q-7 0 -21 1h-22h-38v-75v-9q3 -22 -4 -28q-5 -6 -17 -10q-14 -2 -26 -2l-8 25v2h16q13 1 14 18v79h-42h-26q-17 -1 -26 -1v30 q17 -1 50 -1h44q-2 29 -6 51z" />
<glyph unicode="&#x30dd;" d="M59 90h2l25 -12q2 -3 0 -5q-6 -4 -13 -15q-3 -4 -4 -6q-10 -14 -33 -36q-2 -1 -2 0l-24 15v3q27 20 49 56zM168 77l19 17q21 -16 51 -55q-12 -11 -20 -23h-2q-4 6 -13 17q-21 30 -35 44zM187 189q2 27 30 29q27 -3 29 -29q-1 -28 -29 -30q-29 2 -30 30zM232 188 q-1 15 -15 16q-16 -1 -17 -16q0 -15 17 -16q14 1 15 16zM112 189h3q7 0 21 -2q5 -1 8 -1q1 -3 -1 -10q-1 -4 -1 -7v-32q40 0 79 3l4 -29q-8 0 -24 1t-25 1h-34v-96q0 -20 -16 -27q-7 -4 -25 -4q-5 -1 -8 -1q-3 9 -6 17q0 1 -1 3q-4 5 -2 8h17q12 1 13 18v82h-37q-9 0 -27 -1 q-17 -1 -25 -1v29q15 0 45 -1q29 -1 44 -1v13q0 6 -1 18q-1 13 -1 20z" />
<glyph unicode="&#x30de;" d="M241 143v-2q-8 -4 -19 -16l-5 -5q-41 -46 -74 -72q14 -13 26 -28l-24 -18h-2q-39 45 -75 67l-1 1l21 19h2q15 -9 26 -19q4 -3 7 -5q31 26 63 66h-112q-9 0 -29 -1t-30 -1v30q15 -1 44 -1h76q33 0 66 1l6 6h2q17 -10 32 -22z" />
<glyph unicode="&#x30df;" d="M102 194h3q36 -10 69 -27l-12 -26l-2 -1q-36 17 -73 29l-1 1zM86 127h2q24 -7 70 -29q3 -2 5 -3l-15 -26q-37 19 -76 35l-1 1zM81 54h2q53 -17 99 -44h1q6 -2 7 -5q-2 -3 -7 -8q-9 -10 -13 -17l-3 2q-48 28 -100 46l-1 2z" />
<glyph unicode="&#x30e0;" d="M107 183h3q19 -5 37 -14v-3l-6 -5q-6 -3 -10 -16q-2 -6 -3 -8q-23 -60 -46 -99h1q5 0 8 1q47 3 92 12q-2 2 -5 6q-14 21 -24 30v2l19 15h2q29 -25 68 -78v-2l-18 -18q-1 0 -2 -2q-5 -3 -7 -3q-3 5 -10 15q-4 8 -7 12h-1q-42 -8 -126 -20l-24 -3q-1 0 -5 -1q-3 -1 -5 -2 q-1 -1 -4 -2q-2 0 -4 -1l-1 -1q-2 -3 -5 -2l-11 35l1 3h5q16 0 31 1h1q47 89 56 148z" />
<glyph unicode="&#x30e1;" d="M188 189h2l32 -16v-4q-5 -2 -8 -7t-8 -16q-3 -5 -4 -8q-10 -23 -25 -44q19 -15 38 -28l-18 -26h-2q-21 18 -36 28q-5 -7 -11 -13q-40 -46 -88 -68q0 -2 -1 0q-1 1 -3 2q-5 4 -14 11h-1q-6 1 -7 5q60 26 101 78l1 1q-7 5 -23 15q-15 10 -23 15l15 21q25 -12 49 -27 q28 43 34 81z" />
<glyph unicode="&#x30e2;" d="M91 170h64q11 0 34 2q11 1 17 1v-30q-8 0 -25 1h-26h-24v-40h37q11 0 33 1h33v-28h-32q-22 1 -33 1h-38v-40q1 -14 19 -15h25q12 0 39 2q-19 -2 3 0v-28q-12 -1 -21 -1h-23q-27 0 -39 3q-20 2 -26 11q-7 10 -7 21v47h-28h-25q-17 -1 -26 -1v28h28q20 -1 30 -1h21v40h-10 h-22q-15 -1 -23 -1v30q5 0 15 -1q20 -2 30 -2z" />
<glyph unicode="&#x30e3;" d="M86 180h28q1 -3 -2 -7v-4q0 -6 2 -19q2 -8 2 -12q1 -1 1 -2q1 -1 1 -2q11 2 36 6l18 3q21 1 30 8h4q11 -7 21 -16v-2q-7 -3 -14 -13q-1 -3 -2 -4q-17 -26 -37 -49h-2l-17 12q21 20 35 46v2q-35 -9 -68 -15q3 -21 8 -43q4 -30 11 -60l-26 -4q-6 51 -16 102q-2 0 -2 -1 q-24 -2 -48 -8l-1 -1q-4 -2 -8 -2l-11 24v3h7h1q24 3 57 8q0 3 -2 8q-1 7 -1 10q-3 17 -5 32z" />
<glyph unicode="&#x30e4;" d="M111 194l-2 -11v-1v-5v-1l3 -18q3 -16 5 -24q38 6 75 14q2 1 6 2q11 2 15 5q2 1 3 2h2q17 -7 31 -16v-4q-7 -4 -17 -19q-2 -3 -3 -5q-24 -37 -43 -57l-2 -1l-12 6q-8 3 -12 5v3q10 9 19 21q14 17 25 36q-12 -3 -37 -8l-45 -9q12 -62 26 -123l-28 -7h-2q-12 68 -24 125 q-2 -1 -7 -2q-32 -6 -72 -18l-8 32q29 2 82 12q0 6 -2 9q-1 3 -2 10q-6 29 -11 44z" />
<glyph unicode="&#x30e5;" d="M87 148h81q6 0 5 -2l-7 -89h27q12 0 26 1v-25q-5 0 -15 1h-13h-126h-13q-10 -1 -15 -1v25q14 -1 26 -1h79l6 70h-61q-4 0 -11 -1h-9v24q9 -2 20 -2z" />
<glyph unicode="&#x30e6;" d="M97 165h92l-12 -121q33 0 64 1v-32q-12 0 -36 1q-25 1 -38 1h-80q-13 0 -38 -1h-34v31q33 -1 68 -1h63l9 93h-66h-42v29q24 -1 50 -1z" />
<glyph unicode="&#x30e7;" d="M89 159h101q1 -18 1 -55q0 -59 3 -89h-25v14h-80q-4 0 -12 -1h-11v20q11 -1 23 -1h80v37h-80h-23v20q11 -1 23 -1h80v34h-80h-27v25q3 0 9 -1q12 -2 18 -2z" />
<glyph unicode="&#x30e8;" d="M112 169h94v-144q0 -16 2 -29h-32v11h-65q-10 0 -31 -1t-32 -1v31q31 -2 62 -2h66v42h-77q-11 0 -34 -2q-11 -1 -17 -1v32q8 0 5 0q32 -2 49 -2h74v40h-84h-21q-15 -1 -23 -1v28h32q22 -1 32 -1z" />
<glyph unicode="&#x30e9;" d="M88 186h76q18 0 38 2v-31q-6 0 -20 1q-13 1 -20 1h-64q-8 0 -23 -1q-14 -1 -21 -1v31q16 -2 34 -2zM80 127h115q1 0 3 2q3 2 4 1q16 -7 25 -18v-4l-6 -4q-6 -4 -11 -18q-2 -3 -2 -4q-1 -2 -3 -5q-11 -19 -18 -28q-11 -15 -23 -27q-30 -28 -66 -44q-1 -2 -3 0q-3 3 -11 8 q-9 7 -13 11v2q86 33 115 101h-104q-8 0 -26 -1t-27 -1v31q26 -2 51 -2z" />
<glyph unicode="&#x30ea;" d="M93 172v-67q0 -8 1 -24q1 -17 1 -26h-29q0 7 1 21v21v55v18q-1 12 -1 19q15 -1 32 -1q0 -3 -3 -8q-2 -5 -2 -8zM187 177v-44q0 -36 -7 -73q-6 -35 -26 -60q-14 -16 -29 -31q0 -2 -2 0q-1 1 -3 2q-4 3 -15 8h-1q-6 2 -7 6q24 17 35 30q25 30 25 84v64q0 10 -2 31 q2 -15 0 3q18 -1 35 -3q0 -3 -1 -8q-2 -6 -2 -9z" />
<glyph unicode="&#x30eb;" d="M59 169h3h15q10 -1 15 -1v-8q-1 -6 -1 -9v-11q0 -9 -2 -26q-1 -9 -1 -13v-2q-4 -23 -8 -34q-14 -41 -49 -65q0 -1 -2 0q-10 8 -23 15l-1 2q31 17 44 45q14 27 14 65v9q0 20 -4 33zM152 157v-111q0 -2 1 -2q27 10 70 48q10 9 15 13l13 -23q-28 -31 -84 -64q-3 -2 -8 -5 q-14 -7 -17 -13q-6 0 -9 4q-1 2 -4 5q-2 2 -9 11q-1 1 0 3q5 18 5 37v92q0 11 -1 23q5 0 15 -1q11 0 16 -1q0 -3 -1 -8q-2 -5 -2 -8z" />
<glyph unicode="&#x30ec;" d="M37 173l37 -6q0 -2 -2 -6q-3 -4 -3 -7v-115h2q30 8 70 31q39 23 73 55l7 -25v-2q-44 -44 -112 -74q-2 -1 -7 -3q-16 -7 -24 -12q-11 -3 -17 -10h-2l-24 25v1q2 5 3 9t1 7v112q0 9 -2 20z" />
<glyph unicode="&#x30ed;" d="M207 159v-104q0 -29 2 -55h-31v15h-99v-15h-32q2 28 2 58v101h158zM79 41h99v92h-99v-92z" />
<glyph unicode="&#x30ee;" d="M51 167h128q1 0 3 1q4 2 5 1q5 -2 14 -9q3 -2 5 -3v-3q-6 -9 -7 -18q-2 -6 -4 -18q-3 -16 -6 -24q-3 -14 -15 -33q-20 -35 -53 -56l-19 15v2q32 17 52 47q19 31 24 77h-106v-33q0 -12 1 -23h-23v11q1 8 1 12v54z" />
<glyph unicode="&#x30ef;" d="M36 180h148l11 3h2l22 -14q2 -2 0 -6q-1 -6 -4 -11q-3 -28 -9 -55q-9 -30 -19 -45q-20 -39 -64 -72h-1l-22 18v2q49 33 66 69q21 41 21 84v4h-125l1 -75h-27v98z" />
<glyph unicode="&#x30f0;" d="M78 148h63v1q-2 23 -5 42q0 1 -1 3q0 5 -2 7h39q1 -3 -3 -8q-2 -4 -2 -6v-38v-1h21q7 0 21 2q7 1 11 1v-29h-52l-1 -1q0 -7 1 -22v-22h1h39q18 0 36 2v-32h-74l-1 -1q0 -9 1 -27q2 -30 2 -47h-32q0 23 2 69q0 -3 0 5l-1 1q-64 -2 -129 -5v34h43v1v44h-6q-13 -1 -18 -1v31 q5 0 16 -1q20 -2 31 -2zM132 77h10q2 22 0 44v1h-60v-1v-44v0h50z" />
<glyph unicode="&#x30f1;" d="M196 175l20 -16q2 -1 1 -4v-1q-7 -3 -15 -15q-3 -4 -5 -6q-16 -23 -36 -41l-20 10v-1q-1 -1 -1 -2v-64h43q27 0 56 2v-32q-9 0 -26 1q-18 1 -27 1h-110q-9 0 -29 -1t-30 -1v32q31 -2 61 -2h35v58q0 6 -1 17q-1 2 -1 4q6 0 16 -1q9 -1 15 -2q15 12 31 34h-92q-6 0 -17 -1 t-17 -1v30q25 -1 49 -1h42q24 0 47 1q1 0 3 1q7 2 8 1z" />
<glyph unicode="&#x30f2;" d="M219 158v-1l-5 -5q-3 -5 -4 -15q-1 -6 -2 -8q-19 -70 -53 -102q-36 -33 -92 -45h-2q-5 9 -15 18l-2 2q-5 3 -4 6q55 2 97 42q18 16 28 40h-75h-26q-18 -1 -27 -1v26q18 -1 37 -1h101q1 6 4 16q2 11 3 16h-100q-7 0 -21 -1t-21 -1v29q21 -1 40 -1h70q18 0 34 1q1 0 4 1 q2 2 4 1l12 -6t12 -7q3 -2 3 -4z" />
<glyph unicode="&#x30f3;" d="M97 133l-18 -18h-2q-22 24 -48 44l19 16h3q18 -14 46 -40v-2zM217 143l12 -27v-1q-51 -52 -160 -111l-6 -3q-10 -3 -12 -8h-3q-6 7 -16 24q-3 6 -5 9v2q14 1 33 9q83 31 157 106z" />
<glyph unicode="&#x30f4;" d="M223 169l-13 -10l-5 5q-13 13 -21 19l13 11q15 -11 26 -25zM244 194l-13 -11l-4 4q-11 12 -19 17l11 11q2 -2 6 -5q13 -9 19 -16zM127 185v-28h50q1 0 6 1q4 2 5 1l27 -18v-4q-7 -4 -8 -16q-15 -47 -29 -69q-18 -31 -52 -57q-12 -12 -27 -20q-2 -2 -2 0q-3 1 -8 4 q-12 8 -20 11v3q88 43 107 137h-135v-64h-29q0 12 1 35v34v22h85v16q0 5 -2 17q-2 7 -2 11q19 0 38 -1q0 -2 -2 -6q-3 -6 -3 -9z" />
<glyph unicode="&#x30f5;" d="M74 141h47v3q2 12 2 25v9q15 -1 29 -3q0 -3 -3 -7q-2 -2 -2 -4q-1 -5 -2 -13q-1 -5 -1 -7v-3h34q17 0 33 1v-12q0 -9 -2 -27q-1 -9 -1 -13q-1 -23 -8 -44q-6 -17 -14 -23q-12 -10 -36 -10h-6l-3 22q7 -1 13 -1h4q9 0 15 7q5 6 9 21q5 18 5 46v11h-46l-1 -1 q-14 -63 -76 -105l-19 16q55 30 72 89l-1 1h-42h-10q-7 -1 -11 -1v24q11 -1 21 -1z" />
<glyph unicode="&#x30f6;" d="M102 183l24 -10q1 -3 -2 -8q-2 -3 -2 -4l-3 -6q-2 -3 -5 -10q-2 -6 -5 -12h82q16 0 31 1v-24h-15q-10 1 -16 1h-23q-3 -34 -15 -54q-16 -31 -51 -56q0 -1 -1 0l-20 13v2q57 35 64 95h-50q-18 -25 -46 -42l-15 15v2q52 32 67 97h1z" />
<glyph unicode="&#x3105;" d="M104 198q1 7 8 3q11 -9 17 -21q0 -4 -6 -6q-4 -1 -24 -27q-19 -25 -28 -34q55 10 107 23q3 2 7 2q25 -13 30 -26q0 -3 -4 -5q-6 -4 -9 -10q-46 -113 -82 -111q-3 0 -3 3q0 2 1 10q-2 9 -20 27q-3 2 -4 3q-1 7 7 8q20 -15 27 -17q31 9 52 84q3 13 -19 11q-62 -7 -95 -22 q-1 0 -5 -3t-6 -3q-23 19 -9 27q49 35 58 84z" />
<glyph unicode="&#x3106;" d="M49 -11q-6 2 -2 8q47 13 86 50q-24 21 -52 38q-3 3 -2 6q2 3 6 2q35 -15 61 -31q23 26 31 58q1 4 -2 5q-49 -5 -80 -17q-2 -2 -8 -5q-11 6 -13 22q33 20 46 64q-5 14 4 14q15 -9 21 -21q1 -5 -10 -9q-7 -7 -16 -21q-11 -18 -21 -27q69 12 80 20q1 1 3 1q17 -5 30 -24 q0 -4 -7 -8q-5 -2 -6 -4q-15 -35 -36 -58q23 -15 33 -26q15 -16 13 -29q-6 -15 -20 -3q-19 21 -42 42q-38 -34 -97 -47z" />
<glyph unicode="&#x3107;" d="M67 171h7q36 0 93 13q1 0 4 1q4 2 7 2q16 -5 33 -25q0 -2 -3 -6q-4 -5 -4 -9v-5q0 -9 1 -27q2 -34 2 -53v-40q-1 -22 -11 -26q-15 4 -17 16q0 3 2 11q5 23 5 54v37q0 41 -7 48q-5 9 -35 1q-5 -1 -17 -4q-34 -8 -40 -8h-2q-4 1 -7 4q0 -3 -1 -7q-1 -9 -1 -14v-41 q0 -33 -3 -65q0 -30 -10 -32q-16 8 -18 19q0 3 3 12q13 34 13 82v11q1 29 -11 55q-1 3 4 4q5 -1 13 -9v1z" />
<glyph unicode="&#x3108;" d="M73 160v-7q0 -6 -1 -18v-17q-1 -34 -1 -95v-6q-1 -4 4 -4q45 0 93 12q6 1 20 1q11 -2 18 -14q5 -11 -5 -12q-4 0 -12 1q-20 2 -29 2h-10q-20 0 -72 -7q-14 -2 -15 -2q-10 4 -15 15q0 1 1 6q8 30 8 51v42q-1 49 -9 70q1 2 4 2q6 -1 12 -6q45 3 90 17q8 4 14 4 q13 -3 17 -12q2 -9 -11 -10q-50 -3 -85 -13q-4 -1 -5 -1q-4 0 -12 5q1 -2 1 -4z" />
<glyph unicode="&#x3109;" d="M135 104q3 -4 1 -7q-1 -2 -4 -4q-3 -1 -3 -2q-1 -2 -3 -7q-30 -69 -84 -89q-7 -3 -6 2q0 3 -2 3q66 37 72 112q-17 -2 -23 -4q-4 -2 -10 -6q-6 -5 -9 -5q-4 2 -11 12q-5 8 -2 9q30 17 50 59q2 6 4 17q1 6 2 8q1 3 5 2q21 -16 20 -26q-2 -2 -5 -3q-4 -1 -7 -4 q-2 -3 -9 -11q-21 -28 -32 -38q12 2 34 6q41 6 63 11q1 0 3 1q8 2 12 2q13 -3 31 -21q0 -4 -6 -10q-4 -6 -15 -37q-31 -87 -56 -84q-2 0 -3 5q0 4 -1 5q-1 8 -23 22l-2 1q-3 5 3 8q2 -1 7 -3q14 -6 20 -6q26 5 43 88q2 12 -14 12q-19 -1 -53 -7q5 -3 13 -11z" />
<glyph unicode="&#x310a;" d="M41 114h2q19 -1 68 7q6 26 5 47q0 10 -4 19q-1 2 -1 3v1q-1 4 3 4q25 -4 33 -19q0 -2 -3 -5t-4 -6q-2 -17 -8 -41q15 2 39 7q6 2 8 2t6 1q5 2 7 2q16 -3 24 -19q-1 -7 -5 -8q-4 0 -13 1q-8 1 -13 1h-12q-12 0 -34 -2q-7 -1 -11 -1q-15 -55 -35 -92h3q26 3 74 13 q-4 6 -12 16q-5 6 -7 9q-2 5 4 6q51 -28 51 -51q-1 -10 -15 -13q-4 0 -8 9q0 3 -1 4l-3 6q-2 3 -3 5q-39 -8 -76 -21q-2 -1 -6 -5q-6 -6 -8 -6q-12 6 -20 21q23 13 42 95q-14 -2 -34 -7q-11 -3 -13 -3q-15 7 -20 20z" />
<glyph unicode="&#x310b;" d="M49 188q4 0 15 -1h5q37 0 91 12q17 -1 29 -16q0 -6 -3 -7q-8 -1 -17 -8q-12 -11 -42 -46l-6 -6q41 5 54 12q2 1 3 1q15 -6 29 -24q3 -3 0 -6q0 -3 -6 -5t-8 -6q-53 -100 -81 -98q-7 0 -7 3q3 10 -19 33q-5 5 -3 7q2 3 8 0q3 -2 8 -6q9 -7 17 -12q22 -5 61 82q5 15 -7 14 q-23 0 -44 -11q-6 -3 -8 -3q-15 3 -19 14q0 2 6 8l1 1q36 35 45 58v3q1 1 -1 0q-47 -6 -72 -14q-7 -2 -10 -2q-21 9 -19 23z" />
<glyph unicode="&#x310c;" d="M78 100l-1 -1q-5 -6 -9 -6q-13 6 -17 17q0 2 4 4q3 2 4 3q21 32 18 69q2 4 6 4q16 -9 23 -18q0 -3 -1 -5q-12 -2 -27 -50q7 1 29 5q15 2 22 3q8 28 7 55q0 1 -1 7q-2 7 -2 10q2 3 5 4q17 -7 28 -16q2 -1 0 -7q-1 -1 -3 -4l-3 -3q-3 -21 -10 -41q13 2 25 6q2 0 4 1 q4 2 6 2q23 -11 29 -24q0 -5 -7 -8q-4 -2 -5 -4q-1 -5 -4 -18q-20 -95 -56 -98q-11 -2 -10 9q-3 10 -14 20q-6 6 -6 8q-1 6 5 5q2 -1 7 -5q13 -9 18 -9q28 -2 42 97q0 7 -7 7q-16 -3 -33 -5q-34 -84 -95 -120q-3 -2 -6 0q-2 4 0 6q52 37 81 111q-39 -5 -46 -11z" />
<glyph unicode="&#x310d;" d="M113 189q17 -8 21 -19q0 -4 -4 -5q-4 -2 -24 -28q-31 -40 -48 -56q15 -15 38 -35q34 -27 31 -44q-1 -8 -12 -10q-6 0 -15 11q-1 1 -1 2q-17 31 -54 75v2q47 52 63 101q-1 6 5 6zM126 89v2q56 56 57 87q1 6 7 6q14 -9 21 -23q0 -4 -5 -5q-5 -2 -7 -5q-25 -34 -59 -62 q71 -57 71 -81q1 -11 -13 -14q-5 0 -12 9q-25 51 -60 86z" />
<glyph unicode="&#x310e;" d="M45 176h11q32 0 113 17q22 4 24 4q11 -1 19 -11q6 -7 -3 -10h-2q-8 2 -18 2q-19 -1 -67 -9q9 -7 12 -13v-3q0 -2 -7 -8l-2 -1q-2 -2 -22 -31q1 2 -3 -4q4 1 12 2q30 3 46 10q1 0 3 1q3 2 5 2q23 -8 31 -21q0 -3 -4 -5q-3 -2 -4 -4q-2 -3 -7 -16q-41 -94 -67 -92 q-2 0 -3 4t-2 6q0 1 -1 2q-3 7 -20 18q-3 8 4 8l1 -1q11 -8 22 -10q26 4 52 84q1 7 -5 6q-43 -3 -55 -10q-1 0 -7 -4q-9 -4 -10 -4q-9 3 -16 17q0 2 3 5l1 1q16 11 29 44q1 3 2 11q1 3 1 5q-17 -2 -42 -6l-11 -2q-21 9 -13 16z" />
<glyph unicode="&#x310f;" d="M86 178l5 1q50 1 97 14q8 2 10 2q10 -2 20 -12q5 -9 -3 -11q-5 -2 -22 1h-3q-28 -1 -74 -8q-1 0 -4 -1q-5 -2 -9 -2q-4 1 -9 4l-1 -2q1 -131 -49 -168q-3 -2 -6 0q-2 2 -1 4q37 32 36 131v4q1 29 -4 48q2 2 3 2q7 0 14 -7z" />
<glyph unicode="&#x3110;" d="M180 156v-151q-2 -10 -8 -11q-11 6 -15 17q0 1 1 5q6 18 6 42v16q-3 -1 -10 -4q-52 -23 -58 -28q-2 -1 -5 -5q-4 -5 -7 -5q-11 7 -16 18q0 3 4 7q4 5 5 9q4 20 5 67q0 14 -4 21q-1 3 -1 5q1 2 4 2q21 -6 22 -17q0 -1 -2 -4q-3 -5 -4 -11q-1 -11 -3 -36q-3 -28 -3 -33 q12 4 36 11q25 7 37 12v80q0 15 -5 27q-2 4 -2 6q1 4 4 4q26 -7 27 -16q0 -2 -2 -5q-7 -9 -6 -23z" />
<glyph unicode="&#x3111;" d="M59 77v3q76 70 79 113q1 0 2 1q2 2 4 1q14 -11 20 -24q1 -3 -2 -6l-4 -2q-3 -1 -5 -3q-44 -52 -79 -80q9 -5 32 -15q94 -40 91 -58q-1 -17 -18 -13q-3 3 -8 7q-28 29 -112 76z" />
<glyph unicode="&#x3112;" d="M137 119v-40q0 -18 3 -64l1 -8q-1 -8 -8 -10q-12 7 -18 26q0 2 1 5q7 19 7 64v69q-33 -4 -55 -9q-1 0 -3 -1q-5 -3 -8 -3q-10 4 -16 18q2 1 3 1q44 0 133 18q2 0 5 1q7 2 10 2q11 -1 20 -11q8 -10 -1 -12q-4 -1 -11 1q-10 1 -16 1q-9 0 -42 -3q2 0 -5 -1q-1 -10 0 -30 v-14z" />
<glyph unicode="&#x3113;" d="M126 58v5q-30 -3 -35 -10q-5 -5 -8 -5q-11 5 -16 19q0 1 2 3q6 5 6 13v41q0 12 -8 32q-2 6 -2 7q16 5 29 -10q0 -2 -2 -5q-4 -5 -3 -10v-65q19 0 37 3v74q0 20 -6 36q-2 3 -2 5q-1 4 0 5l1 1q18 0 31 -15q-5 -7 -6 -12q-2 -37 -3 -68v-23q9 1 29 4q-13 -2 5 1q3 0 6 -4 q1 5 1 8q2 15 2 48q0 9 -4 18q-1 2 -1 3q0 5 4 5q23 -8 24 -16v-1l-1 -2q-6 -6 -6 -11q-3 -70 -10 -81h-3q-1 1 -3 4q-6 9 -6 14q-8 -1 -29 -2q4 0 -8 -1v-10q0 -7 1 -20v-21q27 3 54 8h7q12 0 20 -11q6 -11 -5 -12q-3 0 -12 1q-13 2 -19 2q-35 0 -120 -11q-17 -2 -19 -2 q-18 7 -15 14q15 2 46 4q29 3 43 4q4 23 4 46z" />
<glyph unicode="&#x3114;" d="M151 198h2q19 -15 20 -23q0 -3 -7 -4q-5 -1 -6 -3q-40 -46 -93 -74q-5 -3 -8 0q-2 4 2 6q61 42 84 85q1 1 1 4q1 6 5 9zM160 69v-37q0 -39 -8 -44q-12 3 -17 19q0 1 2 4q5 11 5 21v35v11q-47 -38 -85 -51q-6 1 -3 7q80 39 125 118v2q2 7 6 7q12 -7 18 -18q2 -3 0 -5 q0 -2 -5 -3q-4 -2 -5 -3q-15 -21 -40 -44q7 -3 10 -7q3 -3 -2 -10q-1 -1 -1 -2z" />
<glyph unicode="&#x3115;" d="M184 175q2 10 -4 9q-32 -1 -90 -11q-12 -2 -13 -2q-14 6 -19 22q1 0 2 1h1q76 -4 128 12q23 -10 27 -22q-1 -2 -4 -4q-12 -8 -18 -39q-5 -17 -13 -21q-5 2 -6 6q-14 -1 -40 -8q-18 -5 -23 -5q-5 1 -11 4q-1 -84 -53 -129q-3 -2 -6 0q-3 3 -1 6q40 45 39 114q0 7 -3 20 q-1 5 -1 7q3 7 20 -8q16 1 50 10q12 3 14 3q4 0 14 -6q1 7 5 19q4 14 5 22z" />
<glyph unicode="&#x3116;" d="M189 161v-31q0 -14 1 -78q1 -21 1 -23q-1 -23 -13 -27q-5 1 -9 9h-8q-12 3 -49 -4q-15 -2 -19 -2q-2 0 -7 5q-3 2 -4 3q-1 2 -3 2v-1q-1 -13 -6 -16q-11 3 -14 19q0 2 1 5q9 20 9 79v37q0 10 -4 29q-2 9 -2 11q0 3 3 2t8 -6q79 9 96 21q22 -7 28 -18q0 -2 -4 -6 q-6 -5 -5 -10zM107 119q0 2 4 4h1q34 -23 35 -37q-5 -23 -18 -13q-6 19 -17 37q-5 7 -5 9zM79 24h10q21 -2 61 6l5 1q5 0 12 -5q0 3 2 10q5 27 4 40v45q1 26 -2 42q-3 9 -13 8q-17 0 -70 -12l-5 3v-19q1 -50 -4 -114v-5z" />
<glyph unicode="&#x3117;" d="M107 119v-103q-2 -18 -9 -23q-10 7 -12 19q0 3 1 14q4 29 4 56v42q0 26 -3 39h-2q-5 -1 -12 -3t-9 -2q-13 4 -17 19q0 1 2 1q68 2 116 16q2 0 4 1q5 2 7 2q23 -9 31 -24q0 -3 -4 -6q-5 -3 -5 -5q-25 -92 -50 -93q-3 0 -5 6q-1 3 -2 5v1q-3 5 -20 15q-6 3 -6 7q1 4 6 5 q3 -1 8 -4q13 -6 16 -6q21 -1 32 69q2 8 -11 9q-14 0 -69 -11q12 -11 13 -19q0 -2 -1 -4q-3 -8 -3 -23z" />
<glyph unicode="&#x3118;" d="M213 120h-19q-32 1 -58 -5q-6 -24 -12 -50v-3q8 2 23 5q13 4 19 5l2 1q7 4 9 4q12 -5 21 -17q1 -1 1 -3v-1q0 -3 -7 -6q-3 -1 -4 -2t-7 -11q-21 -34 -31 -43q-4 -4 -7 -3q-4 3 -2 7q12 15 24 47q3 11 -4 10q-30 -2 -40 -10q-2 -1 -5 -3q-7 -5 -9 -5q-9 3 -13 16q0 3 4 7 q8 6 11 15q3 7 10 37q-32 -8 -47 -14l-2 -1q-6 -2 -10 -2q-5 0 -18 17l-1 2q-1 1 -1 2t2 1q10 -1 63 7q11 2 17 3q6 34 6 46q0 9 -4 19q-1 2 -1 3q0 4 2 4h2q32 -7 32 -13q0 -3 -1 -4q-1 -2 -4 -4t-3 -3q-2 -7 -5 -22q-4 -15 -6 -23q11 2 29 6q10 2 14 3q1 0 4 1q5 2 8 2 q9 -1 18 -11q7 -9 0 -11z" />
<glyph unicode="&#x3119;" d="M115 191q5 4 17 -10q12 -12 8 -20q-1 -2 -5 -9l-3 -6l-35 -60q-28 -47 -36 -60q39 4 93 10q22 1 22 2q-2 8 -11 29q-4 10 -5 13t0 4q2 1 5 0q22 -16 41 -54q14 -33 -8 -36q-11 0 -14 19q-1 8 -3 10q-35 -5 -92 -13q3 0 -6 -1q-3 -1 -11 -4q-12 -5 -16 -3q-13 9 -17 24 q0 5 9 14l1 1q26 32 62 111q3 11 2 21q-2 13 2 18z" />
<glyph unicode="&#x311a;" d="M140 113l-2 -44v-57q-2 -17 -10 -20q-12 6 -15 17q0 2 3 13q6 21 6 32l1 55q-1 15 -7 20q-10 11 -58 43q-11 7 -3 19q7 6 19 -2q8 -5 39 -40q18 -19 19 -19q31 29 44 51q3 4 5 10q1 6 4 6q13 -3 23 -21q0 -4 -5 -5q-4 -1 -6 -3q-9 -8 -24 -20q-40 -33 -33 -35z" />
<glyph unicode="&#x311b;" d="M138 153v-17q0 -8 3 -19q2 -6 2 -8q-1 -5 -10 -9q-1 0 -3 1q-5 1 -13 1q-42 -2 -44 -46q3 -43 49 -47q32 -3 45 20q4 7 11 3q5 -4 1 -12q-16 -29 -57 -28q-61 5 -65 65q4 57 66 60v8q1 30 -4 45q-20 -1 -28 -3q-2 0 -10 -2q-17 -3 -21 -3q-9 3 -19 16q0 1 1 2v1 q77 2 131 12q2 0 7 2q9 2 14 2q10 -1 19 -13q5 -10 -5 -10q-1 0 -4 1q-9 1 -14 1q-14 0 -58 -4q10 -6 10 -9t-2 -7q-2 -2 -2 -3z" />
<glyph unicode="&#x311c;" d="M125 103v8v25q-20 -2 -50 -7q-15 -3 -18 -3q-10 3 -17 15q0 5 5 5q34 -3 79 5q0 15 -2 32q0 3 -4 13l-1 4q0 5 12 2q15 -4 16 -9q0 -2 -2 -6q-3 -3 -3 -6q0 -6 -1 -16v-12h3q11 1 26 4q4 0 12 2q7 1 10 1q21 -4 26 -19q-1 -5 -5 -5q-3 0 -8 1q-14 2 -27 2q-19 0 -36 -1 q1 -24 4 -38q1 -2 1 -3q-1 -9 -10 -11h-5q-8 1 -12 1q-37 -2 -39 -37q3 -39 47 -42q25 -1 36 11q6 9 9 4q3 -6 -2 -15q-17 -20 -46 -22q-55 7 -61 60q4 53 63 57z" />
<glyph unicode="&#x311d;" d="M107 103v-44q-2 -50 38 -47q10 0 22 2q3 1 5 1q13 -3 19 -15q3 -7 -27 -7q-47 -1 -61 17q-14 16 -12 73v18q-1 0 -4 -1q-3 0 -5 -1q-10 -1 -22 -5q-6 -2 -8 -2q-15 7 -17 17q14 1 39 4q11 1 17 2v54q1 5 -3 14q-1 3 -1 4q0 6 3 6q20 -4 26 -13v-2q0 1 -1 -2q0 -1 -2 -3 q-6 -7 -6 -23v-33q34 6 48 8q3 21 3 41q-1 9 -4 24q0 5 3 5q14 -2 27 -11q1 -1 1 -4q0 -1 -3 -4q-3 -4 -4 -6q-2 -23 -6 -42q17 4 29 4q11 -2 19 -13q4 -9 -7 -11q-4 0 -15 3q-7 1 -8 1h-10q-8 -1 -12 -1q-13 -49 -27 -74q-5 -4 -7 2q11 31 18 70q-32 -4 -45 -6z" />
<glyph unicode="&#x311e;" d="M79 160l3 2q13 -7 18 -17q2 -2 -1 -5q-1 -2 -5 -4q-3 -1 -3 -2q-2 -3 -5 -10q-7 -14 -13 -22l10 1q27 4 39 6q8 29 10 65q-22 -3 -52 -9q-8 -2 -9 -2q-17 5 -18 21h14q67 1 110 14q6 2 8 2q9 -3 18 -14q6 -9 -1 -11q-12 1 -29 2q-15 0 -30 -1q2 -1 5 -3q14 -10 13 -14 q0 -2 -2 -4q-6 -5 -8 -16q-1 -4 -4 -13q-2 -9 -4 -14q27 5 34 7q2 0 5 2q4 2 6 2q11 -4 24 -19q1 -1 1 -3v-1q0 -3 -4 -5q-4 -3 -6 -7q-13 -45 -50 -87q-13 -8 -16 -2q37 43 45 94q-1 11 -9 10q-6 0 -27 -3q-5 -1 -8 -1q-35 -85 -86 -106q-5 1 -3 6q44 29 69 96 q-40 -6 -46 -9q-3 -1 -9 -5q-5 -4 -7 -4q-9 5 -13 19q0 4 5 7q17 6 29 41q1 2 1 8q1 6 1 8z" />
<glyph unicode="&#x311f;" d="M38 177q0 4 8 3q63 5 74 13q1 0 2 2q3 2 5 2q20 -7 28 -17v-1q1 -2 -1 -4l-3 -3q-7 -4 -7 -8q-6 -89 65 -148q8 -7 9 -9q-3 -18 -27 -9q-63 52 -62 170q0 11 -8 10q-18 -3 -48 -12q-16 -4 -18 -4q-13 6 -17 15z" />
<glyph unicode="&#x3120;" d="M76 95l55 -2q37 48 35 60q2 4 5 3q18 -13 22 -23q0 -2 -3 -5q-1 -1 -6 -3q-6 -2 -7 -3q-58 -69 -97 -106q24 5 69 16q15 3 22 5l-3 6q-3 5 -7 11q-6 10 -6 13q2 4 9 -1q44 -38 46 -56q0 -11 -12 -14q-11 0 -14 12q-1 3 -4 11q-3 6 -4 9q-91 -27 -108 -40q-2 -1 -5 -1 t-16 23q-1 4 1 6q1 1 7 3q9 3 13 5q19 16 54 58q-7 -1 -17 -2q-23 -2 -43 -9q-9 3 -15 23q0 4 7 6q10 3 15 8q53 54 53 83q0 2 4 6q14 -6 23 -19q1 -3 -1 -5t-7 -4l-1 -1q-1 -2 -5 -6q-38 -47 -59 -66q-2 -1 0 -1z" />
<glyph unicode="&#x3121;" d="M56 181h12q64 1 89 16q4 2 5 2q26 -13 26 -22q0 -3 -4 -5l-2 -2q-1 0 -3 -3q-10 -41 -30 -76q59 -61 60 -81q-3 -10 -11 -11q-8 0 -18 14l-1 1q-18 31 -41 58q-27 -39 -66 -68l-1 -1q-16 -9 -22 -6q-2 2 0 3q43 28 77 87q-28 33 -49 54q-6 5 -5 9t6 2q26 -18 57 -47 q12 25 20 55q5 18 -13 13h-2q-56 -12 -70 -13q-11 4 -17 15q-3 6 3 6z" />
<glyph unicode="&#x3122;" d="M96 168h-1q-8 -2 -17 8q-11 12 -4 13h33q35 1 62 11l2 1q18 -5 30 -21q2 -3 -2 -7q-6 -3 -8 -5q-4 -5 -12 -19q-10 -18 -16 -25q-7 -5 -11 0q16 32 19 52v1q-2 6 -4 5q-18 0 -53 -10q-7 -2 -10 -3q14 -14 14 -22q0 -4 -5 -8q-4 -3 -6 -6l-15 -21q-11 -14 -14 -19l-3 -3 q-2 -3 -3 -5q58 5 92 13q3 1 8 4t7 3q21 -11 28 -22v-1q1 -1 -1 -3q-1 -2 -5 -4q-5 -2 -6 -5q-24 -53 -45 -74q-3 -4 -7 -3q-3 2 -2 7q21 37 28 66q0 1 1 3q4 14 -3 14q-63 -9 -82 -12q-5 -1 -13 -4q-4 -2 -5 -2q-9 2 -18 19q0 2 5 5q4 2 5 3q34 41 37 76z" />
<glyph unicode="&#x3123;" d="M58 198q-1 2 3 4q18 -5 30 -15q2 -2 2 -4v-1q0 -1 -4 -5q-3 -4 -4 -6q-2 -6 -8 -59q-1 -11 -1 -15q3 0 12 1q77 9 84 14q1 0 4 2q4 3 6 3q14 -7 26 -19q2 -3 0 -7q-1 -1 -4 -3t-5 -4q-23 -82 -37 -93q-7 -4 -7 2q18 51 20 87q1 12 -11 11q-61 -2 -89 -13q-1 0 -2 -2 q-2 -2 -4 -2q-11 3 -22 18q0 2 5 7t6 9q0 1 1 4q5 41 4 62q0 4 -4 20z" />
<glyph unicode="&#x3124;" d="M139 83v-51q-2 -22 23 -20q16 0 31 5q6 2 8 2q13 -3 17 -15q-2 -7 -36 -8h-34q-26 1 -26 22v63q1 10 -4 22q-1 1 -1 2q-16 -78 -72 -114q-4 -1 -6 0q-2 3 0 6q51 42 62 119q-18 -4 -37 -10l-4 -1q-20 8 -18 18q36 3 61 8q2 20 2 42q0 6 -3 19q-1 3 -1 4q1 5 3 5q1 0 3 -1 q27 -7 25 -13q0 -1 -3 -4q-2 -3 -3 -5q0 -23 -4 -44q23 4 46 10q8 2 9 2q14 -4 19 -15q1 -7 -14 -7q-24 1 -62 -5v-3q-1 -3 -1 -5q23 -4 28 -11q0 -4 -3 -7q-5 -4 -5 -10z" />
<glyph unicode="&#x3125;" d="M152 194q0 4 6 4q11 -6 25 -23q3 -3 -1 -7q-4 -1 -7 -4q-38 -62 -100 -146q52 2 102 8q5 1 6 1q10 -1 19 -12q8 -11 1 -15q-1 0 -3 1q-32 6 -62 5q-55 -2 -66 -9q-2 -2 -4 -3q-4 -3 -7 0q-9 12 -11 21q-1 4 1 5t4 3q4 2 6 4q57 63 91 150v17z" />
<glyph unicode="&#x3126;" d="M79 169q-1 5 2 6q26 -6 29 -15v-3q0 -1 -3 -4q-2 -3 -2 -4q4 -116 -60 -160q-3 -2 -6 0t0 5q51 46 48 139q-1 19 -7 32q-1 3 -1 4zM153 158v-92q1 -48 38 -51q3 0 7 1q2 1 3 1q11 -2 18 -13q0 -9 -18 -10q-62 3 -64 72v99q-1 10 -5 19q-2 4 -2 6q-1 4 4 5q18 -5 27 -17 q0 -3 -1 -5q-7 -7 -7 -15z" />
<glyph unicode="&#x3127;" d="M137 175v-127v-14q1 -12 0 -21q0 -24 -10 -24q-8 6 -14 30q0 2 2 5q4 6 4 11q0 9 1 23q1 34 1 61v49q0 13 -6 30q-2 5 -2 6q1 4 4 5q19 -5 26 -18v-2q1 -1 0 -2q-6 -7 -6 -12z" />
<glyph unicode="&#x3128;" d="M48 -7q-4 -1 -5 2q-2 2 1 4q46 36 80 87q-32 34 -71 66q-3 2 -2 4t5 2q32 -19 77 -57q33 55 33 97q-1 4 4 5q11 -4 25 -19q3 -2 0 -6v-1q0 -1 -2 -3q-4 -3 -6 -8q-12 -35 -39 -77q64 -56 66 -82q-1 -9 -10 -12q-8 -2 -13 6q-18 31 -55 72q-42 -54 -88 -80z" />
<glyph unicode="&#x3129;" d="M197 168v-24q0 -30 7 -95q2 -22 2 -26q-1 -18 -6 -25q-2 -3 -4 -2q-11 4 -15 20v2l-1 1q-3 0 -10 -1q-50 -7 -77 -13q-12 -2 -20 -8q-4 -3 -7 -3q-9 3 -16 19q-1 4 4 7l5 5q16 39 18 123q0 19 -6 31q-1 3 -1 4q-1 6 4 6q28 -10 30 -20q0 -2 -2 -4q-3 -3 -4 -7 q-7 -91 -24 -134q33 1 96 4q7 1 10 1v33q0 80 -7 106q-1 8 -11 19q0 5 3 7q26 -5 35 -13q1 -1 1 -3q0 -1 -2 -5q-2 -3 -2 -5z" />
<glyph unicode="&#x3220;" d="M62 206l4 -4q-51 -47 -53 -112q0 -71 53 -111l-4 -4q-54 42 -54 115q2 66 54 116zM190 202l4 4q53 -51 55 -116q0 -73 -55 -115l-3 4q53 41 53 111q-2 64 -54 112zM45 94h165v-5h-165v5z" />
<glyph unicode="&#x3221;" d="M62 206l3 -4q-51 -49 -53 -112q0 -71 53 -111l-3 -4q-55 42 -55 115q2 65 55 116zM190 202l4 4q52 -50 54 -116q0 -73 -55 -115l-3 4q53 40 53 111q-2 63 -53 112zM48 33h159v-5h-159v5zM61 152h134v-5h-134v5z" />
<glyph unicode="&#x3222;" d="M62 206l4 -4q-52 -48 -54 -112q0 -70 53 -111l-3 -4q-55 42 -55 115q2 65 55 116zM190 202l4 4q52 -50 54 -116q0 -73 -54 -115l-4 4q53 40 53 111q-2 65 -53 112zM49 29h159v-4h-159v4zM60 155h137v-4h-137v4zM67 96h123v-5h-123v5z" />
<glyph unicode="&#x3223;" d="M62 206l3 -4q-51 -49 -53 -112q0 -71 53 -111l-3 -4q-55 42 -55 115q2 65 55 116zM190 202l3 4q53 -49 55 -116q0 -73 -55 -115l-3 4q53 40 53 111q-2 63 -53 112zM62 30h132v126h-43v-63q-2 -21 18 -19h20v-5h-20q-24 -1 -23 24v63h-36v-34q4 -45 -36 -65l-2 4 q36 18 32 61v34h-42v-126zM199 161v-151h-5v15h-132v-15h-5v151h142z" />
<glyph unicode="&#x3224;" d="M62 206l3 -4q-51 -49 -53 -112q0 -71 53 -111l-3 -4q-55 42 -55 115q2 65 55 116zM190 202l4 4q52 -50 54 -116q0 -73 -55 -115l-3 4q53 40 53 111q-2 63 -53 112zM104 98l-12 -70h83v70h-71zM180 28h29v-4h-163v4h41l12 70h-43v5h44l9 51h-53v5h143v-5h-85l-9 -51h75 v-75z" />
<glyph unicode="&#x3225;" d="M62 206l4 -4q-52 -48 -54 -112q0 -70 53 -111l-3 -4q-55 42 -55 115q2 65 55 116zM190 202l4 4q53 -51 55 -116q0 -73 -55 -115l-4 4q53 40 53 111q-2 65 -53 112zM113 167l4 3l26 -39l-5 -2zM150 88l4 2q34 -46 50 -75l-5 -2q-19 32 -49 75zM101 90l5 -2 q-28 -50 -51 -77l-3 3q24 30 49 76zM48 122h159v-5h-159v5z" />
<glyph unicode="&#x3226;" d="M62 206l4 -4q-52 -48 -54 -112q0 -70 53 -111l-3 -4q-55 42 -55 115q2 65 55 116zM190 202l4 4q52 -50 54 -116q0 -73 -54 -115l-4 4q53 40 53 111q-2 65 -53 112zM194 65h5q-1 -4 -1 -11q-1 -7 -1 -11q-2 -27 -38 -25h-21q-35 -1 -34 32v51l-59 -7v5l59 7v66h5v-65 l101 13v-5l-101 -13v-52q-1 -28 29 -27h21q33 -2 33 21q0 4 1 10q0 7 1 11z" />
<glyph unicode="&#x3227;" d="M62 206l4 -4q-51 -47 -53 -112q0 -70 53 -111l-4 -3q-54 41 -54 114q2 66 54 116zM191 202l3 4q53 -51 55 -116q0 -73 -55 -114l-3 3q53 41 53 111q-2 65 -53 112zM101 171h5q-1 -24 -3 -43q-7 -69 -55 -112l-3 4q46 41 53 109q2 19 3 42zM150 172h5q0 -24 3 -43 q9 -70 53 -109l-4 -4q-45 42 -54 112q-3 19 -3 44z" />
<glyph unicode="&#x3228;" d="M62 206l4 -3q-52 -48 -54 -113q0 -70 53 -111l-3 -3q-55 41 -55 114q2 65 55 116zM190 203l4 3q53 -51 55 -116q0 -73 -55 -114l-4 3q54 41 54 111q-2 65 -54 113zM209 61h5q0 -11 -3 -24q-3 -17 -24 -17h-7q-20 0 -20 25v88h-51q-1 -52 -12 -73q-10 -22 -47 -46l-2 4 q34 22 44 44q11 20 12 71h-50v5h50l2 40h5l-2 -40h56v-93q0 -21 15 -20h7q18 0 20 13q0 2 1 9q1 11 1 14z" />
<glyph unicode="&#x3229;" d="M62 206l3 -3q-51 -49 -53 -113q0 -70 53 -111l-3 -3q-55 41 -55 114q2 65 55 116zM190 203l4 3q52 -50 54 -116q0 -73 -54 -114l-4 3q54 41 53 111q-2 64 -53 113zM208 109v-5h-78v-92h-5v92h-78v5h78v67h5v-67h78z" />
<glyph unicode="&#x4e00;" d="M10 98h236v-5h-236v5z" />
<glyph unicode="&#x4e01;" d="M14 185h228v-5h-97v-165q3 -35 -37 -33h-40v5h40q35 -2 32 28v165h-126v5z" />
<glyph unicode="&#x4e03;" d="M95 205h5v-94l145 19l1 -5l-146 -19v-75q-2 -40 44 -38h30q48 -2 47 29q1 13 3 30h5q0 -3 -1 -10q-1 -12 -2 -20q-1 -36 -52 -34h-30q-50 -1 -49 43v74l-83 -10l-1 5l84 10v95z" />
<glyph unicode="&#x4e07;" d="M13 182h229v-5h-151q0 -5 -1 -30q-1 -12 -1 -19l-1 -14h121l-3 -88q0 -41 -46 -38q-29 0 -38 1v5q10 -1 38 -1q41 -3 41 33l3 83h-116q-5 -85 -73 -132l-3 3q73 48 72 149q1 12 2 32q1 13 1 16h-74v5z" />
<glyph unicode="&#x4e08;" d="M61 126l5 1q20 -57 60 -88l4 4q29 29 29 97q0 4 1 7h-142v5h142q1 25 1 53h5q-1 -28 -1 -53h72v-5h-72q-1 -3 -1 -7q-1 -72 -34 -104q38 -29 115 -48l-1 -4q-79 19 -118 49q-28 -28 -111 -54l-1 4q79 25 108 53q-42 33 -61 90z" />
<glyph unicode="&#x4e09;" d="M15 0h226v-4h-226v4zM30 179h196v-5h-196v5zM40 94h176v-5h-176v5z" />
<glyph unicode="&#x4e0a;" d="M114 207h5v-85h103v-4h-103v-121h126v-4h-234v4h103v210z" />
<glyph unicode="&#x4e0b;" d="M12 180h232v-5h-125v-200h-5v200h-102v5zM133 112l2 4q32 -16 88 -47l-2 -5q-53 30 -88 48z" />
<glyph unicode="&#x4e0c;" d="M14 178h227v-5h-60v-195h-5v195h-92v-51q0 -58 -14 -86q-12 -29 -54 -57l-3 4q41 27 53 55q14 26 13 84v51h-65v5z" />
<glyph unicode="&#x4e0d;" d="M9 41q90 58 141 138h-128v5h216v-5h-82q-51 -83 -144 -142zM125 122h5v-147h-5v147zM155 103l2 4q59 -39 89 -61l-3 -4q-37 27 -88 61z" />
<glyph unicode="&#x4e0e;" d="M54 97l14 109l5 -1l-6 -44h171v-5h-172l-6 -54h162l-4 -78q-2 -42 -43 -39q-29 0 -44 1v5q16 -1 44 -1q38 -4 38 35l4 72h-163zM13 50h178v-4h-178v4z" />
<glyph unicode="&#x4e10;" d="M35 77l10 78l5 -1l-10 -73h86v102h-105v5h216v-5h-106v-49h89v-5h-89v-48h91l-5 -64q-1 -37 -47 -35h-46v5q13 -1 46 -1q42 -2 42 31l5 60h-182z" />
<glyph unicode="&#x4e11;" d="M29 92h53l9 85h-61v5h181l-8 -184h42v-4h-234v4h61l10 90h-53v4zM87 88l-10 -90h121l4 90h-115zM206 177h-110l-9 -85h115z" />
<glyph unicode="&#x4e13;" d="M12 119h69q8 21 15 43h-67v4h69q6 21 12 41l5 -2q-6 -18 -12 -39h125v-4h-127q-3 -11 -10 -31q-4 -8 -5 -12h157v-5h-159q-10 -26 -17 -42h147v-5q-41 -46 -64 -67l55 -22l-3 -4q-10 4 -36 15q-91 36 -117 47l2 4l94 -39q21 20 62 66h-146v5q7 13 18 42h-67v5z" />
<glyph unicode="&#x4e14;" d="M11 -4h39v194h154v-194h40v-5h-233v5zM55 185v-63h144v63h-144zM55 118v-61h144v61h-144zM55 52v-56h144v56h-144z" />
<glyph unicode="&#x4e15;" d="M9 56q86 53 133 124h-122v5h216v-5h-88q-48 -74 -136 -129zM17 -1h223v-5h-223v5zM152 124l3 4q49 -35 89 -68l-3 -3q-50 40 -89 67zM125 134h5v-112h-5v112z" />
<glyph unicode="&#x4e16;" d="M11 137h38v57h5v-57h61v67h5v-67h76v68h5v-68h44v-5h-44v-88h-86v88h-61v-138h185v-5h-190v143h-38v5zM120 49h76v83h-76v-83z" />
<glyph unicode="&#x4e18;" d="M11 -1h45v179q91 2 160 10l1 -5q-88 -9 -157 -9v-70h174v-5h-55v-100h66v-5h-234v5zM60 99v-100h114v100h-114z" />
<glyph unicode="&#x4e19;" d="M34 132h91q1 16 1 47h-114v5h232v-5h-113q0 -31 -1 -47h92v-117q3 -38 -37 -35l-28 1v5l28 -1q36 -4 32 30v112h-87v-5q3 -60 -70 -104l-2 4q70 44 67 100v5h-86v-150h-5v155zM129 86l3 3q29 -28 64 -62l-3 -3q-30 28 -64 62z" />
<glyph unicode="&#x4e1a;" d="M155 204h5v-206h84v-5h-232v5h84v206h5v-206h54v206zM186 58q6 13 24 51q15 31 19 39l4 -2q-17 -37 -43 -90zM23 147l5 2l1 -2q5 -10 19 -40q16 -36 22 -48l-5 -2q-10 23 -41 88z" />
<glyph unicode="&#x4e1b;" d="M166 176v27h5q0 -20 -1 -30q5 -94 74 -153l-3 -4q-62 52 -73 134q-9 -79 -69 -138l-4 4q68 65 71 160zM77 177l1 27h5l-1 -27q-1 -24 -4 -42q9 -10 32 -35q11 -12 15 -16l-3 -4q-6 7 -22 24q-17 18 -23 25q-8 -59 -61 -112l-3 3q64 62 64 157zM14 -3h228v-5h-228v5z" />
<glyph unicode="&#x4e1c;" d="M14 166h67q14 25 21 41l4 -2q-4 -9 -14 -28q-3 -7 -5 -11h155v-5h-158q-22 -42 -45 -72h96v50h5v-50h91v-5h-91v-78q2 -29 -31 -27h-13q-11 1 -16 1v5q5 0 16 -1h13q29 -2 26 22v78h-101v5q18 24 45 72h-65v5zM11 -6q36 27 65 60l3 -3q-26 -32 -65 -61zM177 51l3 4 q8 -8 5 -5q43 -40 59 -53l-3 -3q-35 30 -64 57z" />
<glyph unicode="&#x4e1d;" d="M138 46q25 23 60 66l-62 -2q-1 0 -9 -1l-1 5q1 0 4 1q2 0 3 1q13 14 65 89l4 -3q-43 -63 -63 -87l63 2q20 26 27 37l4 -3q-34 -50 -88 -106l83 3v-5l-86 -3q-3 0 -10 -1l-1 5q1 0 3 1q3 0 4 1zM36 47q17 17 54 65l-61 -1q-2 0 -9 -1l-1 5l6 1q33 38 62 87l4 -2 q-28 -49 -60 -85l62 1q18 25 24 36l4 -2q-41 -65 -79 -104l72 2v-5l-75 -2l-9 -2l-1 5q2 1 5 1zM12 -5h232v-5h-232v5z" />
<glyph unicode="&#x4e1e;" d="M35 189h179v-5l-81 -43v-92q2 -31 -33 -29h-23v5h23q31 -2 28 24v95l76 40h-169v5zM141 138l4 3q14 -25 27 -43q27 16 61 41l3 -4q-34 -25 -61 -41q27 -36 71 -57l-2 -4q-68 31 -103 105zM17 -6h222v-5h-222v5zM19 135h79v-5q-27 -63 -84 -102l-3 4q59 41 81 98h-73v5z " />
<glyph unicode="&#x4e22;" d="M32 125h93v53q-76 -2 -100 -3v5q93 2 205 8v-5q-24 -1 -89 -4q5 0 -11 -1v-53h94v-5h-94v-50h115v-5h-234v5h114v50h-93v5zM162 38l3 3l71 -60l-3 -4l-18 16q-3 0 -71 -2q-101 -2 -108 -2l-14 -1v5q5 0 8 1h1q41 25 82 70l4 -3q-32 -36 -77 -67q13 1 89 2q67 2 81 2z" />
<glyph unicode="&#x4e24;" d="M121 15l-4 3q41 46 42 109h-62q0 -18 -4 -34l36 -35l-4 -3l-33 32q-9 -36 -42 -70l-3 3q44 44 45 107h-56v-149h-5v154h61q1 18 1 47h-79v5h230v-5h-78v-14q-1 -22 -1 -33h61v-124q1 -30 -32 -29h-23v5h23q29 -2 27 24v119h-57q0 -21 -5 -41l46 -51l-3 -3l-45 48 q-9 -35 -36 -65zM98 179q0 -29 -1 -47h63q1 18 1 47h-63z" />
<glyph unicode="&#x4e25;" d="M37 103h64v80h-82v5h223v-5h-81v-80h80v-5h-200v-36q3 -56 -27 -87l-4 3q30 31 27 84v41zM106 183v-80h50v80h-50zM37 161l4 3l33 -39l-4 -3zM187 125q21 21 34 39l4 -3q-13 -18 -35 -40z" />
<glyph unicode="&#x4e27;" d="M125 207h5v-34h106v-5h-106v-73h114v-5h-134q13 -32 38 -55q40 18 70 35l3 -4q-30 -17 -69 -35q31 -26 94 -42l-2 -4q-109 25 -139 105h-46v-105q8 4 72 25l1 -4q-64 -22 -71 -25q-4 -2 -9 -7l-3 4q6 6 5 7v105h-43v5h114v73h-106v5h106v34zM43 150l3 3l1 -1 q20 -18 39 -39l-4 -3q-9 10 -38 39zM169 114q14 12 39 40l4 -3q-17 -18 -39 -41z" />
<glyph unicode="&#x4e28;" d="M125 207h5v-233h-5v233z" />
<glyph unicode="&#x4e2a;" d="M10 93q82 52 123 115l4 -3q-3 -4 -6 -10q40 -59 115 -101l-2 -4q-73 41 -117 101q-43 -58 -115 -102zM125 112h5v-137h-5v137z" />
<glyph unicode="&#x4e2b;" d="M23 199l3 3q46 -38 77 -68l-4 -3q-36 34 -76 68zM152 134q24 17 78 67l3 -4q-53 -48 -78 -67zM125 115h5v-140h-5v140z" />
<glyph unicode="&#x4e2c;" d="M157 205h5v-229h-5v109l-87 -63l-3 4l90 64v115zM81 162l4 3q16 -17 48 -56l-4 -3q-32 39 -48 56z" />
<glyph unicode="&#x4e2d;" d="M126 207h5v-54h97v-111h-5v20h-92v-88h-5v88h-93v-21h-5v112h98v54zM33 148v-81h93v81h-93zM223 148h-92v-81h92v81z" />
<glyph unicode="&#x4e30;" d="M38 101h88v52h-102v4h102v49h5v-49h102v-4h-102v-52h88v-5h-88v-54h111v-5h-111v-61h-5v61h-111v5h111v54h-88v5z" />
<glyph unicode="&#x4e32;" d="M125 207h5v-34h87v-59h-87v-32h98v-73h-5v12h-93v-47h-5v47h-92v-12h-5v73h97v32h-87v59h87v34zM223 77h-93v-51h93v51zM33 77v-51h92v51h-92zM212 168h-82v-49h82v49zM43 168v-49h82v49h-82z" />
<glyph unicode="&#x4e34;" d="M114 89h114v-114h-5v22h-104v-22h-5v114zM119 84v-84h50v84h-50zM223 84h-49v-84h49v84zM73 205h5v-229h-5v229zM93 104q39 49 58 103l5 -2q-4 -13 -18 -41h106v-5h-109q-19 -36 -38 -58zM27 179h5v-181h-5v181zM158 139l3 3l35 -33l-3 -4z" />
<glyph unicode="&#x4e36;" d="M89 126l3 3l75 -74l-3 -4z" />
<glyph unicode="&#x4e38;" d="M25 105l3 4q6 -3 25 -14q20 -12 31 -18q5 23 6 52l1 22h-67v4h67q2 46 2 52h5q0 -6 -2 -52h81v-139q-1 -27 22 -26h9q28 0 29 19q1 6 4 33l5 -1q0 -3 -1 -11q-2 -18 -3 -22q-3 -24 -34 -23h-9q-27 0 -27 31v135h-76q-1 -12 -1 -23q0 -5 -1 -14q-3 -28 -5 -40 q36 -20 55 -32l-3 -4q-8 5 -30 18q-15 9 -23 14q-9 -52 -75 -94l-3 4q65 40 73 92q-15 9 -42 24q-12 7 -16 9z" />
<glyph unicode="&#x4e39;" d="M12 85h44v5v97h151v-102h38v-5h-38v-67q0 -18 -8 -24q-9 -6 -28 -6h-32v5q5 0 16 -1h16q18 0 25 6q6 6 6 20v67h-141q0 -67 -36 -105l-4 3q35 37 35 102h-44v5zM61 90v-5h141v97h-141v-92zM104 153l4 4l50 -46l-3 -3z" />
<glyph unicode="&#x4e3a;" d="M112 146l3 59h5l-3 -59q0 -2 -1 -4v-3h110l-4 -117q0 -39 -46 -37q-31 0 -41 1v5q10 -1 41 -1q42 -2 41 32l3 112h-104q-4 -95 -96 -159l-3 3q89 62 94 156h-91v5h92v7zM133 86l3 3q32 -26 46 -39l-3 -3q-20 17 -46 39zM45 193l3 3q8 -7 38 -37l-4 -4l-20 20 q-14 15 -17 18z" />
<glyph unicode="&#x4e3b;" d="M22 157h211v-5h-103v-74h94v-5h-94v-78h112v-5h-229v5h112v78h-94v5h94v74h-103v5zM114 204l4 3l1 -1q3 -5 13 -22q8 -11 10 -15l-5 -2q-5 9 -23 36v1z" />
<glyph unicode="&#x4e3d;" d="M30 146h80v-146q0 -21 -22 -21h-21v5h21q18 -1 17 16v141h-70v-164h-5v169zM144 146h82v-146q1 -21 -23 -21h-21v5h21q19 -1 18 16v141h-73v-164h-4v169zM52 100l5 2l31 -53l-5 -2zM166 100l4 2l34 -53l-5 -3zM12 184h231v-5h-231v5z" />
<glyph unicode="&#x4e3e;" d="M126 122h5v-43h60v-5h-60v-43h103v-5h-103v-52h-5v52h-105v5h105v43h-62v5h62v43zM10 65q60 31 84 76h-79v4h226v-4h-79q26 -46 84 -74l-3 -4q-59 28 -86 78h-57q-26 -47 -87 -81zM175 158q18 21 37 45l4 -3q-22 -28 -38 -45zM113 205l5 2l24 -42l-5 -3zM40 198l4 3 l30 -39l-3 -3z" />
<glyph unicode="&#x4e3f;" d="M154 205h4v-61q7 -119 -98 -171l-2 5q57 31 76 66q21 35 20 100v61z" />
<glyph unicode="&#x4e43;" d="M80 139l2 39h-58v5h179v-5l-37 -68h60q-3 -78 -4 -86q-1 -40 -43 -38h-42v5h42q38 -2 38 33q1 3 2 44q2 31 2 37h-60v5l37 68h-111l-2 -39q0 -110 -71 -163l-3 3q70 53 69 160z" />
<glyph unicode="&#x4e45;" d="M29 96q46 51 70 111l4 -2q-7 -20 -19 -40h91v-4q-11 -39 -32 -72q32 -65 103 -105l-3 -5q-69 40 -103 105q-42 -63 -121 -108l-3 4q123 70 154 180h-88q-21 -36 -49 -67z" />
<glyph unicode="&#x4e47;" d="M10 84l101 8v77q-10 -1 -30 -2q-38 -3 -51 -3v4q94 5 189 19v-5q-55 -8 -103 -12v-78l127 10l1 -5l-128 -10v-62q-2 -37 35 -34h33q44 -3 45 25q4 18 4 35h5q0 -18 -4 -35q-2 -33 -50 -30h-33q-42 -3 -40 39v62l-100 -8z" />
<glyph unicode="&#x4e48;" d="M166 66l4 3q21 -25 67 -83l-4 -3l-16 19q-4 0 -76 -2q-83 -2 -89 -2q-2 0 -7 -1q-5 0 -7 -1l-1 4q6 0 9 1l1 1q82 69 137 153l4 -3q-56 -82 -135 -151q8 0 54 2q74 2 107 3q-8 9 -23 29q-19 24 -25 31zM18 81q65 51 110 124l4 -3q-49 -76 -111 -125z" />
<glyph unicode="&#x4e49;" d="M48 179l4 1q25 -87 76 -131q50 45 74 131l5 -1q-24 -86 -75 -134q40 -36 113 -62l-2 -5q-75 28 -115 64q-39 -37 -114 -65l-2 4q72 28 112 64q-51 47 -76 134zM109 204l4 2l33 -59l-4 -2z" />
<glyph unicode="&#x4e4b;" d="M33 17q12 15 19 13q5 0 9 -3q89 55 154 120h-180v5h188v-4q-66 -67 -158 -124l4 -4l2 -2q19 -25 80 -23h95v-5h-95q-63 -3 -84 25q-11 12 -15 11q-4 2 -15 -12q-7 -7 -24 -28l-4 3q17 21 24 28zM114 205l5 2l27 -44l-4 -3z" />
<glyph unicode="&#x4e4c;" d="M56 175h46q12 24 15 31l4 -2q-1 -5 -9 -20q-4 -6 -5 -9h98l-2 -36q0 -32 -38 -30q-7 0 -25 1h-14v5q8 -1 39 -1q34 -2 33 25l2 31h-140v-90h171l-3 -58q0 -41 -46 -40l-39 1v5l39 -1q41 -2 41 36l3 52h-170v100zM13 37h184v-4h-184v4z" />
<glyph unicode="&#x4e4d;" d="M10 89q49 48 80 118l4 -2q-10 -23 -22 -44h173v-5h-131v-54h112v-5h-112v-55h123v-5h-123v-62h-5v181h-40q-24 -41 -55 -71z" />
<glyph unicode="&#x4e4e;" d="M10 80h119v98q-80 -2 -105 -2v5q98 1 207 7l1 -5q-54 -4 -98 -5v-98h111v-5h-111v-69q2 -30 -34 -28h-30v5h30q32 -3 29 23v69h-119v5zM172 103q20 26 42 55l4 -3q-30 -39 -42 -55zM40 155l4 3l1 -2q9 -10 35 -47q3 -4 4 -6l-4 -3q-1 2 -4 6q-26 36 -35 47z" />
<glyph unicode="&#x4e4f;" d="M31 10q12 14 19 13q6 1 11 -5q85 39 147 87h-173v5h182v-4q-63 -50 -151 -91l3 -4q19 -22 83 -20h94v-5h-94q-66 -3 -86 21q-10 12 -16 11q-4 2 -15 -11l-22 -24l-4 3zM24 176q109 3 207 11v-5q-97 -8 -207 -11v5zM109 157l4 4l33 -40l-4 -3z" />
<glyph unicode="&#x4e50;" d="M132 153h4v-62h96v-5h-96v-80q2 -28 -31 -26q-18 0 -28 1v5q10 -1 28 -1q30 -2 27 21v80h-103l15 93q101 3 178 11l1 -5q-77 -8 -175 -11l-14 -83h98v62zM11 -4q38 31 62 64l4 -3q-25 -34 -63 -65zM179 57l3 3q7 -6 30 -29q24 -24 33 -32l-4 -3q-33 32 -62 61z" />
<glyph unicode="&#x4e52;" d="M11 54h45v130q73 0 159 7l1 -5q-64 -5 -155 -7v-52h174v-5h-59v-68h69v-5h-234v5zM61 122v-68h111v68h-111zM23 -21q47 25 77 50l3 -3q-25 -21 -77 -51z" />
<glyph unicode="&#x4e53;" d="M11 54h45v130q73 0 159 7l1 -5q-64 -5 -155 -7v-52h174v-5h-59v-68h69v-5h-234v5zM61 122v-68h110v68h-110zM153 25l3 4l74 -49l-2 -4z" />
<glyph unicode="&#x4e54;" d="M15 128h100q10 21 13 51q-76 -2 -99 -2v5q90 1 195 6l1 -5q-9 0 -31 -1q-40 -2 -61 -3q-3 -28 -12 -51h120v-5h-96q30 -50 100 -69l-2 -5q-73 20 -103 74h-21q-24 -50 -106 -78l-2 4q81 29 102 74h-98v5zM84 49l1 18h5l-1 -19q4 -44 -60 -74l-2 5q61 26 57 70zM173 66h5 v-91h-5v91z" />
<glyph unicode="&#x4e56;" d="M11 139h114v43q-55 -3 -98 -3v5q117 3 194 7v-5q-8 0 -28 -1l-63 -3v-43h114v-5h-114v-160h-5v160h-114v5zM170 118h5v-49q42 18 58 28l3 -4q-22 -14 -61 -29v-22q-1 -23 22 -22h14q24 -1 25 17q2 12 2 21l5 -1q0 -9 -2 -21q-2 -22 -30 -21h-14q-27 0 -27 27v76zM80 118 h4v-108h-4v29l-67 -17l-1 4l68 18v36h-62v5h62v33z" />
<glyph unicode="&#x4e58;" d="M12 149h113v35q-74 -2 -97 -3l-1 5q140 3 194 6v-5q-24 -1 -90 -3v-35h113v-5h-113v-66q33 -57 114 -84l-2 -5q-78 28 -112 80v-95h-6v95q-33 -51 -112 -82l-3 5q83 32 115 86v66h-113v5zM172 130h4v-33q42 14 58 22l3 -4q-28 -13 -61 -23v-10q-1 -25 24 -24h12 q24 -1 25 15q1 3 1 8q1 5 1 7h5q0 -3 -1 -8q0 -5 -1 -8q-2 -20 -30 -18h-12q-29 -1 -28 28v48zM79 130h4v-77h-4v18l-66 -13l-1 4l67 14v28h-60v5h60v21z" />
<glyph unicode="&#x4e59;" d="M230 62l5 -1l-3 -38q-2 -36 -57 -35h-107q-43 0 -43 25q-1 20 16 35q52 50 156 131h-164v5h172v-5q-99 -76 -161 -134q-15 -14 -14 -32q0 -20 38 -20h107q53 -1 52 31z" />
<glyph unicode="&#x4e5c;" d="M11 116l49 11v73h5v-71l150 35l-4 -67q0 -42 -42 -38h-38v5h15q15 -1 23 -1q38 -3 38 34l3 61l-145 -34v-86q-5 -50 45 -45h73q52 -3 53 28v2q3 19 3 25h5q0 -2 -1 -8q-2 -14 -3 -20q-1 -35 -57 -32h-73q-55 -5 -50 50v84l-48 -11z" />
<glyph unicode="&#x4e5d;" d="M18 149h73q1 26 2 58h5q0 -9 -2 -58h79v-132q-1 -28 23 -27h9q26 -1 30 17q3 19 3 33h5q-1 -21 -4 -34q-4 -21 -34 -21h-9q-29 -1 -28 32v127h-75v-16q-2 -64 -19 -92q-16 -31 -64 -61l-3 4q48 29 63 59q16 27 18 90l1 16h-73v5z" />
<glyph unicode="&#x4e5e;" d="M230 47h4q0 -16 -1 -29q-1 -32 -50 -31h-104q-39 0 -41 19q0 16 19 29q38 27 120 77h-121v5h130v-4q-81 -49 -126 -82q-18 -12 -17 -25q3 -14 36 -14h104q46 -1 45 27q1 4 1 14q1 9 1 14zM21 121q38 36 61 85l5 -2q-9 -19 -20 -35h169v-5h-172q-16 -23 -40 -47z" />
<glyph unicode="&#x4e5f;" d="M48 178h5v-60l77 19v69h4v-67l86 22l-3 -68q1 -41 -34 -38h-27v5l27 -1q30 -3 29 35l3 60l-81 -20v-107h-4v105l-77 -19v-75q-6 -50 49 -45h78q56 -3 56 28q1 4 2 14q2 10 2 13h4q0 -5 -2 -22q-1 -4 -1 -6q-2 -35 -61 -32h-78q-59 -5 -54 50v74l-37 -10l-1 5l38 10v61z " />
<glyph unicode="&#x4e60;" d="M54 141l3 4l78 -45l-2 -5zM25 22l164 66l2 -4l-165 -67zM28 182h192l-4 -158q1 -39 -46 -37q-29 0 -40 1v5q11 -1 40 -1q43 -2 41 32l4 153h-187v5z" />
<glyph unicode="&#x4e61;" d="M40 135q54 36 92 72l3 -4q-32 -31 -87 -68q48 2 112 3q33 24 48 38l3 -3q-65 -58 -153 -107l141 7q10 18 17 42l5 -1q-15 -107 -202 -139l-1 5q149 29 178 88q-87 -4 -143 -8l-16 -1l-1 4q2 1 6 1q5 1 6 2q43 23 105 67q-61 -2 -110 -3q-2 0 -12 -1l-1 4q5 1 9 2h1z" />
<glyph unicode="&#x4e66;" d="M106 207h5v-49h89l-5 -70h38l-3 -49q0 -41 -38 -38q-10 0 -25 1h-11l1 5h10q15 -1 25 -1q33 -4 33 33l3 44h-117v-108h-5v108h-92v5h92v65h-76v5h76v49zM195 153h-84v-65h79zM182 193l3 4l53 -39l-3 -4z" />
<glyph unicode="&#x4e69;" d="M66 207h5v-54h66v-5h-66v-58h49v-111h-5v21h-86v-21h-5v111h42v117zM29 85v-81h86v81h-86zM164 204h5v-187q-1 -30 22 -28h21q28 -2 29 23v15q1 14 1 19h5q0 -5 -1 -19v-15q-1 -29 -34 -28h-21q-28 -1 -27 33v187z" />
<glyph unicode="&#x4e70;" d="M155 160h5l-2 -60q0 -21 -6 -39h92v-5h-94q-16 -51 -132 -81l-1 5q112 28 128 76h-132v5h134q6 18 7 40zM235 184v-5l-23 -47l-4 2l21 45h-210v5h216zM140 32l2 5q12 -7 54 -31q33 -17 45 -24l-2 -5q-18 10 -68 38q-24 13 -31 17zM39 109l2 4l57 -29l-2 -5zM61 151l2 4 l52 -29l-3 -4z" />
<glyph unicode="&#x4e71;" d="M11 129h59v53q-26 -2 -49 -2v5q41 0 103 7v-5q-8 -1 -28 -3q-14 -1 -21 -2v-53h61v-6h-61v-50h44v-94h-5v19h-82v-19h-5v94h43v50h-59v6zM32 69v-68h82v68h-82zM162 204h5v-188q-1 -30 22 -27h21q28 -2 28 23q2 16 2 34h5q0 -19 -2 -35q-2 -28 -33 -27h-21q-28 -2 -27 32 v188z" />
<glyph unicode="&#x4e73;" d="M132 110l-51 -39v-19l64 6v-4l-64 -7v-41q2 -26 -25 -24h-20v5h20q23 -3 21 19v41l-66 -7l-1 5l67 6v22l47 37h-103v5h111v-5zM164 200h5v-187q0 -25 27 -25h10q33 -2 33 23v15q1 14 1 19h5q0 -19 -2 -35q0 -30 -37 -27h-10q-31 1 -32 30v187zM15 186q56 0 123 4v-4 q-83 -5 -123 -5v5zM20 166l5 2l19 -37l-5 -2zM106 130q8 13 20 38l5 -2q-3 -7 -13 -25l-7 -14zM68 167l5 2l12 -36l-4 -2z" />
<glyph unicode="&#x4e7e;" d="M25 139h38v29h-48v5h48v33h5v-33h47v-5h-47v-29h38v-80h-38v-33h51v-4h-51v-47h-5v47h-53v4h53v33h-38v80zM101 134h-72v-33h72v33zM29 63h72v33h-72v-33zM237 46l5 -1l-1 -28q-1 -32 -30 -32h-56q-23 1 -25 20q0 14 11 29q33 40 70 77h-70v5h77v-5q-44 -45 -73 -81 q-10 -12 -10 -25q0 -15 20 -15h56q26 -1 26 27v29zM121 121q26 38 40 84l4 -1q-6 -20 -13 -36h93v-5h-95q-10 -24 -25 -45z" />
<glyph unicode="&#x4e86;" d="M231 184v-5l-96 -69v-97q2 -33 -33 -31l-31 1l1 5l30 -1q31 -3 28 26v99l92 67h-202v5h211z" />
<glyph unicode="&#x4e88;" d="M233 101v-6l-25 -49l-4 2l24 48h-95v-87q2 -31 -36 -29h-31v5h31q33 -2 31 24v87h-111v5h216zM214 186v-5q-33 -26 -82 -59q3 -2 8 -6l9 -6l-3 -4q-38 28 -74 53l3 4l52 -38q51 33 79 56h-168v5h176z" />
<glyph unicode="&#x4e89;" d="M184 179v-5l-39 -39h69v-45h32v-5h-32v-64h-5v19h-83v-33q1 -28 -34 -27l-27 1v5l27 -1q31 -1 29 22v33h-92v5h92v40h-111v5h111v40h-77v5h94l39 39h-104q-25 -30 -53 -50l-3 4q44 32 75 79l4 -3q-2 -2 -5 -7q-4 -5 -14 -18h107zM126 85v-40h83v40h-83zM209 130h-83v-40 h83v40z" />
<glyph unicode="&#x4e8b;" d="M30 91h96v23h-85v39h85v24h-114v5h114v25h5v-25h111v-5h-111v-24h84v-39h-84v-23h89v-33h26v-4h-26v-46h-5v13h-84v-14q2 -29 -33 -27h-28l1 5h27q31 -2 28 22v14h-100v5h100v28h-115v4h115v28h-96v5zM46 148v-29h80v29h-80zM131 54v-28h84v28h-84zM210 148h-79v-29h79 v29zM215 86h-84v-28h84v28z" />
<glyph unicode="&#x4e8c;" d="M14 4h228v-4h-228v4zM32 174h193v-5h-193v5z" />
<glyph unicode="&#x4e8d;" d="M12 110h232v-5h-101v-90q2 -33 -38 -31h-34v5h16q12 -1 18 -1q35 -1 33 27v90h-126v5zM36 184h184v-5h-184v5z" />
<glyph unicode="&#x4e8e;" d="M29 184h201v-5h-91v-78h106v-5h-106v-81q2 -35 -36 -33q-26 0 -37 1v5q11 -1 37 -1q34 -3 31 28v81h-122v5h122v78h-105v5z" />
<glyph unicode="&#x4e8f;" d="M58 64l13 56h-58v5h230v-5h-167l-12 -51h144l-5 -51q-2 -36 -50 -34q-36 0 -47 1v4h47q43 -2 45 30l5 45h-145zM35 183h187v-5h-187v5z" />
<glyph unicode="&#x4e91;" d="M161 65l3 3l70 -83l-4 -3l-17 19q-117 -1 -177 -4l-14 -2l-1 5h9q45 43 80 102l4 -3q-33 -56 -77 -99q12 1 109 4q53 2 63 2zM13 110h230v-5h-230v5zM35 183h185v-5h-185v5z" />
<glyph unicode="&#x4e92;" d="M52 46l20 129h-47v4h205v-4h-152l-8 -51h134l-7 -128h47v-6h-232v6h180l3 50h-143zM199 120h-130l-11 -69h137z" />
<glyph unicode="&#x4e93;" d="M10 111h235v-5h-63v-130h-5v130h-94v-38q1 -61 -60 -93l-3 4q59 31 58 89l1 38h-69v5zM34 182h187v-5h-187v5z" />
<glyph unicode="&#x4e94;" d="M26 102h64l13 75h-77v5h205v-5h-123l-13 -75h108v-105h42v-4h-233v4h59l18 100h-63v5zM198 97h-104l-18 -100h122v100z" />
<glyph unicode="&#x4e95;" d="M22 146h56v58h5v-58h95v59h5v-59h51v-5h-51v-70h61v-4h-61v-91h-5v91h-96q0 -57 -54 -93l-3 4q53 35 53 89h-65v4h65v13v57h-56v5zM83 84v-13h95v70h-95v-57z" />
<glyph unicode="&#x4e98;" d="M47 144h162v-108h-162v108zM204 139h-152v-47h152v47zM52 41h152v46h-152v-46zM13 -4h230v-4h-230v4zM22 188h213v-4h-213v4z" />
<glyph unicode="&#x4e9a;" d="M22 185h212v-5h-75v-181h85v-5h-232v5h84v181h-74v5zM101 180v-181h54v181h-54zM186 52q8 14 30 56l13 26l4 -3q-25 -49 -43 -81zM23 132l5 2q31 -61 42 -81l-5 -2q-10 20 -42 81z" />
<glyph unicode="&#x4e9b;" d="M89 207h5v-49h43v-5h-43v-58l47 8l1 -4l-130 -22l-1 4l30 6v91h6v-91l42 7v113zM154 207h5v-69q48 22 73 39l3 -4q-24 -16 -76 -40v-26q-1 -26 23 -24h27q27 -1 28 21q1 4 1 12q1 9 1 12h4v-12q-1 -9 -1 -13q-1 -25 -33 -24h-27q-29 -1 -28 28v100zM18 -5h221v-5h-221v5z M44 44h170v-5h-170v5z" />
<glyph unicode="&#x4e9f;" d="M27 136h60v-86h-60v86zM82 132h-50v-77h50v77zM211 189v-4l-82 -42v-96q3 -29 -31 -27h-24v5h24q29 -2 26 22v99l76 39h-163v4h174zM158 107l3 3q5 -4 17 -16q11 -10 17 -16q20 24 32 52h-74v5h79v-5q-12 -30 -34 -56q19 -17 37 -38l-4 -3l-10 10q-16 18 -26 27 q-21 -24 -49 -43l-3 4q27 19 48 43q-19 20 -33 33zM16 -5h224v-5h-224v5z" />
<glyph unicode="&#x4ea0;" d="M13 136h230v-5h-230v5zM107 203l4 3l38 -57l-4 -3z" />
<glyph unicode="&#x4ea1;" d="M11 151h234v-5h-190v-147h172v-5h-177v152h-39v5zM110 204l4 3q3 -4 14 -17q17 -20 22 -27l-4 -3q-16 21 -36 44z" />
<glyph unicode="&#x4ea2;" d="M114 203l5 3l23 -38l-4 -2zM18 162h223v-5h-223v5zM69 109h105v-96q-1 -25 25 -24h12q24 0 26 15q3 11 4 30h5q0 -10 -4 -31q-4 -18 -31 -18h-12q-31 -1 -30 28v91h-95v-32q1 -38 -11 -56q-12 -19 -47 -38l-2 5q34 17 44 35q12 17 11 55v36z" />
<glyph unicode="&#x4ea4;" d="M74 98l4 2q19 -42 50 -67q31 24 51 68l5 -2q-20 -45 -52 -69q32 -26 113 -48l-1 -5q-81 23 -116 50q-37 -28 -116 -52l-2 5q79 23 114 50q-30 24 -50 68zM17 167h222v-5h-222v5zM157 137l3 4l79 -56l-3 -4zM20 82q42 26 77 59l3 -4q-38 -34 -77 -59zM117 205l5 2l18 -34 l-4 -2z" />
<glyph unicode="&#x4ea5;" d="M17 166h222v-4h-121q-31 -34 -69 -64q25 1 96 2q22 22 37 42l4 -3q-54 -77 -173 -120l-1 5q83 31 127 71q-13 0 -67 -1q-24 -1 -27 -1t-11 -1l-1 5l8 2h2q35 27 68 63h-94v4zM26 -21q127 40 188 123l4 -3q-32 -39 -66 -65l75 -52l-3 -4l-76 53q-42 -30 -121 -56zM117 205 l4 2l19 -34l-5 -2z" />
<glyph unicode="&#x4ea6;" d="M95 102q0 9 1 28q0 22 1 25h-83v5h228v-5h-78v-143q3 -31 -31 -28h-23v5l23 -1q29 -3 26 24v143h-58q0 -26 -1 -53q3 -82 -75 -128l-2 4q75 44 72 124zM194 114l4 3l46 -76l-5 -2zM11 41q22 37 36 75l5 -2q-20 -50 -37 -75zM114 205l5 2l22 -38l-5 -3z" />
<glyph unicode="&#x4ea7;" d="M40 102h110q17 20 39 53l4 -2q-14 -21 -37 -51h83v-5h-194v-36q3 -55 -30 -87l-4 3q32 31 29 84v41zM22 172h222v-5h-222v5zM71 153l4 2l30 -39l-3 -3zM119 205l4 2l19 -32l-4 -2z" />
<glyph unicode="&#x4ea8;" d="M203 136h-151v-37h151v37zM48 141h160v-47h-160v47zM117 205l4 2l20 -30l-5 -2zM17 173h222v-5h-222v5zM225 68v-5q-86 -31 -90 -33v-29q2 -26 -27 -24h-32v5h32q24 -2 22 19v32l81 30h-186v5h200z" />
<glyph unicode="&#x4ea9;" d="M38 126h180v-151h-5v23h-170v-23h-5v151zM43 58v-57h83v57h-83zM131 58v-57h82v57h-82zM43 121v-58h83v58h-83zM213 121h-82v-58h82v58zM12 168h231v-4h-231v4zM116 205l4 2l19 -32l-4 -3z" />
<glyph unicode="&#x4eab;" d="M48 145h160v-42h-160v42zM203 140h-150v-32h150v32zM10 31h119v16l75 27h-167v5h182v-5l-85 -30v-13h110v-4h-110v-25q2 -26 -29 -25h-29v5h29q26 -2 24 20v25h-119v4zM117 205l5 2l17 -32h101v-5h-224v5h118z" />
<glyph unicode="&#x4eac;" d="M45 128h166v-63h-78v-64q2 -25 -27 -23h-25v5h25q25 -2 23 18v64h-84v63zM206 123h-156v-53h156v53zM14 167h228v-5h-228v5zM11 -3q36 18 65 44l4 -4q-31 -27 -66 -44zM174 37l2 4q5 -3 21 -13q36 -23 46 -28l-3 -4q-30 17 -66 41zM116 205l5 2l19 -36l-4 -2z" />
<glyph unicode="&#x4ead;" d="M48 148h160v-41h-160v41zM203 144h-151v-32h151v32zM21 83h214v-38h-5v33h-204v-32h-5v37zM47 47h162v-5h-72v-37q1 -26 -29 -25h-27v5h27q26 -1 24 20v37h-85v5zM118 205l4 2l15 -28h103v-5h-224v5h115z" />
<glyph unicode="&#x4eae;" d="M51 146h154v-42h-154v42zM200 142h-144v-33h144v33zM76 46h93v-43q-1 -18 21 -17h16q27 -1 29 14q1 3 2 15q1 8 1 11h4q0 -5 -1 -17q-1 -7 -1 -9q-4 -20 -34 -19h-16q-26 -1 -26 22v38h-84v-13q4 -40 -63 -53l-1 4q65 15 60 49v18zM22 79h213v-35h-5v30h-204v-30h-4v35z M118 205l4 2l15 -29h103v-5h-224v5h115z" />
<glyph unicode="&#x4eb2;" d="M20 64h108v38h5v-38h103v-5h-103v-55q1 -26 -28 -25h-26v5h26q24 -1 23 20v55h-108v5zM14 111h134q21 21 41 47l4 -3q-11 -15 -38 -44h87v-5h-228v5zM119 205l4 2l16 -35h92v-5h-206v5h109zM168 36l3 4l67 -42l-2 -4zM18 -4q36 18 65 44l3 -3q-35 -30 -66 -45zM64 155 l4 3l31 -35l-4 -3z" />
<glyph unicode="&#x4eb3;" d="M48 151h160v-37h-160v37zM203 146h-151v-27h151v27zM13 20l95 6v29q-8 0 -23 -1q-28 -2 -41 -2v5q96 4 155 10v-5q-8 -1 -6 -1q-49 -4 -80 -6v-29l127 9v-5l-127 -8v-15q-2 -21 24 -19h58q31 -1 30 12q2 6 2 13h5q0 -2 -1 -7q0 -5 -1 -6q0 -19 -35 -17h-58q-31 -2 -29 24 v14l-94 -6zM20 93h215v-31h-5v26h-205v-26h-5v31zM118 205l4 2l14 -29h104v-4h-224v4h115z" />
<glyph unicode="&#x4eb5;" d="M10 8q79 24 128 58l3 -4q-7 -4 -15 -10q14 -14 30 -26q30 13 6 3q24 10 48 22l2 -4q-22 -12 -51 -24q35 -22 84 -31l-1 -5q-84 17 -122 63q-19 -12 -43 -22v-45l64 19l1 -3l-64 -21q-1 0 -7 -4l-3 4q4 3 4 4v44q-29 -13 -62 -23zM111 111l1 5l31 -13q8 11 9 33h-41v5h41 l1 23h5l-1 -23h51v-16q0 -39 5 -47t12 -8q8 0 11 10q1 3 2 12q2 8 2 11h5q-2 -16 -5 -24q-4 -13 -15 -14q-9 1 -16 10q-6 10 -6 50v11h-46q-1 -20 -9 -35l37 -15l-2 -4l-38 15q-12 -17 -51 -33l-2 4q34 15 48 31zM62 165h5v-25h35v-5h-35v-27l34 3l1 -5l-35 -3v-23 q1 -21 -25 -20h-17v5h17q22 -1 20 15v22l-49 -5l-1 5l50 5v28h-42v5h42v25zM119 205l4 2l15 -28h103v-5h-226v5h117z" />
<glyph unicode="&#x4eba;" d="M125 205h5v-33v-5q0 -107 114 -183l-3 -4q-102 68 -113 157q-7 -88 -114 -158l-2 4q120 79 113 189v33z" />
<glyph unicode="&#x4ebb;" d="M16 79q64 50 108 128l4 -2q-15 -29 -38 -58v-172h-5v166q-28 -37 -66 -66z" />
<glyph unicode="&#x4ebf;" d="M241 60h5l-3 -38q-1 -36 -42 -36h-70q-41 0 -41 27q0 18 12 34q49 62 115 130h-116v5h122v-5q-67 -69 -118 -133q-9 -15 -10 -31q0 -21 36 -21h70q36 -1 38 30zM9 78q41 51 69 129l4 -2q-9 -27 -23 -56v-173h-5v164q-20 -39 -41 -65z" />
<glyph unicode="&#x4ec0;" d="M167 206h5v-97h74v-5h-74v-129h-5v129h-79v5h79v97zM10 78q44 54 71 128l5 -1q-10 -29 -25 -56v-173h-4v164q-23 -42 -44 -65z" />
<glyph unicode="&#x4ec1;" d="M9 78q44 53 73 129l5 -2q-11 -29 -25 -56v-173h-5v164q-23 -41 -44 -65zM88 2h158v-3h-158v3zM102 172h131v-5h-131v5z" />
<glyph unicode="&#x4ec2;" d="M83 149h59l2 58h5l-2 -58h82l-3 -125q1 -38 -38 -37q-5 0 -18 1h-15l1 5h15q12 -1 17 -1q35 -2 33 33l3 119h-77q-2 -71 -16 -102q-13 -33 -54 -65l-3 4q40 31 53 63q13 30 15 100h-59v5zM9 77q39 49 67 128l5 -1q-10 -29 -23 -56v-173h-5v163q-21 -41 -40 -64z" />
<glyph unicode="&#x4ec3;" d="M92 183h153v-5h-55v-163q3 -36 -36 -33h-38v5h38q34 -3 31 28v163h-93v5zM9 78q39 50 68 128l5 -1q-9 -29 -23 -56v-173h-5v163q-20 -38 -41 -64z" />
<glyph unicode="&#x4ec4;" d="M45 183h199v-5h-194v-58q0 -66 -6 -91q-6 -26 -29 -54l-4 3q23 27 28 52q6 24 6 90v63zM146 168h6v-27v-6q0 -90 94 -154l-3 -4q-83 58 -93 132q-8 -74 -95 -133l-3 4q100 67 94 161v27z" />
<glyph unicode="&#x4ec5;" d="M89 184h139v-5q-17 -84 -62 -135q26 -32 80 -63l-2 -4q-56 34 -81 63q-33 -35 -89 -66l-2 5q59 33 87 65q-41 47 -56 135h-14v5zM108 179q16 -88 55 -132q43 50 59 132h-114zM10 78q38 49 64 128l5 -1q-9 -29 -22 -56v-173h-5v163q-18 -37 -38 -64z" />
<glyph unicode="&#x4ec6;" d="M9 78q45 53 73 128l5 -1q-10 -29 -25 -56v-173h-5v164q-19 -37 -44 -65zM147 207h5v-232h-5v232zM165 133l3 4q9 -8 39 -34q29 -26 38 -34l-4 -4q-8 7 -33 29q-33 31 -43 39z" />
<glyph unicode="&#x4ec7;" d="M83 149h44q0 24 1 56v2h5v-2q-1 -32 -1 -56h63v-143q0 -16 16 -16h5q18 -1 21 15q0 2 1 13q1 17 1 21h5q0 -15 -3 -35q-2 -20 -25 -19h-5q-21 0 -21 21v138h-58q0 -9 -1 -16q-1 -64 -13 -92q-10 -31 -45 -61l-3 4q34 29 44 58q11 28 12 91q0 7 1 16h-44v5zM10 78 q40 51 66 127l4 -1q-9 -32 -25 -62v-166h-5v156q-17 -34 -36 -58z" />
<glyph unicode="&#x4ec9;" d="M112 105v81h82v-178q0 -17 17 -17h6q20 -1 21 16q2 12 2 33h5q0 -15 -3 -34q-2 -21 -25 -20h-6q-21 1 -22 22v174h-73v-77q0 -52 -8 -75q-7 -26 -33 -53l-3 3q25 27 32 52q8 23 8 73zM10 78q39 51 65 127l4 -2q-9 -30 -24 -60v-167h-5v157q-22 -41 -36 -58z" />
<glyph unicode="&#x4eca;" d="M11 103q84 46 122 104l4 -3q-1 -2 -4 -6q-1 -2 -2 -3q41 -53 114 -91l-2 -5q-72 38 -114 92q-43 -53 -116 -92zM35 70h174v-5q-28 -40 -75 -91l-3 3q41 45 73 88h-169v5zM109 131l4 3l33 -41l-4 -3z" />
<glyph unicode="&#x4ecb;" d="M11 91q85 50 121 116l4 -2q-2 -6 -5 -9q40 -63 115 -102l-3 -4q-74 41 -114 101q-41 -62 -116 -104zM80 109h5v-36q4 -64 -51 -98l-3 4q52 33 49 94v36zM170 108h5v-133h-5v133z" />
<glyph unicode="&#x4ecd;" d="M123 138l1 39h-33v5h122v-5l-29 -68h45l-3 -86q0 -40 -33 -38q-25 0 -31 1v4h31q28 -2 28 33l3 81h-45v5l29 68h-79l-1 -39q0 -109 -52 -163l-4 3q51 53 51 160zM10 77q39 52 65 128l4 -2q-7 -23 -24 -61v-167h-5v157q-18 -35 -36 -58z" />
<glyph unicode="&#x4ece;" d="M162 171l1 33h5l-1 -31q4 -122 78 -192l-3 -3q-67 62 -77 162q-5 -94 -85 -163l-4 3q87 73 86 191zM69 171v33h5v-33q3 -120 -60 -194l-4 3q62 72 59 191zM73 118l3 3q3 -4 12 -14q28 -32 37 -44l-3 -3q-39 45 -49 58z" />
<glyph unicode="&#x4ed1;" d="M59 112h5v-58q70 21 130 50l2 -4q-45 -24 -132 -52v-31q-1 -28 39 -27h61q42 -1 42 21q3 12 3 31l5 -1q0 -6 -2 -24q-1 -5 -1 -7q-2 -27 -47 -25h-61q-44 0 -44 32v95zM11 105q86 48 123 101l4 -2q-1 -1 -2 -3q-2 -4 -3 -5q38 -49 113 -87l-3 -4q-75 38 -113 87 q-40 -49 -117 -91z" />
<glyph unicode="&#x4ed3;" d="M58 114h130l-2 -41q-1 -33 -35 -32h-34v5h34q30 -2 31 28l1 35h-121v-87q0 -32 34 -32h73q45 -2 45 18q2 7 5 31h4q-1 -18 -4 -32q-2 -24 -50 -22h-73q-38 0 -38 37v92zM11 107q83 45 123 100l4 -2q-1 -1 -2 -3q-2 -4 -3 -5q40 -50 113 -87l-3 -4q-75 38 -113 87 q-42 -50 -117 -91z" />
<glyph unicode="&#x4ed4;" d="M109 184h124v-5l-58 -60v-27h70v-5h-70v-74q2 -32 -31 -30h-29v5h29q28 -2 26 25v74h-87v5h87v29l56 58h-117v5zM10 80q38 50 63 127l5 -2q-12 -36 -22 -56v-173h-5v162q-18 -37 -37 -61z" />
<glyph unicode="&#x4ed5;" d="M165 205h5v-84h76v-5h-76v-116h71v-3h-150v3h74v116h-81v5h81v84zM11 78q39 52 65 128l5 -1q-9 -29 -22 -56v-173h-5v163q-23 -45 -39 -64z" />
<glyph unicode="&#x4ed6;" d="M98 176h5v-64l58 19v74h5v-72l66 22l-2 -73q0 -33 -28 -31l-20 1v5l20 -1q23 -2 23 26l2 66l-61 -21v-105h-5v104l-58 -19v-81q-4 -39 35 -35h59q40 -2 41 26q2 14 2 26h5q0 -11 -2 -27q-2 -33 -46 -30h-59q-44 -4 -40 40v79l-27 -9l-2 5l29 9v66zM10 78q38 48 63 126 l5 -1q-9 -32 -25 -64v-163h-5v153q-17 -32 -34 -55z" />
<glyph unicode="&#x4ed7;" d="M99 126l4 1q15 -56 49 -90q32 35 33 102q0 2 1 5v3h-107v5h107v53h5q0 -28 -1 -53h49v-5h-49v-8q-1 -69 -35 -106q30 -28 91 -47l-2 -5q-61 19 -92 48q-25 -27 -83 -52l-2 4q57 25 81 52q-34 35 -49 93zM8 74q39 52 61 132l5 -1q-8 -31 -20 -59v-169h-5v158 q-18 -40 -37 -64z" />
<glyph unicode="&#x4ed8;" d="M82 145h118v57h5v-57h39v-5h-39v-125q2 -35 -34 -34q-25 0 -36 1v5q11 -1 36 -1q32 -2 29 29v125h-118v5zM10 77q38 51 64 129l5 -1q-10 -29 -25 -63v-165h-5v155q-19 -38 -35 -58zM97 105l4 3l51 -57l-4 -3z" />
<glyph unicode="&#x4ed9;" d="M161 203h5v-203h60v152h5v-173h-5v16h-129v157h4v-152h60v203zM10 82q36 48 61 124l5 -1q-9 -29 -22 -58v-171h-5v161q-19 -38 -35 -58z" />
<glyph unicode="&#x4edd;" d="M49 91h158v-5h-76v-86h105v-5h-216v5h106v86h-77v5zM10 94q84 51 122 113l4 -2l-5 -9q39 -57 115 -99l-3 -4q-75 43 -115 99q-42 -57 -115 -102z" />
<glyph unicode="&#x4ede;" d="M149 130l2 49h-55v5h133l-5 -162q0 -39 -41 -37q-6 0 -20 1h-17l1 5q8 -1 36 -1q38 -2 36 33l5 156h-68l-2 -49q3 -104 -73 -155l-3 3q73 51 71 152zM11 78q38 50 65 128l4 -1q-9 -29 -22 -56v-173h-4v163q-17 -33 -39 -64zM86 70q15 33 25 66l4 -1q-7 -32 -25 -67z" />
<glyph unicode="&#x4edf;" d="M88 95h79v80q-35 -3 -64 -3v4q58 3 129 10l1 -5q-14 -2 -53 -5q4 0 -8 -1v-80h74v-5h-74v-114h-5v114h-79v5zM11 78q38 49 64 128l5 -1q-9 -29 -22 -56v-173h-5v162q-18 -37 -38 -63z" />
<glyph unicode="&#x4ee1;" d="M236 46h5l-1 -29q-1 -32 -38 -31h-77q-27 1 -30 19q0 15 14 29q35 34 89 78h-89v4h96v-4q-65 -54 -92 -81q-13 -14 -13 -26q2 -14 25 -14h77q33 -1 33 27zM10 78q37 51 62 128l5 -1q-5 -15 -16 -43q-3 -9 -5 -13v-173h-5v162q-21 -41 -37 -63zM83 120q32 37 50 86l5 -2 q-4 -10 -12 -27q-3 -6 -4 -9h124v-5h-127q-13 -24 -32 -46z" />
<glyph unicode="&#x4ee3;" d="M79 111l62 7q-1 6 -1 20q-1 12 -1 19l-2 48h5l2 -48q0 -20 2 -38l96 11v-5l-95 -11q8 -87 35 -116q12 -15 28 -14q17 0 21 15q5 10 9 33l4 -1q-4 -25 -8 -34q-6 -18 -26 -18q-17 -1 -32 15q-28 31 -36 119l-62 -7zM10 76q40 50 68 129l5 -1q-12 -35 -27 -63v-166h-5v156 q-20 -37 -37 -58zM172 188l3 3l45 -40l-3 -4z" />
<glyph unicode="&#x4ee4;" d="M38 83h176v-5q-39 -40 -83 -76l35 -23l-3 -4l-101 69l3 4l62 -44q46 39 80 74h-169v5zM10 103q83 47 123 104l4 -3l-5 -7q43 -55 113 -91l-2 -5q-74 39 -114 92q-41 -53 -116 -94zM108 137l4 4l33 -36l-4 -3z" />
<glyph unicode="&#x4ee5;" d="M202 141l2 56h5l-2 -56q-3 -53 -22 -88q40 -45 59 -65l-4 -3q-5 5 -19 20q-29 33 -38 44q-24 -39 -92 -73l-2 4q116 52 113 161zM35 191h5v-182l71 49l3 -4l-73 -49l-1 -1q-2 -3 -5 -5l-4 1q5 7 4 7v184zM98 203l4 2l36 -69l-4 -2z" />
<glyph unicode="&#x4ee8;" d="M10 77q35 52 57 128l5 -1q-8 -29 -20 -56v-173h-5v161q-15 -35 -33 -62zM81 1h165v-3h-165v3zM92 175h142v-5h-142v5zM100 93h127v-5h-127v5z" />
<glyph unicode="&#x4eea;" d="M100 178l5 1q18 -87 57 -132q43 49 60 133l5 -1q-19 -89 -62 -136q29 -34 81 -60l-2 -5q-53 28 -82 61q-30 -32 -88 -62l-2 4q58 31 86 62q-39 46 -58 135zM11 78q38 54 61 128l5 -2q-6 -21 -21 -55v-174h-5v163q-16 -36 -36 -63zM145 204l4 2l27 -56l-4 -2z" />
<glyph unicode="&#x4eeb;" d="M189 65l4 3q4 -7 18 -29q26 -41 35 -55l-4 -2l-13 18q-80 -1 -130 -4q-2 0 -7 -1q-2 -1 -4 -1l-1 5q7 1 8 1q64 65 116 145l4 -2q-55 -85 -114 -143q24 0 125 5zM10 77q37 48 64 128l5 -1q-9 -27 -22 -56v-173h-5v163q-18 -38 -38 -64zM80 84q52 51 87 119l5 -2 q-37 -69 -89 -121z" />
<glyph unicode="&#x4eec;" d="M151 182h77v-173q2 -31 -27 -29h-13q-11 1 -15 1v5q5 0 16 -1h12q24 -3 22 24v168h-72v5zM10 78q37 53 59 128l5 -2q-6 -22 -21 -58v-171h-5v160q-19 -39 -33 -60zM94 159h5v-182h-5v182zM98 201l3 4l32 -38l-4 -3z" />
<glyph unicode="&#x4ef0;" d="M163 176h67v-136q1 -26 -26 -25q-16 0 -21 1v4h21q23 -2 21 20v131h-57v-198h-5v203zM9 78q33 52 55 128l5 -1q-1 -4 -4 -11q-5 -16 -15 -44v-174h-5v161q-16 -39 -32 -62zM94 178q41 8 58 15l1 -5q-21 -7 -54 -14v-160l48 26l2 -5l-50 -26l-4 -4l-4 3l3 3v167z" />
<glyph unicode="&#x4ef2;" d="M160 207h5v-55h65v-113h-5v20h-60v-85h-5v85h-60v-20h-5v113h65v55zM100 147v-83h60v83h-60zM225 147h-60v-83h60v83zM10 78q34 51 58 128l4 -2q-8 -27 -19 -56v-173h-5v162q-17 -37 -34 -62z" />
<glyph unicode="&#x4ef3;" d="M170 203h5v-110q37 29 64 59l4 -3q-28 -31 -68 -62v-76q0 -11 6 -17q4 -4 16 -4h15q26 -1 26 20q2 16 2 34l5 -1q0 -19 -2 -33q-2 -26 -31 -25h-15q-13 0 -19 6q-8 6 -8 20v192zM101 200h5v-84h51v-5h-51v-119l49 28l2 -4l-51 -30q-1 0 -1 -1l-3 -3l-4 3q4 3 3 4v211z M10 78q37 55 58 128l4 -2q-8 -27 -19 -56v-173h-5v162q-19 -43 -34 -62z" />
<glyph unicode="&#x4ef5;" d="M89 114q31 52 42 93l4 -1q-3 -15 -15 -42h115v-5h-66v-81h76v-5h-76v-98h-4v98h-85v5h85v81h-47q-13 -28 -25 -47zM10 78q38 52 62 128l5 -1q-9 -29 -21 -56v-173h-5v162q-21 -41 -37 -63z" />
<glyph unicode="&#x4ef6;" d="M167 206h5v-64h66v-5h-66v-71h75v-5h-75v-86h-5v86h-93v5h93v71h-59q-10 -26 -20 -45l-4 2q21 40 34 93l5 -2q-1 -3 -2 -8q-4 -13 -11 -35h57v64zM10 75q37 51 60 128l5 -1q-8 -27 -24 -63v-165h-4v154q-16 -33 -33 -56z" />
<glyph unicode="&#x4ef7;" d="M10 78q36 52 59 128l5 -1q-8 -29 -20 -56v-173h-5v162q-19 -42 -35 -63zM71 95q64 48 90 111l5 -2l-3 -6q-1 -3 -2 -4q28 -58 85 -97l-3 -4q-57 39 -84 96q-27 -55 -86 -97zM120 108h5v-36q3 -62 -40 -98l-4 4q42 32 39 94v36zM191 107h5v-132h-5v132z" />
<glyph unicode="&#x4efb;" d="M83 94h82v79q-20 -2 -58 -3q-8 -1 -12 -1l-1 5q83 2 139 12l1 -5q-29 -5 -64 -7v-80h75v-5h-75v-92h68v-5h-144v5h71v92h-82v5zM10 77q39 53 63 129l5 -2q-9 -27 -21 -55v-174h-5v163q-18 -38 -38 -64z" />
<glyph unicode="&#x4efd;" d="M125 71l1 21h-35v6h121l-3 -81q1 -34 -41 -32q-24 0 -33 1v4q5 0 17 -1h16q39 -3 37 28l2 75h-76l-1 -21q-3 -61 -60 -96l-2 4q55 35 57 92zM9 79q38 49 62 127l4 -2q-9 -32 -24 -62v-167h-4v156q-17 -32 -34 -54zM176 203l5 2q18 -61 65 -101l-3 -4q-49 42 -67 103z M74 100q42 40 63 97l5 -1q-20 -55 -64 -99z" />
<glyph unicode="&#x4eff;" d="M82 162h163v-5h-111l-1 -45q0 -3 -1 -6h90l-3 -92q-1 -30 -33 -30q-23 0 -31 1v5q8 -1 31 -1q28 -1 29 25l2 87h-85q3 -87 -55 -125l-3 3q33 27 42 52q11 24 12 81l1 45h-47v5zM10 78q37 50 61 128l5 -1q-9 -29 -21 -56v-173h-5v162q-18 -38 -36 -63zM153 205l4 2l21 -38 l-4 -3z" />
<glyph unicode="&#x4f01;" d="M133 133h5v-58h71v-5h-71v-72h104v-4h-227v4h41v96h4v-96h73v135zM10 105q81 44 122 102l4 -3q-2 -3 -5 -7q39 -49 114 -87l-2 -4q-75 37 -115 87q-40 -51 -115 -92z" />
<glyph unicode="&#x4f09;" d="M117 66v43h79v-107q0 -7 4 -10q3 -3 11 -3h7q18 -1 20 13q0 2 1 13q1 13 1 16h5q0 -11 -3 -30q-2 -18 -24 -17h-7q-9 0 -14 4q-6 6 -6 14v102h-69v-38q2 -57 -43 -90l-3 3q43 31 41 87zM11 78q19 24 43 71v1q13 27 22 56l4 -2q-9 -27 -21 -55v-174h-5v163 q-24 -45 -39 -63zM93 159h143v-5h-143v5zM146 203l4 3l22 -38l-4 -2z" />
<glyph unicode="&#x4f0a;" d="M73 127h61v55h-44v5h133v-60h23v-5h-23v-84h-5v23h-82q-2 -54 -56 -87l-2 3q51 33 54 84h-48v5h48q2 20 2 48v8h-61v5zM139 114q0 -28 -2 -48h81v56h-79v-8zM218 182h-79v-55h79v55zM10 78q37 55 58 128l4 -1q-7 -30 -22 -63v-166h-5v155q-18 -39 -31 -56z" />
<glyph unicode="&#x4f0d;" d="M88 102h42l12 75h-58v5h150v-5h-87l-12 -75h82v-105h28v-4h-176v4h44l16 101h-41v4zM212 98h-78l-16 -101h94v101zM10 78q34 55 53 128l5 -1q-8 -29 -19 -58v-172h-5v160q-14 -36 -30 -60z" />
<glyph unicode="&#x4f0e;" d="M161 207h4v-44h79v-5h-79v-46h59v-5q-16 -49 -57 -82q24 -21 78 -43l-2 -4q-52 22 -80 44q-31 -23 -88 -47l-2 4q54 21 86 46q-39 31 -54 82h-15v5h71v46h-78v5h78v44zM110 107q15 -46 53 -79q40 33 56 79h-109zM11 78q38 52 62 128l5 -1q-9 -32 -25 -66v-164h-5v154 q-19 -36 -33 -54z" />
<glyph unicode="&#x4f0f;" d="M152 206h5v-74v-4h84v-5h-84q6 -85 88 -141l-3 -5q-72 48 -88 124q-13 -75 -82 -126l-3 4q77 58 83 144h-74v5h74v4v74zM10 78q40 50 66 128l5 -2q-14 -37 -24 -59v-169h-5v159q-21 -41 -38 -60zM183 187l3 3l39 -37l-4 -3z" />
<glyph unicode="&#x4f10;" d="M139 206h5q0 -1 1 -26q1 -19 1 -30q1 -3 1 -10q1 -6 1 -10l93 12l1 -5l-94 -12q3 -45 12 -78q39 27 63 66l5 -3q-27 -41 -66 -68q8 -29 25 -46q11 -13 25 -13q13 0 19 17q8 27 9 38h5q-5 -25 -10 -40q-7 -20 -23 -20t-29 15q-16 17 -26 46q-31 -21 -74 -37l-2 4 q44 17 75 38q-9 33 -13 81l-55 -7l-1 5l56 7q-1 9 -1 20q-2 28 -3 56zM11 79q38 48 67 127l5 -1q-10 -30 -24 -59v-170h-5v161q-23 -43 -39 -61zM175 189l3 4q8 -7 30 -27q6 -6 9 -8l-3 -4q-17 17 -39 35z" />
<glyph unicode="&#x4f11;" d="M69 11q62 61 84 133h-70v4h73v58h5v-58h78v-4h-76q27 -80 84 -130l-4 -4q-57 51 -82 126v-162h-5v162q-25 -72 -84 -129zM10 78q38 49 64 128l4 -2q-8 -26 -24 -62v-166h-5v156q-18 -35 -35 -57z" />
<glyph unicode="&#x4f17;" d="M169 102l1 22l5 -1l-1 -21v-1q5 -77 70 -119l-3 -5q-58 40 -69 103q-9 -62 -70 -106l-3 4q69 50 70 124zM15 107q80 45 117 100l4 -3q-1 -1 -2 -3q-2 -3 -3 -4q37 -50 110 -88l-2 -4q-72 37 -111 88q-42 -52 -111 -90zM74 103l1 21h5l-1 -21q0 -4 -1 -12q0 -7 -1 -11 l51 -46l-4 -4l-48 44q-9 -53 -63 -96l-3 3q64 50 64 122z" />
<glyph unicode="&#x4f18;" d="M135 147l1 59h5l-1 -59v-5q-1 -4 -1 -6h103v-5h-71v-116q-1 -25 24 -23h14q29 -1 29 22q2 18 2 30h5q0 -5 -1 -15q0 -10 -1 -15q-2 -28 -34 -27h-14q-30 -1 -29 28v116h-27q-2 -100 -71 -156l-3 4q67 55 69 152h-55v5h55q0 6 1 11zM10 78q36 52 60 128l5 -1 q-9 -30 -22 -59v-170h-5v159q-17 -34 -34 -60zM175 188l3 4l15 -12q15 -12 26 -21l-3 -4q-11 11 -41 33z" />
<glyph unicode="&#x4f19;" d="M157 205h5v-74q3 -98 83 -152l-3 -3q-71 48 -81 125q-6 -73 -83 -126l-4 4q88 58 83 151v75zM10 78q38 52 62 128l5 -1q-9 -29 -21 -56v-173h-5v162q-18 -38 -37 -63zM82 154l4 3l39 -65l-4 -2zM197 92l40 65l4 -3l-40 -64z" />
<glyph unicode="&#x4f1a;" d="M158 41l3 3l63 -62l-3 -4l-17 17q-124 -2 -156 -4l-12 -1l-1 5q9 0 8 1q24 15 65 69h-86v4h213v-4h-122q-32 -46 -62 -69q11 1 78 2q58 2 70 2zM13 108q82 43 119 97l4 -3l-4 -7q36 -47 112 -84l-2 -5q-74 36 -113 85q-44 -51 -114 -87zM63 117h131v-5h-131v5z" />
<glyph unicode="&#x4f1b;" d="M95 183h147v-5h-142v-183h143v-5h-148v193zM120 17q32 36 55 69q-5 6 -14 19q-28 38 -36 48l4 3q7 -9 31 -42l18 -24q26 35 43 68l5 -2q-17 -31 -44 -70q27 -37 48 -69l-4 -2q-12 17 -48 67q-29 -42 -55 -68zM10 78q36 51 59 128l5 -1q-9 -29 -20 -56v-173h-5v162 q-17 -39 -35 -63z" />
<glyph unicode="&#x4f1e;" d="M16 38h109v104h6v-104h110v-5h-110v-58h-6v58h-109v5zM10 111q84 44 123 97l4 -3q-3 -4 -6 -7q40 -49 114 -85l-2 -4q-75 36 -115 85q-42 -49 -115 -87zM163 67l39 43l4 -4l-40 -43zM50 106l3 3l37 -41l-4 -4z" />
<glyph unicode="&#x4f1f;" d="M149 206h5v-40h78v-5h-78v-39h69v-5h-69v-42h76l-2 -42q-1 -32 -33 -30q-5 0 -14 1h-10v5q7 -1 24 -1q27 -2 28 26l2 36h-71v-95h-5v95h-77v5h77v42h-61v5h61v39h-73v5h73v40zM10 78q36 54 58 128l5 -1q-8 -29 -20 -56v-173h-5v162q-19 -41 -34 -63z" />
<glyph unicode="&#x4f20;" d="M79 119h50q7 21 11 42h-48v5h49q6 21 9 40l5 -1q-4 -21 -9 -39h91v-5h-92q-4 -21 -11 -42h111v-5h-113q-6 -24 -14 -43h111v-4q-28 -38 -54 -67q26 -12 41 -21l-2 -4l-116 63l2 4l71 -39q22 24 52 64h-110v5q8 18 14 42h-48v5zM10 77q40 53 66 128l5 -1q-2 -4 -5 -12 q-11 -29 -18 -44v-173h-5v163q-17 -35 -39 -64z" />
<glyph unicode="&#x4f22;" d="M104 104h94v75h-100v5h143v-5h-38v-75h42v-4h-42v-91q1 -29 -28 -28q-19 0 -27 1v5q9 -1 27 -1q24 -1 23 23v91h-10q-35 -65 -108 -106l-2 5q69 38 104 101h-83v4l17 59l4 -1zM10 77q37 52 61 129l5 -2q-9 -27 -21 -56v-173h-5v163q-15 -34 -36 -64z" />
<glyph unicode="&#x4f24;" d="M80 99h63l3 45h5l-3 -45h81l-3 -82q1 -33 -38 -31q-26 0 -34 1v5q8 -1 34 -1q34 -2 33 26l4 77h-77q-2 -78 -75 -117l-2 4q69 39 72 113h-63v5zM10 79q36 51 60 127l5 -1q-9 -29 -21 -58v-171h-5v160q-17 -35 -35 -60zM80 119q33 38 51 88l5 -2q-8 -19 -17 -37h126v-5 h-129q-10 -21 -33 -47z" />
</font>
</defs>
</svg>
