<?xml version="1.0" encoding="utf-8"?>
<!DOCTYPE svg PUBLIC "-//W3C//DTD SVG 1.1//EN" "http://www.w3.org/Graphics/SVG/1.1/DTD/svg11.dtd">
<svg style="width:308px;height:308px;" version="1.1" id="图形" xmlns="http://www.w3.org/2000/svg" xmlns:xlink="http://www.w3.org/1999/xlink" x="0px" y="0px" width="1024px" height="1024px" viewBox="0 0 1024 1024" enable-background="new 0 0 1024 1024" xml:space="preserve">
  <path class="svgpath" data-index="path_0" fill="#ecf0f1" d="M512 1024C229.233778 1024 0 794.766222 0 512 0 229.233778 229.233778 0 512 0 794.766222 0 1024 229.233778 1024 512 1024 794.766222 794.766222 1024 512 1024ZM512 56.888889C260.636444 56.888889 56.888889 260.636444 56.888889 512 56.888889 763.335111 260.636444 967.111111 512 967.111111 763.363556 967.111111 967.111111 763.335111 967.111111 512 967.111111 260.636444 763.363556 56.888889 512 56.888889ZM595.911111 778.353778C595.911111 778.353778 330.979556 513.422222 330.979556 513.422222 330.979556 513.422222 332.401778 512 332.401778 512 332.401778 512 330.979556 510.577778 330.979556 510.577778 330.979556 510.577778 595.911111 245.646222 595.911111 245.646222 595.911111 245.646222 636.131556 285.866667 636.131556 285.866667 636.131556 285.866667 409.998222 512 409.998222 512 409.998222 512 636.131556 738.133333 636.131556 738.133333 636.131556 738.133333 595.911111 778.353778 595.911111 778.353778Z" />

</svg>
